<svg width="197" viewBox="0 10 197 43" fill="none" xmlns="http://www.w3.org/2000/svg">
<path d="M54.9206 13.7721V22.353C51.1246 20.0541 47.8009 18.9046 44.9495 18.9046C42.0981 18.9046 39.817 19.8848 38.1061 21.8451C36.3952 23.8055 35.5398 26.443 35.5398 29.7578C35.5398 32.8944 36.4398 35.4072 38.2398 37.2963C40.0397 39.1675 42.4456 40.1031 45.4574 40.1031C48.095 40.1031 51.2494 39.0428 54.9206 36.922V45.4228C50.8038 46.7951 47.3732 47.4812 44.6287 47.4812C39.9061 47.4812 35.8962 45.7525 32.5993 42.2952C29.3023 38.82 27.6539 34.5874 27.6539 29.5974C27.6539 24.5183 29.3291 20.2234 32.6795 16.7126C36.0477 13.1839 40.1377 11.4196 44.9495 11.4196C48.0504 11.4196 51.3741 12.2038 54.9206 13.7721ZM59.6799 11.9008H67.1916V39.4348H77.537V47H59.6799V11.9008ZM141.992 15.0819L137.287 20.2412C134.81 18.7799 133.028 18.0492 131.941 18.0492C131.103 18.0492 130.382 18.37 129.776 19.0115C129.17 19.6353 128.867 20.3838 128.867 21.257C128.867 22.9857 130.435 24.4827 133.572 25.748C135.871 26.7282 137.608 27.6193 138.784 28.4212C139.961 29.2054 140.941 30.3014 141.725 31.7093C142.527 33.1172 142.928 34.6409 142.928 36.2804C142.928 39.2923 141.707 41.912 139.266 44.1397C136.842 46.3673 133.973 47.4812 130.658 47.4812C127.022 47.4812 123.431 45.7703 119.885 42.3486L124.857 36.5478C127.085 38.8467 129.17 39.9962 131.112 39.9962C132.021 39.9962 132.894 39.5952 133.732 38.7933C134.57 37.9735 134.988 37.118 134.988 36.227C134.988 34.3914 133.055 32.7785 129.188 31.3885C126.978 30.5865 125.409 29.838 124.483 29.143C123.556 28.4301 122.772 27.4054 122.13 26.0688C121.507 24.7144 121.195 23.3332 121.195 21.9253C121.195 18.8066 122.21 16.276 124.242 14.3334C126.274 12.3909 128.929 11.4196 132.208 11.4196C136.093 11.4196 139.355 12.6404 141.992 15.0819ZM147.34 11.9008H167.095V18.8511H154.905V25.9351H167.095V32.7785H154.905V40.0497H167.095V47H147.34V11.9008ZM170.036 11.9008H193.641V19.3591H185.594V47H178.029V19.3591H170.036V11.9008Z" fill="#ffffff"/>
<circle cx="99.2052" cy="29.8974" r="20.3846" fill="#FF007F"/>
<circle cx="99.2051" cy="29.8974" r="16.9872" fill="black"/>
<circle cx="99.2051" cy="29.8975" r="13.5897" fill="#FF007F"/>
<circle cx="99.2051" cy="29.8974" r="10.1923" fill="black"/>
<circle cx="99.2051" cy="29.8974" r="6.79487" fill="#FF007F"/>
<circle cx="99.2051" cy="29.8974" r="3.39744" fill="black"/>
<path d="M5.57487 52.4293L5.57487 40.7108H9.27754V44.7054L23 44.7054V48.4612L9.27754 48.4612V52.4293H5.57487ZM5.57487 38.2291L5.57487 34.4733H12.2901L12.2901 28.3022L5.57487 28.3022L5.57487 24.5597L23 24.5597L23 28.3022H16.0724V34.4733H23V38.2291L5.57487 38.2291ZM5.57487 20.9234L5.57487 11.1159H9.02539L9.02539 17.1676H12.5423L12.5423 11.1159H15.9397L15.9397 17.1676L19.5495 17.1676V11.1159H23V20.9234L5.57487 20.9234Z" fill="#FF007F"/>
</svg>
