<svg width="100" height="100" viewBox="0 0 100 100" fill="none" xmlns="http://www.w3.org/2000/svg">
<circle cx="50" cy="50" r="50" fill="white"/>
<path d="M58.3333 40.625C58.3333 38.4149 57.4554 36.2953 55.8926 34.7325C54.3298 33.1696 52.2101 32.2917 50 32.2917C47.7899 32.2917 45.6702 33.1696 44.1074 34.7325C42.5446 36.2953 41.6667 38.4149 41.6667 40.625H37.5C37.5001 38.6248 37.9802 36.6537 38.9 34.8775C39.8198 33.1013 41.1524 31.5717 42.7859 30.4173C44.4194 29.2629 46.3061 28.5174 48.2875 28.2434C50.2689 27.9693 52.2871 28.1748 54.1726 28.8425C56.0581 29.5102 57.7559 30.6206 59.1232 32.0805C60.4906 33.5404 61.4877 35.3072 62.0306 37.2323C62.5736 39.1574 62.6467 41.1848 62.2437 43.144C61.8406 45.1032 60.9733 46.9371 59.7146 48.4917L44.4646 66.6646L62.5 66.6667V70.8333H37.5V68.4854L56.3833 45.9813C57.6456 44.4822 58.3364 42.5847 58.3333 40.625Z" fill="#3DA9FC"/>
</svg>
