<svg width="100" height="100" viewBox="0 0 100 100" fill="none" xmlns="http://www.w3.org/2000/svg">
<circle cx="50" cy="50" r="50" fill="white"/>
<path d="M62.5 29.1667V32.0042L51.6854 44.8959C54.1319 45.2028 56.4482 46.1718 58.3846 47.6984C60.3209 49.225 61.8037 51.2512 62.6731 53.5585C63.5426 55.8658 63.7657 58.3667 63.3183 60.7915C62.871 63.2163 61.7701 65.4729 60.1346 67.3181C58.499 69.1633 56.3908 70.5269 54.0372 71.2621C51.6837 71.9972 49.1741 72.0759 46.7791 71.4896C44.3841 70.9033 42.1946 69.6744 40.4467 67.9352C38.6987 66.1961 37.4588 64.0129 36.8604 61.6209L40.9021 60.6084C41.4615 62.8242 42.8108 64.7594 44.6963 66.0507C46.5819 67.342 48.8741 67.9004 51.1423 67.6211C53.4105 67.3418 55.4986 66.2439 57.0146 64.5337C58.5305 62.8235 59.3699 60.6187 59.375 58.3334C59.3755 56.7366 58.9681 55.1661 58.1915 53.7709C57.4148 52.3757 56.2947 51.2019 54.9373 50.361C53.5799 49.52 52.0302 49.0397 50.4351 48.9656C48.84 48.8915 47.2525 49.2261 45.8229 49.9375L45.3479 50.1917L43.9104 47.6771L55.9479 33.3334H38.5417V29.1667H62.5Z" fill="#3DA9FC"/>
</svg>
