<svg width="42" height="42" viewBox="0 0 42 42" fill="none" xmlns="http://www.w3.org/2000/svg">
<path d="M21 41.8333C9.49374 41.8333 0.166656 32.5062 0.166656 21C0.166656 9.49374 9.49374 0.166656 21 0.166656C32.5062 0.166656 41.8333 9.49374 41.8333 21C41.8333 32.5062 32.5062 41.8333 21 41.8333ZM21 37.6667C25.4203 37.6667 29.6595 35.9107 32.7851 32.7851C35.9107 29.6595 37.6667 25.4203 37.6667 21C37.6667 16.5797 35.9107 12.3405 32.7851 9.21488C29.6595 6.08927 25.4203 4.33332 21 4.33332C16.5797 4.33332 12.3405 6.08927 9.21488 9.21488C6.08927 12.3405 4.33332 16.5797 4.33332 21C4.33332 25.4203 6.08927 29.6595 9.21488 32.7851C12.3405 35.9107 16.5797 37.6667 21 37.6667ZM13.7083 25.1667H25.1667C25.4429 25.1667 25.7079 25.0569 25.9032 24.8616C26.0986 24.6662 26.2083 24.4013 26.2083 24.125C26.2083 23.8487 26.0986 23.5838 25.9032 23.3884C25.7079 23.1931 25.4429 23.0833 25.1667 23.0833H16.8333C15.452 23.0833 14.1272 22.5346 13.1505 21.5578C12.1737 20.5811 11.625 19.2563 11.625 17.875C11.625 16.4937 12.1737 15.1689 13.1505 14.1921C14.1272 13.2154 15.452 12.6667 16.8333 12.6667H18.9167V8.49999H23.0833V12.6667H28.2917V16.8333H16.8333C16.5571 16.8333 16.2921 16.9431 16.0968 17.1384C15.9014 17.3338 15.7917 17.5987 15.7917 17.875C15.7917 18.1513 15.9014 18.4162 16.0968 18.6116C16.2921 18.8069 16.5571 18.9167 16.8333 18.9167H25.1667C26.548 18.9167 27.8728 19.4654 28.8495 20.4421C29.8263 21.4189 30.375 22.7437 30.375 24.125C30.375 25.5063 29.8263 26.8311 28.8495 27.8078C27.8728 28.7846 26.548 29.3333 25.1667 29.3333H23.0833V33.5H18.9167V29.3333H13.7083V25.1667Z" fill="#1E326C"/>
</svg>
