<svg width="50" height="50" viewBox="0 0 50 50" fill="none" xmlns="http://www.w3.org/2000/svg">
<path d="M14.5833 18.75C15.9647 18.75 17.2894 18.2013 18.2662 17.2245C19.2429 16.2478 19.7917 14.923 19.7917 13.5417C19.7917 12.1603 19.2429 10.8356 18.2662 9.85881C17.2894 8.88206 15.9647 8.33332 14.5833 8.33332C13.202 8.33332 11.8772 8.88206 10.9005 9.85881C9.92374 10.8356 9.37501 12.1603 9.37501 13.5417C9.37501 14.923 9.92374 16.2478 10.9005 17.2245C11.8772 18.2013 13.202 18.75 14.5833 18.75ZM14.5833 22.9167C13.3522 22.9167 12.1331 22.6742 10.9957 22.203C9.85825 21.7319 8.82476 21.0413 7.95421 20.1708C7.08366 19.3002 6.39311 18.2667 5.92197 17.1293C5.45083 15.9919 5.20834 14.7728 5.20834 13.5417C5.20834 12.3105 5.45083 11.0914 5.92197 9.954C6.39311 8.81657 7.08366 7.78308 7.95421 6.91253C8.82476 6.04198 9.85825 5.35142 10.9957 4.88029C12.1331 4.40915 13.3522 4.16666 14.5833 4.16666C17.0697 4.16666 19.4543 5.15438 21.2125 6.91253C22.9706 8.67068 23.9583 11.0553 23.9583 13.5417C23.9583 16.0281 22.9706 18.4126 21.2125 20.1708C19.4543 21.9289 17.0697 22.9167 14.5833 22.9167V22.9167ZM36.4583 27.0833C37.5634 27.0833 38.6232 26.6443 39.4046 25.8629C40.186 25.0815 40.625 24.0217 40.625 22.9167C40.625 21.8116 40.186 20.7518 39.4046 19.9704C38.6232 19.189 37.5634 18.75 36.4583 18.75C35.3533 18.75 34.2935 19.189 33.5121 19.9704C32.7307 20.7518 32.2917 21.8116 32.2917 22.9167C32.2917 24.0217 32.7307 25.0815 33.5121 25.8629C34.2935 26.6443 35.3533 27.0833 36.4583 27.0833V27.0833ZM36.4583 31.25C34.2482 31.25 32.1286 30.372 30.5658 28.8092C29.003 27.2464 28.125 25.1268 28.125 22.9167C28.125 20.7065 29.003 18.5869 30.5658 17.0241C32.1286 15.4613 34.2482 14.5833 36.4583 14.5833C38.6685 14.5833 40.7881 15.4613 42.3509 17.0241C43.9137 18.5869 44.7917 20.7065 44.7917 22.9167C44.7917 25.1268 43.9137 27.2464 42.3509 28.8092C40.7881 30.372 38.6685 31.25 36.4583 31.25ZM41.6667 43.75V42.7083C41.6667 41.327 41.1179 40.0022 40.1412 39.0255C39.1644 38.0487 37.8397 37.5 36.4583 37.5C35.077 37.5 33.7522 38.0487 32.7755 39.0255C31.7987 40.0022 31.25 41.327 31.25 42.7083V43.75H27.0833V42.7083C27.0833 41.4772 27.3258 40.2581 27.797 39.1207C28.2681 37.9832 28.9587 36.9497 29.8292 36.0792C30.6998 35.2086 31.7333 34.5181 32.8707 34.047C34.0081 33.5758 35.2272 33.3333 36.4583 33.3333C37.6895 33.3333 38.9086 33.5758 40.046 34.047C41.1834 34.5181 42.2169 35.2086 43.0875 36.0792C43.958 36.9497 44.6486 37.9832 45.1197 39.1207C45.5908 40.2581 45.8333 41.4772 45.8333 42.7083V43.75H41.6667ZM20.8333 43.75V35.4167C20.8333 33.7591 20.1749 32.1693 19.0028 30.9972C17.8307 29.8251 16.2409 29.1667 14.5833 29.1667C12.9257 29.1667 11.336 29.8251 10.1639 30.9972C8.99182 32.1693 8.33334 33.7591 8.33334 35.4167V43.75H4.16667V35.4167C4.16667 32.654 5.26414 30.0045 7.21764 28.051C9.17115 26.0975 11.8207 25 14.5833 25C17.346 25 19.9955 26.0975 21.949 28.051C23.9025 30.0045 25 32.654 25 35.4167V43.75H20.8333Z" fill="#1E326C"/>
</svg>
