<svg width="270" height="79" viewBox="0 0 270 79" fill="none" xmlns="http://www.w3.org/2000/svg">
<g clip-path="url(#clip0)">
<path fill-rule="evenodd" clip-rule="evenodd" d="M38.2227 0.298369C37.8493 0.511538 36.8933 1.44507 36.2044 2.26968C35.2054 3.46516 34.8804 3.84672 34.5905 4.16547C34.423 4.34924 33.9366 4.92593 33.5087 5.44649C33.0808 5.96705 32.546 6.59385 32.3206 6.83843C32.0946 7.08367 31.7104 7.53474 31.4662 7.84079C31.2213 8.14751 30.8883 8.53843 30.7255 8.71017C30.5634 8.88124 30.4302 9.04429 30.4302 9.07169C30.4302 9.09908 30.3414 9.21068 30.2337 9.3196C30.1261 9.42853 29.8106 9.78804 29.5327 10.1181C29.2556 10.4483 28.94 10.8104 28.8324 10.9227C28.7241 11.035 28.636 11.1466 28.636 11.1713C28.636 11.196 28.4859 11.3845 28.303 11.5903L27.9693 11.9645L26.3123 11.8208C25.4014 11.742 23.7599 11.6036 22.6653 11.5134C21.5707 11.4232 19.7792 11.2749 18.6846 11.184C12.784 10.6948 12.8391 10.6955 11.9497 11.1499C11.5696 11.3444 11.3638 11.5489 11.168 11.9264C10.7105 12.8098 10.7099 12.755 11.2023 18.6162C11.2938 19.7034 11.4432 21.4829 11.5347 22.5701C11.6255 23.6574 11.7661 25.2872 11.8468 26.1927C11.9915 27.8058 11.9901 27.8405 11.7654 27.9942C11.6396 28.0798 11.355 28.317 11.133 28.5201C10.7166 28.903 10.6096 28.9932 9.57292 29.8366C9.23453 30.1119 8.7562 30.5202 8.5093 30.744C8.26308 30.9679 7.80897 31.3501 7.50018 31.5927C7.19206 31.8353 6.7985 32.166 6.6256 32.3278C6.45271 32.4895 6.26367 32.6218 6.20514 32.6218C6.14661 32.6218 6.09817 32.6592 6.09817 32.7053C6.0975 32.7508 5.69452 33.1143 5.20207 33.5125C4.70961 33.9108 4.30596 34.2743 4.30596 34.3198C4.30529 34.3659 4.23331 34.4033 4.14585 34.4033C4.05839 34.4033 3.97026 34.4488 3.95008 34.5049C3.92922 34.5603 3.53499 34.9192 3.07416 35.3014C2.61265 35.6843 2.17738 36.0525 2.1054 36.1194C2.03409 36.1862 1.63918 36.537 1.22813 36.8985C-0.419433 38.3459 -0.433561 39.8381 1.18709 41.2835C1.44341 41.512 1.73202 41.778 1.82957 41.8749C1.92645 41.9718 2.43505 42.3968 2.95912 42.8198C3.48319 43.2421 3.9373 43.617 3.96824 43.6524C3.99919 43.6878 4.55421 44.1583 5.20207 44.6975C5.84925 45.2368 6.3962 45.7219 6.41638 45.7761C6.43723 45.8309 6.52133 45.875 6.6034 45.875C6.68548 45.875 6.76957 45.9191 6.79043 45.9739C6.81061 46.028 7.20619 46.3828 7.66837 46.7624C8.13122 47.142 8.80733 47.7113 9.17129 48.028C9.53525 48.3448 9.9685 48.7036 10.134 48.8266C10.2995 48.9489 10.7872 49.3619 11.2171 49.7441L11.9989 50.4391L11.8576 51.6372C11.7795 52.2968 11.715 53.1113 11.7136 53.4481C11.7123 53.7849 11.6349 54.8374 11.5414 55.787C11.4479 56.7365 11.2972 58.4158 11.2057 59.5184C11.1149 60.621 10.9877 62.1493 10.9231 62.9151C10.5915 66.8604 11.281 67.6576 14.7726 67.3669C15.5214 67.3048 17.0425 67.1791 18.1525 67.0876C20.0221 66.9332 23.5735 66.6285 26.5888 66.3639C27.8172 66.2563 28.2996 66.3278 28.2996 66.6171C28.2996 66.6639 28.3877 66.7929 28.496 66.9038C28.6037 67.0147 28.9192 67.3743 29.1964 67.7017C29.4742 68.0298 29.8018 68.4107 29.9256 68.5477C30.2297 68.8851 30.8433 69.6169 31.5544 70.4882C31.8793 70.8865 32.2042 71.2627 32.2776 71.3235C32.3509 71.385 32.7566 71.8615 33.1804 72.382C33.8975 73.2634 34.2682 73.6958 34.6961 74.1475C34.791 74.2484 35.0937 74.6066 35.3682 74.9434C35.9407 75.6464 35.866 75.5602 36.8213 76.622C38.3882 78.3648 40.3862 78.6495 41.3139 77.2622C41.3886 77.1506 42.1468 76.2645 42.4778 75.901C42.6043 75.762 42.9346 75.3804 43.2124 75.0523C43.4896 74.7249 43.8051 74.3654 43.9128 74.2544C44.0211 74.1435 44.1092 74.0272 44.1092 73.9965C44.1092 73.9658 44.1973 73.8502 44.3057 73.7392C44.4133 73.6283 44.7288 73.2681 45.006 72.94C45.2838 72.6112 45.5994 72.2651 45.707 72.1702C45.8146 72.076 45.9034 71.9343 45.9034 71.8561C45.9034 71.7773 45.9411 71.7131 45.9875 71.7131C46.0333 71.7131 46.3239 71.4017 46.632 71.0215C46.9401 70.6419 47.3189 70.1989 47.473 70.0372C47.7602 69.7358 47.8383 69.6443 48.7061 68.5931C48.9833 68.2577 49.3506 67.832 49.5228 67.6482C49.6951 67.4645 50.0234 67.0715 50.2521 66.7748L50.6685 66.2349L51.2289 66.3011C51.5377 66.3371 52.2185 66.3946 52.7426 66.428C53.2667 66.4608 54.7299 66.5837 55.9947 66.7007C57.2588 66.8176 59.277 66.9927 60.4792 67.0896C61.6821 67.1871 63.2476 67.3168 63.958 67.3783C67.6588 67.6977 68.1573 66.8296 67.609 61.022C67.5135 60.0109 67.3581 58.2568 67.2639 57.1235C67.1697 55.9901 66.9881 54.0175 66.8603 52.7391C66.7325 51.4608 66.6699 50.3803 66.721 50.3375C66.7728 50.2947 67.0917 50.0374 67.4301 49.7661C67.7685 49.4942 68.1472 49.1687 68.271 49.0424C68.3948 48.9161 68.8496 48.5346 69.2815 48.1938C69.7127 47.853 70.1944 47.4547 70.3518 47.309C70.5086 47.1633 70.9122 46.8192 71.2486 46.5439C71.585 46.2686 71.9167 45.9926 71.986 45.9311C72.0552 45.8696 72.3533 45.619 72.6486 45.3738C72.9433 45.1286 73.24 44.878 73.3072 44.8165C73.3745 44.755 73.7075 44.4817 74.0466 44.2091C74.3857 43.9364 74.7442 43.6357 74.8431 43.5415C75.1553 43.2435 75.6511 42.8285 76.2889 42.3326C79.4804 39.8521 79.5039 38.5344 76.4012 35.9763C75.939 35.5948 75.4345 35.1704 75.2797 35.0321C75.1257 34.8945 74.5727 34.4334 74.0513 34.0077C73.5299 33.582 72.9749 33.1149 72.8182 32.9693C72.6614 32.8236 72.2053 32.4414 71.8043 32.1206C71.4034 31.7992 70.9466 31.4169 70.7898 31.2713C70.5409 31.0407 70.0007 30.5883 69.0117 29.7818C68.861 29.6588 68.6458 29.471 68.5334 29.3641C68.4204 29.2565 68.306 29.169 68.2791 29.169C68.2522 29.169 68.0127 28.9745 67.747 28.7373C67.4806 28.4994 67.1193 28.1847 66.943 28.037L66.6228 27.7684L66.8542 25.5451C66.9807 24.3222 67.1644 22.3195 67.2619 21.0947C67.3595 19.8691 67.5169 18.0649 67.6117 17.0852C68.1836 11.1873 67.7187 10.5057 63.3949 10.8993C62.7471 10.9581 61.2334 11.0844 60.0312 11.18C57.8609 11.3517 55.5614 11.5455 52.3719 11.8255L50.7123 11.9712L50.1889 11.3537C49.9009 11.0143 49.5545 10.6113 49.4192 10.4583C49.2833 10.3053 48.9631 9.92904 48.7061 9.62298C48.0919 8.88992 47.333 8.00183 47.1924 7.85014C47.1305 7.78399 46.8527 7.45455 46.5755 7.11909C46.2983 6.78297 45.9707 6.38603 45.8469 6.23635C45.7238 6.08733 45.5469 5.88285 45.4547 5.78261C45.3619 5.68171 45.0107 5.27675 44.673 4.88249C44.3359 4.48823 43.9478 4.04051 43.8112 3.88748C43.6746 3.73446 43.2515 3.23328 42.8707 2.77353C42.4892 2.31445 42.1327 1.92152 42.0782 1.90081C42.0237 1.88076 41.9786 1.82129 41.9786 1.76916C41.9786 1.61614 40.9184 0.579698 40.5073 0.330445C40.0115 0.0304054 38.7239 0.0123629 38.2227 0.298369ZM40.0855 10.7643C40.4643 11.2395 40.8181 11.6444 40.8719 11.6651C40.9258 11.6852 40.9695 11.748 40.9695 11.8041C40.9695 11.8602 41.0583 11.9979 41.1659 12.1102C41.6389 12.602 42.091 13.1606 42.091 13.2535C42.091 13.309 42.132 13.3538 42.1818 13.3538C42.2316 13.3538 42.5188 13.6879 42.8202 14.0955C43.9289 15.5957 44.1994 15.7708 44.7403 15.3424C44.8102 15.287 45.3403 14.9996 45.9176 14.7036C46.4955 14.4076 47.2456 14.002 47.584 13.8022C47.923 13.603 48.3011 13.3945 48.4249 13.3397C48.5487 13.2849 49.0539 13.0176 49.5471 12.7463C50.0409 12.475 50.4741 12.2498 50.5104 12.2465C50.5743 12.2405 50.6901 12.5766 51.0237 13.744C51.3567 14.9081 51.5458 15.5456 51.7342 16.1383C51.8411 16.4751 52.0039 17.0017 52.0954 17.3077C52.1876 17.6138 52.3531 18.1504 52.4634 18.5005L52.6639 19.136L53.5721 19.0772C54.072 19.0445 55.0084 18.9449 55.6543 18.856C56.2994 18.7665 57.4344 18.6456 58.1771 18.5861C58.9191 18.5273 59.6692 18.4484 59.8435 18.4117L60.1604 18.3442L60.0924 19.2737C60.0305 20.1184 59.9626 20.7986 59.5872 24.3243C59.4102 25.9788 59.3692 25.8539 60.1711 26.0911C60.5566 26.2047 61.1493 26.3864 61.4884 26.4934C62.2264 26.7272 62.926 26.9324 64.5723 27.3988C65.2504 27.5906 65.9433 27.7971 66.1115 27.8586L66.4176 27.9695L65.9534 28.8195C65.6984 29.2873 65.3237 29.9709 65.1219 30.3384C64.9194 30.7059 64.6234 31.2572 64.4626 31.5633C64.3025 31.87 64.0569 32.3211 63.9177 32.5657C63.7784 32.8109 63.4985 33.3107 63.2954 33.6769L62.926 34.3425L63.2442 34.6071C63.4198 34.7528 63.6701 34.9613 63.8013 35.0709C63.9325 35.1798 64.3846 35.538 64.8064 35.8668C65.2275 36.1949 65.7005 36.5824 65.8572 36.7268C66.014 36.8711 66.3564 37.1424 66.6181 37.3302C66.8805 37.518 67.0951 37.7124 67.0951 37.7639C67.0951 37.8147 67.1704 37.8561 67.2633 37.8561C67.3554 37.8561 67.4314 37.8962 67.4314 37.9456C67.4314 37.9951 67.7322 38.2577 68.0995 38.5304C68.9061 39.1278 68.896 39.0563 68.2428 39.5508C67.9495 39.7733 67.5835 40.0626 67.4301 40.1936C66.8031 40.7275 66.6685 40.8378 65.8612 41.4773C65.3991 41.8442 64.9698 42.199 64.9086 42.2658C64.8467 42.3333 64.4781 42.626 64.0892 42.9173C62.8608 43.8382 62.8843 43.7827 63.3566 44.6401C63.5793 45.0437 63.8934 45.6244 64.0549 45.9304C64.2157 46.2372 64.3758 46.5125 64.4101 46.5432C64.4444 46.574 64.5736 46.7992 64.6967 47.0444C65.1239 47.8931 66.1155 49.718 66.2683 49.9372C66.495 50.2606 66.4647 50.3121 66.0018 50.3956C65.7704 50.437 65.4044 50.5339 65.1885 50.6115C64.9732 50.6883 64.3926 50.86 63.8995 50.993C63.4057 51.126 62.8258 51.3017 62.6098 51.3833C62.3939 51.4648 61.8893 51.6178 61.4884 51.7234C61.0874 51.829 60.5694 51.9847 60.3373 52.0689C60.1045 52.1538 59.8146 52.2233 59.6921 52.2233C59.4304 52.2233 59.4224 52.3402 59.5791 53.817C59.8657 56.5127 60.0298 58.1465 60.0944 58.9504L60.1651 59.8305L59.5656 59.7543C59.236 59.7122 58.4105 59.632 57.7324 59.5766C57.0543 59.5204 56.1205 59.4249 55.6583 59.3641C55.1955 59.3032 54.3317 59.2211 53.7383 59.1816L52.6592 59.1095L52.5206 59.481C52.4439 59.6855 52.3417 60.0276 52.2932 60.2421C52.2441 60.4566 52.1519 60.7821 52.088 60.9658C52.0234 61.1496 51.79 61.9014 51.568 62.6364C51.3467 63.3715 51.0971 64.1988 51.0136 64.4741C50.9302 64.7501 50.8031 65.1911 50.7311 65.4544C50.5791 66.0097 50.5158 66.009 49.4912 65.439C49.1521 65.2499 48.698 65.0027 48.4821 64.8884C48.2661 64.7748 47.7367 64.4881 47.3048 64.2529C46.8729 64.017 46.1416 63.6321 45.6787 63.3976C45.2166 63.163 44.8116 62.9365 44.7799 62.8944C44.3783 62.3671 44.0944 62.5288 42.9803 63.9174C42.4643 64.5603 42.0129 65.1116 41.9766 65.1423C41.9409 65.1731 41.6113 65.5727 41.244 66.0298C40.8773 66.4868 40.5013 66.9392 40.4091 67.0355C40.3163 67.1317 40.064 67.4451 39.8487 67.7324C39.3145 68.4421 39.3475 68.4548 38.335 67.147C38.0262 66.7494 37.6986 66.3472 37.6057 66.2543C37.5136 66.1614 37.1604 65.7351 36.822 65.3074C36.4829 64.8797 36.1297 64.4454 36.0369 64.3418C35.944 64.2382 35.6157 63.8286 35.3076 63.431C34.9988 63.0334 34.6813 62.6805 34.6012 62.6465C34.4768 62.593 33.3963 63.0648 33.2329 63.2439C33.2026 63.2773 32.8992 63.4497 32.5601 63.6268C32.2211 63.8038 31.5651 64.1513 31.1029 64.3992C30.6401 64.6478 30.0602 64.9512 29.8133 65.0735C29.5664 65.1965 29.3397 65.3248 29.3087 65.3588C29.2778 65.3929 28.9885 65.5553 28.6662 65.7204L28.0803 66.0191L27.9518 65.5533C27.8805 65.2967 27.76 64.8864 27.6834 64.6411C27.5286 64.1487 27.3503 63.5446 26.8438 61.8011C26.6567 61.1583 26.4327 60.4065 26.3459 60.1305C26.2591 59.8552 26.1562 59.487 26.1179 59.3133C26.0708 59.1001 25.9954 59.0166 25.8885 59.0573C25.8003 59.0907 25.3361 59.1476 24.8558 59.183C24.3754 59.2191 23.3266 59.3186 22.5254 59.4055C19.8344 59.6962 18.5279 59.8171 18.4902 59.779C18.4694 59.7583 18.5259 59.0894 18.6154 58.2929C19.274 52.4585 19.2895 52.2233 19.0177 52.2233C18.9026 52.2233 18.5858 52.1538 18.3126 52.0696C18.0395 51.9847 17.5134 51.8263 17.1434 51.7167C16.7734 51.6078 16.1928 51.4314 15.8537 51.3251C15.5147 51.2196 14.9341 51.0451 14.5641 50.9376C14.194 50.8306 13.7016 50.6749 13.4688 50.5921C13.236 50.5092 12.9555 50.4411 12.8452 50.4411C12.4375 50.4411 12.2518 50.1945 12.4261 49.8844C12.5122 49.7314 12.7167 49.3552 12.8808 49.0491C13.0443 48.7431 13.2932 48.292 13.4338 48.0468C13.5738 47.8015 13.9169 47.1754 14.1961 46.6548C15.15 44.8746 15.2926 44.6174 15.3962 44.4937C15.7589 44.06 15.6653 43.7961 14.9381 43.202C14.5472 42.8833 14.1019 42.5151 13.9478 42.3841C13.7938 42.2525 13.3141 41.8729 12.8822 41.5401C12.4509 41.2067 12.0318 40.8692 11.9511 40.789C11.8704 40.7095 11.4923 40.4081 11.1102 40.1201C10.0116 39.2908 9.8252 39.0857 10.0311 38.9313C10.6917 38.4355 11.6692 37.677 11.7708 37.5815C11.8374 37.518 12.1105 37.2908 12.3776 37.0763C12.6447 36.8618 12.9178 36.6359 12.9851 36.5738C13.0517 36.5116 13.3336 36.2864 13.6114 36.0732C13.8886 35.8607 14.2169 35.5934 14.34 35.4805C14.4631 35.3669 14.778 35.121 15.039 34.9326C15.6674 34.4808 15.7003 34.3131 15.3027 33.6068C15.1184 33.2793 14.8399 32.7608 14.6831 32.4547C14.5271 32.148 14.1449 31.4464 13.8341 30.8951C13.524 30.3438 13.1923 29.7423 13.0981 29.5586C13.0033 29.3748 12.7806 28.9518 12.603 28.6177C12.2357 27.9274 12.2437 27.8766 12.7436 27.7784C12.9434 27.739 13.3336 27.6354 13.6114 27.5478C13.8886 27.4603 14.6455 27.2371 15.2933 27.052C15.9405 26.8676 16.7734 26.621 17.1434 26.5047C17.5134 26.3884 18.1323 26.2007 18.5192 26.0884L19.2228 25.8833L19.1603 25.1041C19.0843 24.1659 18.8172 21.5945 18.6046 19.7588C18.5192 19.0244 18.4579 18.4157 18.4694 18.4063C18.4983 18.3803 20.3719 18.5674 22.5254 18.8099C23.5735 18.9289 24.7959 19.0525 25.2419 19.0859L26.0526 19.1467L26.1212 18.84C26.1596 18.6709 26.2551 18.3321 26.3338 18.0876C26.4125 17.8423 26.5572 17.3659 26.6554 17.0291C26.9877 15.8871 27.5246 14.0801 27.6813 13.577C27.7668 13.301 27.869 12.9134 27.9087 12.7149C28.0096 12.2084 28.0957 12.193 28.7692 12.5632C29.0968 12.7437 29.7433 13.0805 30.2055 13.3123C30.6683 13.5442 31.1164 13.7861 31.2018 13.8503C31.3949 13.9953 33.0889 14.9121 33.8801 15.3003C34.5723 15.6398 34.6181 15.6238 35.2666 14.8018C35.5323 14.465 35.8142 14.149 35.8929 14.1002C35.9716 14.0514 36.0362 13.9385 36.0362 13.8496C36.0362 13.7607 36.0766 13.6879 36.125 13.6879C36.1741 13.6879 36.3975 13.45 36.6208 13.1593C36.8442 12.868 37.1577 12.4797 37.3178 12.2959C37.4779 12.1122 37.9744 11.5014 38.4204 10.9387C39.4006 9.7025 39.2513 9.71854 40.0855 10.7643ZM186.224 17.5029C186.01 17.7461 186.002 17.9693 185.973 25.0219L185.942 32.291L185.356 31.8553C184.736 31.3949 183.317 30.6866 182.752 30.5569C182.567 30.5142 182.188 30.4146 181.911 30.3351C180.71 29.9923 178.822 29.8085 177.073 29.8646C175.165 29.9261 174.181 30.0958 172.549 30.6451C170.896 31.2011 168.581 32.7815 167.764 33.9122C167.568 34.1828 167.367 34.4033 167.315 34.4033C167.264 34.4033 167.222 34.4788 167.222 34.5704C167.222 34.6626 167.185 34.7381 167.138 34.7381C167.06 34.7388 166.847 35.0562 166.464 35.7398C166.231 36.1554 165.467 37.9824 165.392 38.3018C165.356 38.4548 165.224 38.956 165.098 39.4151C164.225 42.61 164.316 49.1981 165.272 51.9486C165.358 52.1959 165.43 52.4712 165.432 52.5614C165.434 52.6509 165.534 52.9249 165.653 53.1701C165.772 53.4147 165.871 53.652 165.873 53.6967C165.886 53.964 167.004 56.0082 167.138 56.0095C167.185 56.0095 167.222 56.0676 167.222 56.1378C167.222 56.9805 171.461 60.2421 172.556 60.2421C172.652 60.2421 172.821 60.2896 172.93 60.3477C174.004 60.9191 178.285 61.1068 180.622 60.6858C182.892 60.2762 183.932 59.8773 185.178 58.9377L185.923 58.3757L185.967 59.0587C186.045 60.2615 185.996 60.2421 188.999 60.2421C191.404 60.2421 191.567 60.2288 191.778 60.0196C192.001 59.7984 192.002 59.6481 192.002 38.5243V17.2523H189.224C186.483 17.2523 186.443 17.2556 186.224 17.5029ZM227.655 17.5891C227.289 17.9526 227.368 54.4037 227.738 55.6326C228.828 59.2658 231.033 60.5762 236.058 60.5762C238.677 60.5762 238.469 60.8061 238.508 57.8639C238.547 54.9102 238.643 55.0813 236.905 55.0031C235.355 54.933 234.74 54.7699 234.228 54.2915C233.433 53.5497 233.488 54.9737 233.488 35.1811V17.3632H230.685C228.019 17.3632 227.871 17.3746 227.655 17.5891ZM111.756 18.9015C111.254 19.1046 110.487 19.7167 110.487 19.9152C110.487 19.982 110.443 20.0362 110.389 20.0362C110.264 20.0362 109.709 21.1788 109.198 22.4866C109.091 22.7619 108.961 23.088 108.91 23.2103C108.859 23.3333 108.709 23.7088 108.575 24.0456C108.442 24.3824 108.291 24.7586 108.239 24.8809C108.187 25.0039 108.035 25.3794 107.902 25.7162C107.769 26.053 107.483 26.7546 107.266 27.2759C107.049 27.7964 106.83 28.3223 106.779 28.4453C106.729 28.5676 106.578 28.9438 106.445 29.2806C106.312 29.6174 106.161 29.9929 106.109 30.1159C106.057 30.2382 105.907 30.6144 105.775 30.9512C105.644 31.288 105.472 31.7136 105.393 31.8974C105.264 32.1968 104.895 33.0789 104.648 33.6796C104.598 33.8019 104.447 34.1781 104.313 34.5149C104.179 34.8517 103.999 35.2854 103.915 35.4785C103.829 35.6716 103.76 35.8801 103.76 35.9429C103.76 36.0051 103.685 36.1982 103.594 36.3713C103.43 36.684 103.339 36.8978 102.87 38.0786C102.736 38.4154 102.581 38.7916 102.527 38.9139C102.392 39.2146 101.658 41.0075 101.387 41.6985C101.267 42.0045 101.127 42.3554 101.076 42.4783C101.025 42.6006 100.897 42.926 100.792 43.202C100.686 43.4773 100.534 43.8536 100.455 44.0373C100.181 44.6668 99.5196 46.2646 99.2794 46.8773C99.1469 47.2141 98.9969 47.5903 98.9457 47.7126C98.8946 47.8349 98.7648 48.161 98.6571 48.4363C98.5495 48.7123 98.3961 49.0879 98.3167 49.2716C98.086 49.8029 97.4119 51.4428 97.1488 52.1117C97.0163 52.4485 96.8663 52.8247 96.8151 52.947C96.7647 53.0699 96.6348 53.3953 96.5272 53.6713C96.4196 53.9466 96.2668 54.3229 96.1875 54.5066C96.1087 54.6904 95.9574 55.0659 95.8518 55.3419C95.7461 55.6172 95.5706 56.0436 95.4616 56.2882C95.3526 56.5334 95.101 57.1348 94.9025 57.6246C94.7047 58.1151 94.4652 58.7018 94.371 58.9284C94.2769 59.1556 94.1934 59.5318 94.186 59.7637L94.1733 60.1867L96.9201 60.2181C98.4311 60.2348 99.7719 60.2234 99.9004 60.1927C100.173 60.1265 100.374 59.7416 101.241 57.6246C101.467 57.0733 101.695 56.522 101.747 56.3998C101.799 56.2775 101.95 55.9012 102.083 55.5645C102.217 55.2277 102.368 54.8514 102.42 54.7292C102.474 54.6069 102.647 54.1805 102.807 53.7823C102.966 53.384 103.142 52.9583 103.197 52.836C103.638 51.8544 104.096 50.7104 104.096 50.5881C104.096 50.4658 105.607 50.4451 112.737 50.4685L121.377 50.4972L121.529 50.7752C121.611 50.9289 121.865 51.5049 122.092 52.0562C122.32 52.6075 122.571 53.2089 122.649 53.3927C122.728 53.5764 122.881 53.952 122.988 54.228C123.305 55.0392 123.35 55.1501 123.58 55.676C123.702 55.9514 123.913 56.4525 124.051 56.7893C124.189 57.1261 124.366 57.5525 124.444 57.7362C124.522 57.92 124.753 58.4713 124.957 58.9611C125.54 60.3658 125.207 60.2501 128.586 60.2161C132.107 60.1806 131.976 60.3384 130.727 57.6246C130.642 57.4409 130.393 56.8341 130.173 56.2761C129.953 55.7175 129.67 55.0158 129.542 54.7165C129.245 54.0202 129.17 53.8364 128.931 53.2256C128.823 52.9496 128.671 52.5741 128.592 52.3903C128.512 52.2065 128.362 51.8303 128.256 51.555C128.15 51.279 128.022 50.9536 127.97 50.8313C127.919 50.7084 127.743 50.2827 127.581 49.8844C127.418 49.4861 127.221 49.0104 127.142 48.8266C127.064 48.6428 126.911 48.2666 126.802 47.9913C126.694 47.7153 126.541 47.3398 126.461 47.156C126.382 46.9722 126.231 46.596 126.126 46.3207C126.02 46.0447 125.892 45.7193 125.841 45.5963C125.79 45.474 125.565 44.9227 125.34 44.3714C124.827 43.1131 124.512 42.35 124.33 41.921C124.251 41.7372 124.101 41.3617 123.994 41.0857C123.889 40.8104 123.733 40.4221 123.648 40.223C123.563 40.0239 123.424 39.6978 123.34 39.4986C123.255 39.2995 123.098 38.9113 122.991 38.6359C122.765 38.0512 122.426 37.2286 122.12 36.5196C121.878 35.9576 121.809 35.7879 121.535 35.0715C121.429 34.7962 121.278 34.42 121.199 34.2363C121.12 34.0525 120.979 33.7017 120.886 33.4571C120.711 32.9973 119.999 31.2633 119.742 30.6725C119.663 30.4888 119.511 30.1132 119.405 29.8372C119.299 29.5612 119.148 29.1857 119.068 29.0019C118.99 28.8182 118.836 28.4419 118.727 28.1666C118.619 27.8906 118.467 27.5151 118.39 27.3313C118.314 27.1476 118.114 26.6497 117.946 26.2254C117.777 25.8011 117.6 25.3747 117.551 25.2785C117.502 25.1823 117.375 24.8782 117.268 24.6029C117.162 24.3269 117.01 23.9514 116.93 23.7676C116.852 23.5838 116.7 23.2076 116.595 22.9323C116.489 22.6563 116.361 22.3309 116.309 22.2079C116.258 22.0857 116.082 21.6607 115.918 21.2637C115.049 19.1561 113.419 18.2306 111.756 18.9015ZM113.105 30.0324C113.219 30.323 113.38 30.7113 113.462 30.8951C113.546 31.0788 113.847 31.8059 114.133 32.5102C114.42 33.2145 114.855 34.267 115.101 34.849C115.668 36.1909 115.657 36.1621 116.145 37.3549C116.724 38.7716 117.406 40.4101 117.732 41.1692C118.1 42.0266 118.207 42.2832 118.39 42.7563C118.496 43.0323 118.634 43.3544 118.698 43.4727C118.76 43.5909 118.851 43.8168 118.899 43.9738C118.947 44.1315 119.021 44.3481 119.065 44.455C119.14 44.6394 118.801 44.6501 112.854 44.6501C106.098 44.6501 106.362 44.6728 106.671 44.1195C106.73 44.0133 106.963 43.4747 107.188 42.9234C107.414 42.3721 107.839 41.345 108.135 40.6407C108.43 39.9357 108.856 38.9086 109.081 38.3573C109.307 37.806 109.532 37.2547 109.583 37.1324C109.634 37.0094 109.764 36.684 109.872 36.408C109.98 36.1327 110.171 35.6817 110.297 35.4057C110.423 35.1304 110.565 34.8043 110.613 34.682C110.75 34.3265 111.505 32.4895 111.676 32.0925C112.014 31.31 112.148 30.9873 112.337 30.5055C112.8 29.3193 112.821 29.3066 113.105 30.0324ZM251.933 29.7925C250.488 29.9027 247.986 30.5142 246.663 31.0808C245.693 31.4958 244.572 32.0524 244.476 32.1654C244.445 32.2021 244.287 32.3004 244.125 32.3832C243.662 32.6198 243.047 33.2078 242.962 33.4958C242.886 33.7524 243.182 34.7361 243.337 34.7388C243.378 34.7394 243.512 34.9526 243.634 35.2125C243.757 35.4718 243.888 35.7097 243.926 35.7398C243.964 35.7705 244.207 36.1808 244.466 36.6513C245.141 37.8775 245.418 37.9156 246.865 36.9834C247.626 36.4942 247.89 36.3552 248.849 35.9436C250.324 35.3094 251.659 35.0789 253.839 35.0802C254.826 35.0809 255.835 35.1243 256.081 35.1765C256.328 35.2293 256.794 35.3255 257.116 35.391C259.59 35.8948 261.175 37.9644 261.05 40.5291L261.015 41.2528L255.745 41.3183C249.303 41.3984 248.432 41.5314 245.728 42.8552C240.169 45.5749 239.332 54.4184 244.238 58.5896C244.585 58.8849 244.904 59.1268 244.947 59.1275C244.99 59.1282 245.25 59.2785 245.525 59.4623C245.798 59.6461 246.061 59.7964 246.106 59.7964C246.152 59.7964 246.397 59.8906 246.651 60.0049C249.319 61.2124 254.475 61.2505 257.315 60.0838C258.398 59.6387 259.95 58.7393 259.95 58.5562C259.95 58.5034 260.004 58.4599 260.07 58.4599C260.137 58.4599 260.371 58.2595 260.593 58.0149C261.031 57.5297 261.183 57.4643 261.183 57.761C261.183 59.9408 262.439 60.5816 266.705 60.5783L269.144 60.5762V58.3069C269.144 55.7028 269.184 55.807 268.136 55.6841C266.925 55.5424 267.024 56.2915 266.976 46.8219C266.931 37.9403 266.884 37.3282 266.086 35.2947C264.433 31.0842 259.606 29.2071 251.933 29.7925ZM208.26 29.89C208.167 29.9127 207.688 29.9876 207.195 30.0571C205.336 30.319 202.894 31.1677 202.197 31.7945C202.099 31.882 201.982 31.9535 201.936 31.9535C201.815 31.9535 200.515 32.9579 200.207 33.2887C200.064 33.4424 199.733 33.7939 199.471 34.0692C198.795 34.7815 198.256 35.6369 197.434 37.2995C195.594 41.0175 195.417 48.7731 197.08 52.836C197.65 54.2286 198.644 56.0102 198.851 56.0102C198.908 56.0102 198.954 56.0663 198.954 56.1358C198.954 56.2995 200.793 58.1258 200.958 58.1258C201.027 58.1258 201.084 58.1699 201.084 58.2234C201.084 58.5441 203.947 59.9287 205.569 60.3938C208.097 61.1175 212.087 61.1135 214.764 60.3851C216.257 59.9782 218.125 59.2431 218.444 58.9371C218.525 58.8582 218.637 58.7941 218.693 58.7941C218.986 58.7941 220.683 57.4937 221.687 56.4987C223.244 54.9564 223.251 54.8414 221.856 53.5978C221.318 53.1174 220.745 52.5995 220.584 52.4458C219.333 51.255 219.133 51.257 217.902 52.4718C215.077 55.2611 210.525 56.1391 206.638 54.6463C206.147 54.4572 205.693 54.2621 205.629 54.2113C205.565 54.1611 205.355 53.9941 205.161 53.8397C204.966 53.686 204.777 53.5597 204.74 53.5597C204.453 53.5597 203.194 51.9098 202.822 51.0478C202.514 50.3301 202.085 48.8413 202.144 48.6889C202.187 48.5767 204.267 48.5479 212.369 48.5479C219.936 48.5479 222.634 48.5139 222.908 48.4156C223.409 48.2359 223.431 48.0742 223.346 45.2268C223.252 42.1302 223.048 40.6687 222.417 38.5798C222.138 37.6563 221.521 36.3131 221.077 35.6636C220.935 35.4551 220.818 35.2366 220.818 35.1785C220.818 35.1197 220.771 35.0715 220.713 35.0715C220.656 35.0715 220.578 34.974 220.54 34.8544C220.176 33.7164 216.786 31.3114 214.502 30.571C212.948 30.0671 209.216 29.6601 208.26 29.89ZM147.432 30.0878C145.067 30.4059 142.67 31.6188 141.274 33.2038L140.761 33.7872V32.3719V30.9565L140.418 30.7808C139.868 30.4981 135.387 30.585 135.054 30.8844L134.818 31.0969V45.4854C134.818 59.2832 134.827 59.8813 135.023 60.0577C135.324 60.3277 140.314 60.3363 140.585 60.067C140.742 59.9113 140.761 58.9611 140.761 51.2884C140.761 41.1499 140.763 41.1325 141.751 39.081C143.916 34.5871 151.603 34.3405 153.761 38.6961C154.735 40.66 154.769 41.0804 154.773 51.2242C154.776 58.754 154.797 59.7757 154.951 59.9949C155.123 60.2388 155.162 60.2421 157.782 60.2388L160.439 60.2354L160.639 59.9615C160.901 59.604 160.878 40.6346 160.614 39.248C160.25 37.3362 159.618 35.6977 158.738 34.3879C158.239 33.6442 156.991 32.2877 156.806 32.2877C156.752 32.2877 156.678 32.2122 156.642 32.1206C156.606 32.0284 156.5 31.9535 156.406 31.9535C156.312 31.9535 156.234 31.9068 156.234 31.8493C156.234 31.7925 156.134 31.7136 156.01 31.6749C155.888 31.6361 155.722 31.5452 155.644 31.4724C155.385 31.2338 154.495 30.8429 153.207 30.4032C152.047 30.007 149.191 29.8513 147.432 30.0878ZM180.677 35.3255C181.078 35.4705 181.557 35.669 181.742 35.7665C181.927 35.8648 182.239 36.0278 182.435 36.1294C183.599 36.7341 185.119 38.7128 185.75 40.4462C186.134 41.5 186.142 49.0745 185.761 50.2252C183.634 56.6457 175.32 57.7964 171.735 52.1651C171.658 52.0442 171.544 51.8196 171.48 51.6666C171.418 51.5136 171.322 51.2877 171.267 51.1654C170.682 49.853 170.475 48.3495 170.479 45.4293C170.484 41.2173 171.108 39.1639 172.997 37.1484C174.784 35.2413 178.202 34.43 180.677 35.3255ZM211.343 35.3475C214.944 35.9189 217.071 38.2604 217.45 42.0714C217.627 43.8449 218.587 43.6537 209.676 43.6203L202.037 43.5916L202.074 42.7008C202.128 41.3777 202.818 39.1558 203.404 38.4141C205.416 35.8708 208.103 34.833 211.343 35.3475ZM260.893 46.165C261.163 46.2679 261.156 50.5827 260.885 51.388C260.46 52.6516 259.561 53.8765 258.661 54.4184C257.934 54.8561 256.952 55.2383 255.895 55.4943C254.28 55.8865 250.235 55.636 249.696 55.1114C249.638 55.0539 249.522 55.0078 249.439 55.0078C249.123 55.0078 247.794 53.9172 247.606 53.5043C247.55 53.3813 247.46 53.2062 247.406 53.114C247.044 52.5032 246.943 52.0448 246.943 51.0177C246.943 47.9151 248.82 46.4403 253.054 46.2138C254.941 46.1129 260.663 46.0775 260.893 46.165Z" fill="#345CDC"/>
</g>
<defs>
<clipPath id="clip0">
<rect width="269.1" height="78" fill="white" transform="translate(0.0404053 0.100098)"/>
</clipPath>
</defs>
</svg>
