<svg width="302" height="78" viewBox="0 0 302 78" fill="none" xmlns="http://www.w3.org/2000/svg">
<g clip-path="url(#clip0)">
<path fill-rule="evenodd" clip-rule="evenodd" d="M84.8083 67.0194L92.1744 0.219971H104.478L101.362 28.0197C103.223 25.5208 105.254 23.5649 107.453 22.1518C109.652 20.7388 111.979 20.0323 114.434 20.0323C116.161 20.0323 117.74 20.3669 119.17 21.0363C120.6 21.7057 121.834 22.7543 122.873 24.1822C123.912 25.6101 124.721 27.4322 125.301 29.6484C125.881 31.8647 126.171 34.5048 126.171 37.5689C126.171 41.6147 125.612 45.4596 124.491 49.1038C123.372 52.7479 121.868 55.9531 119.979 58.72C118.09 61.4863 115.912 63.6806 113.443 65.3018C110.974 66.923 108.391 67.7338 105.692 67.7338C103.615 67.7338 101.787 67.2946 100.208 66.4171C98.6297 65.5396 97.2876 64.3869 96.1811 62.9591L96.0598 63.4054C95.407 65.5639 93.5785 67.0194 91.5188 67.0194H84.8083V67.0194ZM109.416 30.5185C108.525 30.5185 107.601 30.8904 106.643 31.6341C105.686 32.3778 104.761 33.3967 103.871 34.6907C102.981 35.9848 102.151 37.502 101.382 39.2422C100.613 40.9825 99.9724 42.8343 99.4594 44.7977L98.2451 55.5962C99.028 56.3101 99.9049 56.816 100.876 57.1134C101.848 57.4108 102.778 57.5597 103.668 57.5597C105.126 57.5597 106.468 57.024 107.696 55.9531C108.923 54.8823 109.982 53.4767 110.873 51.7365C111.763 49.9962 112.458 48.0105 112.957 45.7794C113.456 43.5483 113.706 41.2726 113.706 38.9522C113.706 36.0071 113.315 33.8652 112.532 32.5265C111.749 31.1879 110.711 30.5185 109.416 30.5185ZM163.892 67.0194H159.179C155.805 67.0194 153.069 63.9963 153.069 60.267C153.069 59.9582 153.088 59.65 153.126 59.3445C151.399 61.9624 149.483 64.0153 147.379 65.5027C145.274 66.9901 142.954 67.7338 140.418 67.7338C138.906 67.7338 137.449 67.3991 136.046 66.7296C134.643 66.0601 133.403 65.0488 132.323 63.6952C131.244 62.3416 130.38 60.6164 129.733 58.519C129.085 56.4217 128.761 53.9453 128.761 51.0895C128.761 46.895 129.456 42.9161 130.846 39.153C132.236 35.3898 134.178 32.0952 136.674 29.2691C139.17 26.443 142.131 24.1971 145.558 22.5312C148.984 20.8652 152.748 20.0323 156.849 20.0323C158.846 20.0323 160.87 20.181 162.92 20.4785C164.971 20.776 166.994 21.3115 168.991 22.0849L163.892 67.0194V67.0194ZM145.436 56.8014C146.353 56.8014 147.244 56.4217 148.107 55.6633C148.971 54.9045 149.787 53.8709 150.556 52.562C151.325 51.253 152.033 49.721 152.68 47.9659C153.328 46.2107 153.882 44.3366 154.34 42.3435L155.797 29.5369H155.069C153.018 29.5369 151.15 30.0426 149.463 31.054C147.777 32.0655 146.327 33.4413 145.113 35.1816C143.898 36.9219 142.96 38.9448 142.299 41.2502C141.638 43.5557 141.308 46.0173 141.308 48.6352C141.308 50.1226 141.416 51.3869 141.632 52.4281C141.847 53.4693 142.138 54.3097 142.502 54.9494C142.866 55.5891 143.298 56.0577 143.797 56.3551C144.296 56.6524 144.843 56.8014 145.436 56.8014V56.8014ZM171.824 67.0194L176.924 20.7463H179.664C184.026 20.7463 187.563 24.6541 187.563 29.4746C187.563 29.7487 187.551 30.0226 187.527 30.2954C189.146 27.1421 190.9 24.7177 192.789 23.022C194.678 21.3263 196.634 20.4785 198.657 20.4785C199.791 20.4785 200.91 20.7611 202.017 21.3263L199.75 34.133C198.374 33.4785 197.066 33.1512 195.824 33.1512C193.746 33.1512 191.906 34.185 190.3 36.2525C188.695 38.32 187.393 41.6444 186.394 46.2256L184.128 67.0194H171.824V67.0194ZM206.226 57.024V56.2657C206.226 55.9683 206.246 55.5442 206.286 54.9938C206.327 54.4435 206.394 53.7148 206.489 52.8074C206.583 51.9001 206.712 50.7028 206.873 49.2153L209.018 30.2954H205.659C205.146 30.2954 204.715 30.1095 204.364 29.7377C204.013 29.3658 203.838 28.8081 203.838 28.0643C203.838 28.0346 203.865 27.7743 203.919 27.2834C203.973 26.7926 204.027 26.272 204.081 25.7216C204.135 25.1713 204.188 24.6581 204.243 24.1822C204.297 23.7062 204.323 23.4385 204.323 23.379L204.621 20.8355L210.799 20.7463L211.903 12.6031C212.316 9.56367 214.678 7.31494 217.459 7.31494H223.872L222.334 20.8355H231.724L231.641 21.5743C231.087 26.554 227.26 30.2954 222.72 30.2954H221.282L219.258 48.4567C219.123 49.6764 219.022 50.6358 218.954 51.3349C218.887 52.034 218.833 52.5695 218.793 52.9413C218.765 53.1941 218.738 53.4469 218.712 53.6999C218.698 53.8338 218.692 53.9156 218.692 53.9453C218.692 54.8081 218.873 55.5296 219.238 56.1097C219.602 56.6898 220.175 56.9796 220.958 56.9796C221.389 56.9796 221.747 56.9276 222.03 56.8236C222.219 56.7543 222.887 56.4639 224.034 55.9531L228.162 63.7174C226.489 65.0564 224.695 66.0601 222.779 66.7296C220.863 67.3991 218.934 67.7338 216.991 67.7338C215.372 67.7338 213.916 67.4879 212.62 66.9972C211.325 66.5064 210.212 65.7925 209.282 64.8554C208.351 63.9183 207.622 62.7955 207.096 61.4863C206.57 60.1776 206.28 58.6902 206.226 57.024V57.024ZM268.796 32.125C268.796 34.2371 268.418 36.1707 267.663 37.9259C266.908 39.681 265.592 41.2354 263.717 42.5889C261.842 43.9424 259.319 45.0952 256.148 46.0471C252.978 46.9991 248.992 47.7428 244.189 48.2783C244.243 51.4316 244.87 53.737 246.071 55.1948C247.272 56.6524 249.046 57.381 251.393 57.381C252.499 57.381 253.457 57.277 254.267 57.069C255.076 56.8604 255.784 56.5928 256.391 56.2657C260.03 54.3048 264.38 54.9706 267.398 57.9513L267.906 58.4524C266.422 60.0584 264.971 61.4494 263.555 62.6243C262.138 63.7992 260.681 64.7661 259.184 65.5249C257.686 66.2833 256.095 66.8412 254.408 67.1981C252.722 67.5551 250.88 67.7338 248.884 67.7338C246.401 67.7338 244.121 67.2653 242.044 66.3282C239.966 65.3911 238.179 64.0673 236.681 62.3567C235.184 60.6461 234.024 58.5862 233.201 56.1763C232.377 53.7668 231.966 51.0895 231.966 48.1444C231.966 45.6753 232.216 43.2657 232.715 40.9156C233.214 38.5654 233.929 36.3567 234.86 34.2891C235.791 32.2216 236.931 30.3178 238.28 28.5775C239.629 26.8372 241.147 25.3424 242.833 24.093C244.52 22.8435 246.368 21.8693 248.378 21.1702C250.388 20.4711 252.526 20.1216 254.793 20.1216C257.032 20.1216 259.022 20.4785 260.762 21.1925C262.503 21.9065 263.967 22.8361 265.154 23.9814C266.341 25.1267 267.245 26.4133 267.865 27.8412C268.486 29.2691 268.796 30.6971 268.796 32.125V32.125ZM254.064 29.4476C251.987 29.4476 250.165 30.3624 248.6 32.1919C247.036 34.0214 245.862 36.5277 245.079 39.7108C247.697 39.2646 249.814 38.796 251.433 38.3052C253.052 37.8143 254.307 37.2789 255.198 36.6987C256.088 36.1187 256.688 35.494 256.998 34.8246C257.309 34.1553 257.464 33.4339 257.464 32.6604C257.464 31.8869 257.194 31.1581 256.654 30.474C256.115 29.7897 255.251 29.4476 254.064 29.4476V29.4476ZM270.901 67.0194L276 20.7463H277.963C282.735 20.7463 286.604 25.0216 286.604 30.2954C288.223 27.1421 289.977 24.7177 291.865 23.022C293.754 21.3263 295.71 20.4785 297.734 20.4785C298.867 20.4785 299.987 20.7611 301.093 21.3263L298.826 34.133C297.451 33.4785 296.142 33.1512 294.901 33.1512C292.823 33.1512 290.982 34.185 289.376 36.2525C287.771 38.32 286.469 41.6444 285.471 46.2256L283.204 67.0194H270.901V67.0194Z" fill="black"/>
<path d="M52.9582 33.2378C62.772 25.021 82.9601 -4.34662 51.416 0.826951C37.6767 2.95722 20.6448 15.4071 16.5791 30.9279C14.4579 26.7776 12.1174 22.7639 9.5692 18.9069C5.7839 13.5811 -1.71865 18.7823 2.48723 24.2602C14.404 39.9331 22.6756 58.8012 22.6756 77.8218C23.657 68.3876 25.2713 55.7305 21.6262 44.4704C22.96 45.4669 23.0566 45.5417 23.9851 46.7569C30.4342 57.4086 40.3404 66.2573 51.416 70.518C61.5104 74.6265 74.969 72.1918 69.5016 55.7581C66.5573 46.7804 59.6874 38.8679 52.9582 33.2378V33.2378Z" fill="#F5A623"/>
</g>
<defs>
<clipPath id="clip0">
<rect width="300.3" height="78" fill="white" transform="translate(0.900024)"/>
</clipPath>
</defs>
</svg>
