<svg width="44" height="44" viewBox="0 0 44 44" fill="none" xmlns="http://www.w3.org/2000/svg">
<path d="M0.166668 43.8333C0.166668 39.4131 1.92262 35.1738 5.04822 32.0482C8.17383 28.9226 12.4131 27.1667 16.8333 27.1667C21.2536 27.1667 25.4928 28.9226 28.6184 32.0482C31.7441 35.1738 33.5 39.4131 33.5 43.8333H29.3333C29.3333 40.5181 28.0164 37.3387 25.6722 34.9945C23.328 32.6503 20.1485 31.3333 16.8333 31.3333C13.5181 31.3333 10.3387 32.6503 7.9945 34.9945C5.6503 37.3387 4.33333 40.5181 4.33333 43.8333H0.166668ZM16.8333 25.0833C9.92708 25.0833 4.33333 19.4896 4.33333 12.5833C4.33333 5.67709 9.92708 0.0833435 16.8333 0.0833435C23.7396 0.0833435 29.3333 5.67709 29.3333 12.5833C29.3333 19.4896 23.7396 25.0833 16.8333 25.0833ZM16.8333 20.9167C21.4375 20.9167 25.1667 17.1875 25.1667 12.5833C25.1667 7.97918 21.4375 4.25001 16.8333 4.25001C12.2292 4.25001 8.5 7.97918 8.5 12.5833C8.5 17.1875 12.2292 20.9167 16.8333 20.9167ZM34.0917 28.6313C37.0194 29.9499 39.5041 32.0859 41.2471 34.7827C42.99 37.4796 43.917 40.6223 43.9167 43.8333H39.75C39.7505 41.425 39.0553 39.0677 37.7481 37.045C36.4409 35.0222 34.5772 33.4201 32.3812 32.4313L34.0896 28.6313H34.0917ZM32.6583 5.11043C34.7573 5.97563 36.552 7.44488 37.8146 9.33174C39.0772 11.2186 39.7508 13.438 39.75 15.7083C39.7509 18.5674 38.6827 21.3234 36.7553 23.4351C34.8279 25.5467 32.1806 26.8614 29.3333 27.1208V22.9271C30.877 22.706 32.3091 21.9959 33.4194 20.901C34.5297 19.806 35.2598 18.384 35.5024 16.8436C35.745 15.3032 35.4875 13.7256 34.7675 12.3424C34.0475 10.9592 32.903 9.84323 31.5021 9.15834L32.6583 5.11043Z" fill="#1E326C"/>
</svg>
