<svg width="50" height="50" viewBox="0 0 50 50" fill="none" xmlns="http://www.w3.org/2000/svg">
<path d="M4.16667 45.8333C4.16667 41.4131 5.92262 37.1738 9.04822 34.0482C12.1738 30.9226 16.4131 29.1667 20.8333 29.1667C25.2536 29.1667 29.4928 30.9226 32.6184 34.0482C35.7441 37.1738 37.5 41.4131 37.5 45.8333H33.3333C33.3333 42.5181 32.0164 39.3387 29.6722 36.9945C27.328 34.6503 24.1485 33.3333 20.8333 33.3333C17.5181 33.3333 14.3387 34.6503 11.9945 36.9945C9.6503 39.3387 8.33333 42.5181 8.33333 45.8333H4.16667ZM20.8333 27.0833C13.9271 27.0833 8.33333 21.4896 8.33333 14.5833C8.33333 7.67709 13.9271 2.08334 20.8333 2.08334C27.7396 2.08334 33.3333 7.67709 33.3333 14.5833C33.3333 21.4896 27.7396 27.0833 20.8333 27.0833ZM20.8333 22.9167C25.4375 22.9167 29.1667 19.1875 29.1667 14.5833C29.1667 9.97918 25.4375 6.25001 20.8333 6.25001C16.2292 6.25001 12.5 9.97918 12.5 14.5833C12.5 19.1875 16.2292 22.9167 20.8333 22.9167ZM38.0917 30.6313C41.0194 31.9499 43.5041 34.0859 45.2471 36.7827C46.99 39.4796 47.917 42.6223 47.9167 45.8333H43.75C43.7505 43.425 43.0553 41.0677 41.7481 39.045C40.4409 37.0222 38.5772 35.4201 36.3812 34.4313L38.0896 30.6313H38.0917ZM36.6583 7.11043C38.7573 7.97563 40.552 9.44488 41.8146 11.3317C43.0772 13.2186 43.7508 15.438 43.75 17.7083C43.7509 20.5674 42.6827 23.3234 40.7553 25.4351C38.8279 27.5467 36.1806 28.8614 33.3333 29.1208V24.9271C34.877 24.706 36.3091 23.9959 37.4194 22.901C38.5297 21.806 39.2598 20.384 39.5024 18.8436C39.745 17.3032 39.4875 15.7256 38.7675 14.3424C38.0475 12.9592 36.903 11.8432 35.5021 11.1583L36.6583 7.11043V7.11043Z" fill="#1E326C"/>
</svg>
