<svg width="422" height="78" viewBox="0 0 422 78" fill="none" xmlns="http://www.w3.org/2000/svg">
<g clip-path="url(#clip0)">
<path d="M39.1679 0H17.3845L17.3427 0.0759841L14.3364 5.5701H39.1679C57.5615 5.5701 72.4821 20.5343 72.4821 38.9938C72.4821 57.4533 57.5662 72.4175 39.1679 72.4175C20.7695 72.4175 5.8521 57.4517 5.8521 38.9938C5.85059 35.502 6.39564 32.0317 7.46734 28.7096H13.8278C9.31896 39.8878 12.6175 52.7093 21.9555 60.3021C31.2935 67.8949 44.4796 68.4772 54.4465 61.7369C64.4133 54.9966 68.822 42.5154 65.3095 30.983C61.797 19.4505 51.1877 11.5731 39.1679 11.5728H11.0533L8.00679 17.1414H39.1679C48.9567 17.1434 57.5414 23.6972 60.1529 33.1618C62.7643 42.6264 58.7607 52.676 50.3663 57.7276C41.9719 62.7793 31.2494 61.5915 24.1558 54.8242C17.0621 48.0569 15.3405 37.373 19.9472 28.708H27.1532C22.3434 34.3727 22.1107 42.632 26.594 48.5602C31.0773 54.4884 39.0684 56.488 45.8015 53.3664C52.5347 50.2449 56.1955 42.8433 54.6007 35.5761C53.0058 28.3088 46.5852 23.134 39.1679 23.1379H4.72375L1.67565 28.7096C0.763254 32.061 0.300619 35.5196 0.299988 38.9938C0.299988 60.5283 17.7013 77.9876 39.1679 77.9876C60.6344 77.9876 78.0357 60.5283 78.0357 38.9938C78.0357 17.4593 60.6328 0 39.1679 0ZM39.1679 28.7096C44.8293 28.7096 49.4189 33.314 49.4189 38.9938C49.4189 44.6736 44.8293 49.278 39.1679 49.278C33.5064 49.278 28.9169 44.6736 28.9169 38.9938C28.9169 33.314 33.5064 28.7096 39.1679 28.7096ZM95.1202 39.8172C95.1202 28.9841 102.365 21.3732 113.23 21.3732C119.927 21.3732 125.394 24.3196 128.264 29.2585L121.978 33.7152C119.995 30.5596 116.989 29.0523 113.435 29.0523C107.561 29.0523 103.663 33.2392 103.663 39.8172C103.663 46.3301 107.558 50.5806 113.435 50.5806C116.99 50.5806 119.995 49.0035 121.978 45.8494L128.264 50.3061C125.394 55.3118 119.927 58.1914 113.23 58.1914C102.365 58.1914 95.1202 50.5806 95.1202 39.8172ZM129.445 39.8172C129.445 29.6695 136.622 21.3732 147.762 21.3732C158.97 21.3732 166.077 29.6695 166.077 39.8172C166.077 49.8967 158.966 58.1914 147.762 58.1914C136.63 58.1914 129.445 49.8952 129.445 39.8172ZM157.534 39.8172C157.534 33.4408 153.774 28.9841 147.762 28.9841C141.749 28.9841 137.988 33.4408 137.988 39.8172C137.988 46.1239 141.747 50.5806 147.762 50.5806C153.776 50.5806 157.534 46.1239 157.534 39.8172ZM220.803 22.33L210.138 57.2284H201.133L193.594 32.6142L185.99 57.2284H176.972L166.369 22.33H174.641L181.846 47.4916L189.583 22.33H197.589L205.328 47.4916L212.464 22.33H220.803ZM337.957 22.33L327.283 57.2284H318.277L310.739 32.6142L303.134 57.2284H294.135L283.529 22.3378H291.801L299.006 47.4994L306.736 22.33H314.741L322.48 47.4916L329.618 22.33H337.957ZM245.755 22.1967V30.0122C244.49 29.8018 243.211 29.6873 241.928 29.6695C235.846 29.6695 232.634 32.7553 232.634 40.0219V57.2346H224.301V22.33H232.493V28.1606C234.203 24.1164 237.96 21.7159 242.744 21.7159C243.768 21.6959 244.788 21.8587 245.755 22.1967ZM280.346 22.33V53.7316C280.346 65.4564 273.854 71.8996 262.371 71.8996C256.427 71.8996 250.96 70.1178 247.678 67.0319L251.437 60.9299C254.374 63.256 258.203 64.4268 261.894 64.4268C268.318 64.4268 272.145 60.7935 272.145 53.727V50.7171C270.163 54.5566 265.926 56.8873 260.799 56.8873C253.419 56.8873 248.772 52.2259 248.772 43.7234V22.33H257.11V41.599C257.11 46.9473 259.297 49.278 263.67 49.278C268.727 49.278 272.077 46.1937 272.077 41.1182V22.33H280.346ZM340.15 11.2953C340.15 8.27761 342.27 6.08338 345.481 6.08338C348.624 6.08338 350.737 8.27761 350.737 11.2953C350.737 14.3129 348.618 16.5056 345.481 16.5056C342.27 16.5056 340.15 14.3114 340.15 11.2953ZM341.313 22.3331H349.65V57.2315H341.313V22.3331ZM353.845 51.5405L358.356 46.2604C361.088 49.278 365.327 51.0598 369.769 51.0598C373.732 51.0598 375.919 49.5525 375.919 47.3582C375.919 45.5067 374.551 44.3421 371.067 43.5187L365.395 42.2161C358.15 40.5026 355.076 37.1423 355.076 32.3429C355.076 25.8982 360.405 21.3732 369.427 21.3732C375.578 21.3732 380.703 23.4977 383.709 26.9278L379.267 32.3429C376.261 29.7377 372.843 28.5033 369.22 28.5033C365.325 28.5033 363.411 29.9439 363.411 32.0699C363.411 33.7152 364.572 34.7433 368.263 35.5652L374.278 37.0058C381.589 38.6511 384.255 42.0099 384.255 46.8093C384.255 53.7347 378.924 58.1914 369.699 58.1914C362.798 58.1914 356.989 55.5862 353.845 51.5405ZM421.282 42.2844H395.378C396.267 47.9072 399.956 50.9233 405.629 50.9233C409.524 50.9233 412.804 49.4843 415.333 46.5348L420.322 51.4722C417.042 55.7227 411.779 58.1914 405.355 58.1914C394.284 58.1914 386.903 50.9233 386.903 39.9537C386.903 29.1205 394.013 21.3732 404.536 21.3732C414.649 21.3732 421.483 28.4351 421.483 39.062C421.482 40.1393 421.415 41.2154 421.282 42.2844ZM395.378 36.5964H413.153C412.744 31.4528 409.598 28.6429 404.612 28.6429C399.482 28.6414 396.27 31.5892 395.378 36.5964Z" fill="#0066F5"/>
</g>
<defs>
<clipPath id="clip0">
<rect width="421.2" height="78" fill="white" transform="translate(0.299988)"/>
</clipPath>
</defs>
</svg>
