<svg width="414" height="78" viewBox="0 0 414 78" fill="none" xmlns="http://www.w3.org/2000/svg">
<g clip-path="url(#clip0)">
<path d="M52.945 33.1466C62.9692 24.9657 83.4412 -4.51348 51.3919 0.70533C37.4145 2.82106 16.9425 16.3618 12.8481 32.0182C10.7303 27.7867 8.33011 23.8373 5.78876 19.888C1.83554 14.5281 -2.54124 18.7596 1.69435 24.1194C14.2501 39.3062 21.4892 58.1789 22.3076 77.859C23.2959 68.4088 21.7428 56.8428 17.9308 45.5589C19.7662 46.1231 21.884 46.4052 23.7194 46.4052C30.214 57.1249 40.2382 66.293 51.3919 70.5245C61.6985 74.6149 75.3936 72.2171 69.7462 55.7144C66.7812 46.6872 59.8631 38.7885 52.945 33.1466ZM54.3568 4.51365C72.1463 2.53896 53.0862 24.6836 46.874 28.774C41.0853 24.9657 33.7436 21.5806 26.6843 22.5679C31.767 15.9386 44.1914 5.78309 54.3568 4.51365ZM26.5431 27.3636C31.3435 26.9404 36.5674 29.6203 40.6618 32.4413C36.7086 34.416 32.473 35.5444 28.0962 35.9675C21.6016 35.9675 20.1898 27.9278 26.5431 27.3636ZM51.1096 61.7795C42.7796 59.3816 34.8731 52.6113 29.2257 45.841C33.8848 44.8536 38.544 43.02 42.7796 40.4811C44.3326 39.7759 45.8857 38.6475 47.2975 37.6601C52.2391 42.1737 57.4629 48.2388 59.4396 55.1502C61.4162 62.6258 56.0511 63.19 51.1096 61.7795Z" fill="#F5A623"/>
<path d="M121.138 14.5279H96.8538C96.0067 14.5279 95.3008 15.2332 95.3008 16.0794H95.1596V54.1626C95.1596 55.0089 95.8655 55.7142 96.7127 55.7142C97.4186 55.7142 98.1245 55.0089 98.2657 54.1626V36.9547H118.879C119.726 36.9547 120.15 36.2494 120.15 35.5442C120.15 34.6979 119.585 34.2747 118.879 34.2747H98.1245V17.4899H121.138C121.985 17.4899 122.409 16.7847 122.409 16.0794C122.409 15.6563 121.985 15.0921 121.138 14.5279ZM132.292 12.5532H132.15C131.445 12.5532 131.021 13.1174 131.021 13.8227V54.0216C131.021 54.8679 131.586 55.4321 132.292 55.4321C133.139 55.4321 133.562 54.7268 133.562 54.0216V14.1048C133.562 13.1174 133.139 12.5532 132.292 12.5532ZM167.447 26.9402C167.447 26.0939 166.882 25.5297 166.176 25.5297C165.329 25.5297 164.906 26.235 164.906 26.9402V43.725C164.906 49.367 160.529 53.8805 155.164 53.7395C149.516 53.7395 146.269 49.7901 146.269 43.584V26.9402C146.269 26.0939 145.704 25.5297 144.998 25.5297C144.434 25.5297 143.728 26.235 143.728 26.9402V44.0071C143.728 51.0596 147.963 56.2784 154.882 56.2784C159.117 56.4194 163.07 54.0216 165.047 50.0722V54.4447C165.047 55.291 165.753 55.7142 166.318 55.7142C167.165 55.7142 167.588 55.0089 167.588 54.4447H167.447V26.9402ZM190.743 28.3507C191.308 28.3507 192.014 27.7865 192.014 27.0813C192.014 26.5171 191.308 25.8118 190.743 25.8118H181.848V17.4899C181.848 16.7847 181.142 16.0794 180.577 16.0794H180.436C179.73 16.0794 179.307 16.7847 179.307 17.4899V25.8118H176.201C175.495 25.8118 174.93 26.235 174.93 26.9402C174.93 27.6454 175.495 28.3507 176.201 28.3507H179.307V47.8154C179.307 53.3163 182.836 55.9963 186.931 55.9963C188.343 55.9963 189.755 55.7142 191.025 55.291C191.449 55.0089 191.872 54.5858 191.872 54.0216C191.872 53.3163 191.308 52.8932 190.743 52.8932C189.755 53.1753 188.625 53.3163 187.496 53.3163C184.107 53.3163 181.848 51.7648 181.848 47.5333V28.3507H190.743ZM212.627 28.3507C213.333 28.3507 213.898 27.7865 213.898 27.0813C213.898 26.5171 213.333 25.8118 212.627 25.8118H203.732V17.4899C203.732 16.7847 203.167 16.0794 202.461 16.0794H202.32C201.614 16.0794 201.191 16.7847 201.191 17.4899V25.8118H198.085C197.52 25.8118 196.814 26.235 196.814 26.9402C196.814 27.6454 197.52 28.3507 198.085 28.3507H201.191V47.8154C201.191 53.3163 204.72 55.9963 208.956 55.9963C210.227 55.9963 211.639 55.7142 212.909 55.291C213.474 55.0089 213.756 54.5858 213.756 54.0216C213.756 53.3163 213.333 52.8932 212.627 52.8932C211.639 53.1753 210.509 53.3163 209.38 53.3163C205.991 53.3163 203.732 51.7648 203.732 47.5333V28.3507H212.627ZM231.969 24.9655C224.487 24.9655 218.839 31.7359 218.839 40.6219V40.763C218.839 50.2133 225.051 56.4194 232.534 56.4194C236.487 56.5605 240.582 54.8679 243.264 51.6237C243.688 51.3416 243.829 50.9185 243.829 50.6364C243.829 49.9312 243.123 49.2259 242.558 49.2259L241.711 49.508C240.591 50.8126 239.206 51.8645 237.649 52.594C236.091 53.3235 234.396 53.714 232.675 53.7395C227.169 53.7395 222.228 49.367 221.663 42.0324H243.688C244.253 42.0324 244.959 41.3272 244.959 40.6219C244.959 31.7359 239.876 24.9655 231.969 24.9655ZM221.522 39.2114C221.945 32.7232 226.322 27.6454 231.828 27.6454C238.182 27.6454 241.57 33.1464 241.852 39.2114H221.522ZM266.56 25.3887C261.477 25.8118 257.242 29.338 255.406 34.4158V27.0813C255.406 26.5171 254.7 25.8118 254.136 25.8118C253.289 25.8118 252.865 26.235 252.724 27.0813V54.7268C252.724 55.4321 253.289 56.1373 253.994 56.1373C254.7 56.1373 255.265 55.5731 255.406 54.7268V43.725C255.406 33.9926 260.63 29.338 266.56 28.6328H266.701C267.548 28.6328 267.972 27.7865 267.972 27.0813C267.972 26.0939 267.407 25.3887 266.56 25.3887Z" fill="black"/>
<path d="M314.14 23.8374C312.304 23.8374 310.61 25.2479 310.186 27.2226L305.386 43.3021L300.727 27.2226C300.303 25.2479 298.468 23.6964 296.35 23.6964H295.926C293.809 23.6964 291.973 24.9658 291.55 27.2226L286.891 43.0201L282.373 27.0815C281.808 25.2479 280.255 23.6964 278.278 23.6964H278.137C276.019 23.6964 274.466 25.53 274.466 27.7868L274.748 29.9025L281.949 52.0472C282.514 54.304 284.349 55.8555 286.608 55.9965H286.891C289.008 55.9965 290.703 54.445 291.408 52.1882L296.068 36.3908L300.727 52.1882C301.292 54.445 303.127 55.9965 305.245 55.9965H305.668C307.927 55.9965 309.763 54.445 310.328 52.0472L317.528 29.6204L317.952 27.9278V27.7868C317.952 25.53 316.257 23.8374 314.14 23.8374ZM334.894 23.8374C331.647 23.6964 328.541 24.4016 325.435 25.389C324.164 25.9531 323.458 27.2226 323.458 28.7741C323.458 30.8899 325.011 32.4414 326.988 32.3003C327.27 32.3003 327.694 32.3003 328.117 32.0182C329.953 31.4541 331.929 31.172 333.906 31.172C338.141 31.172 340.259 33.1466 340.259 36.955V37.3781C338 36.5318 335.459 36.2497 333.059 36.2497C326.14 36.2497 321.34 39.4938 321.34 46.4052C321.34 52.4703 325.999 55.9965 331.364 55.9965C334.753 56.1376 338 54.5861 340.259 52.0472C340.4 54.304 342.095 55.8555 344.212 55.8555C346.471 55.8555 348.307 53.8808 348.307 51.483V37.3781C348.448 33.8519 347.318 30.1846 345.059 27.5047C342.659 25.2479 339.412 23.8374 334.894 23.8374ZM340.4 44.2895C340.4 47.6747 337.577 49.7904 333.765 49.6493C331.082 49.6493 329.247 48.2389 329.247 45.841V45.7C329.247 43.0201 331.506 41.3275 335.035 41.3275C336.729 41.3275 338.706 41.8917 340.4 42.5969V44.2895ZM376.968 23.6964C375.273 23.6964 373.579 24.8248 373.156 26.7994L366.661 44.9947L360.449 26.9405C359.884 24.9658 358.331 23.6964 356.354 23.6964C354.237 23.6964 352.542 25.389 352.26 27.7868C352.26 28.492 352.542 29.1973 352.825 29.9025L361.861 52.0472C362.425 54.304 364.261 55.8555 366.52 55.9965H367.085C369.061 55.8555 371.038 54.445 371.885 52.1882L380.639 30.0436L381.062 27.9278V27.7868C381.062 25.53 379.368 23.6964 376.968 23.6964ZM398.852 23.5553C390.239 23.5553 384.309 30.8899 384.309 39.7759V41.1864C384.592 49.7904 391.651 56.4197 399.699 55.9965C403.37 55.9965 406.899 54.7271 409.864 52.1882C410.711 51.483 410.994 50.6367 410.994 49.6493V49.5083C410.994 47.5336 409.582 45.9821 407.746 45.9821C407.041 45.9821 406.335 46.1231 405.77 46.6873C404.124 48.103 402.011 48.857 399.84 48.8031C396.31 48.9441 393.204 46.4052 392.781 42.5969H409.3C411.417 42.4559 413.112 40.4812 412.97 38.2244V37.5191C412.97 29.9025 406.617 23.2732 398.852 23.5553ZM392.498 37.3781C393.204 33.2877 395.463 30.7488 398.852 30.7488C402.24 30.7488 404.499 33.4287 404.923 37.3781H392.498Z" fill="black" stroke="black" stroke-width="3.9"/>
</g>
<defs>
<clipPath id="clip0">
<rect width="413.111" height="78" fill="white"/>
</clipPath>
</defs>
</svg>
