<svg width="205" height="78" viewBox="0 0 205 78" fill="none" xmlns="http://www.w3.org/2000/svg">
<g clip-path="url(#clip0)">
<path fill-rule="evenodd" clip-rule="evenodd" d="M142.984 61.6671H137.833C137.285 61.6671 136.737 61.1115 136.737 60.4449V53.8893C136.737 53.3338 137.285 52.7782 137.833 52.7782H142.984C143.641 52.7782 144.189 53.3338 144.189 53.8893V60.4449C144.189 61.1115 143.641 61.6671 142.984 61.6671ZM25.9357 61.6671H20.6751C20.0176 61.6671 19.4696 61.0004 19.4696 60.4449V41.3338C19.4696 36.3338 18.5928 35.0004 14.757 35.0004C12.7843 35.0004 10.4828 35.6671 8.07167 37.0004V60.4449C8.07167 61.0004 7.52369 61.6671 6.86612 61.6671H1.60554C0.947971 61.6671 0.399994 61.0004 0.399994 60.4449V6.33377C0.399994 5.77821 0.947971 5.22266 1.60554 5.22266H6.86612C7.52369 5.22266 8.07167 5.77821 8.07167 6.33377V30.6671C10.2636 29.3338 12.6747 28.556 16.7297 28.556C24.7302 28.556 27.1413 34.2227 27.1413 41.3338V60.4449C27.1413 61.0004 26.5933 61.6671 25.9357 61.6671ZM47.9644 43.0004C47.9644 38.2227 45.8821 35.1115 41.827 35.1115C37.772 35.1115 35.5801 38.2227 35.5801 43.0004V47.6671C35.5801 52.4449 37.772 55.4449 41.827 55.4449C45.8821 55.4449 47.9644 52.4449 47.9644 47.6671V43.0004ZM41.827 62.1115C32.7306 62.1115 28.018 56.0004 28.018 47.6671V43.0004C28.018 34.6671 32.7306 28.556 41.827 28.556C50.8138 28.556 55.636 34.6671 55.636 43.0004V47.6671C55.636 56.0004 50.8138 62.1115 41.827 62.1115ZM72.6233 61.6671C71.1986 61.8893 69.993 62.1115 68.6779 62.1115C62.1022 62.1115 59.4719 60.6671 59.4719 52.8893V34.6671L54.1017 33.8893C53.4441 33.7782 52.8962 33.3338 52.8962 32.6671V30.1115C52.8962 29.4449 53.4441 28.8893 54.1017 28.8893H59.4719V24.1115C59.4719 23.556 60.0199 23.1115 60.6774 23.0004L66.0476 22.1115H66.2668C66.8148 22.1115 67.1436 22.3338 67.1436 22.8893V28.8893H72.4041C72.9521 28.8893 73.5001 29.4449 73.5001 30.1115V33.4449C73.5001 34.1115 72.9521 34.6671 72.4041 34.6671H67.1436V52.8893C67.1436 55.7782 67.3627 56.1115 69.4451 56.1115H72.5137C73.2809 56.1115 73.7193 56.4449 73.7193 57.0004V60.6671C73.7193 61.2227 73.3905 61.556 72.6233 61.6671ZM93.9944 42.2227C93.9944 37.7782 91.5833 35.1115 87.9667 35.1115C84.35 35.1115 81.8293 37.6671 81.8293 42.2227V42.4449H93.9944V42.2227ZM100.57 47.8893H81.7197V48.1115C81.7197 51.4449 83.1445 55.4449 88.6242 55.4449C92.8985 55.4449 96.8439 55.1115 99.255 54.8893H99.4742C100.022 54.8893 100.461 55.2227 100.461 55.7782V59.556C100.461 60.556 100.351 60.8893 99.255 61.1115C95.5287 61.7782 93.3368 62.1115 88.0763 62.1115C82.2677 62.1115 74.1577 59.0004 74.1577 47.556V43.2227C74.1577 34.2227 79.0894 28.556 87.9667 28.556C96.8439 28.556 101.776 34.556 101.776 43.2227V46.4449C101.776 47.4449 101.337 47.8893 100.57 47.8893ZM109.886 73.2227H104.516C103.858 73.2227 103.31 72.556 103.31 72.0004V18.6671C103.31 18.0004 103.858 17.4449 104.516 17.4449H109.886C110.543 17.4449 110.982 18.0004 110.982 18.6671V72.0004C110.982 72.556 110.543 73.2227 109.886 73.2227ZM123.695 62.1115C121.503 62.1115 116.571 61.7782 113.393 60.8893C112.626 60.7782 112.297 60.3338 112.297 59.556V56.1115C112.297 55.6671 112.626 55.2227 113.283 55.2227H113.502C116.242 55.556 121.503 55.7782 123.147 55.7782C126.763 55.7782 127.311 54.6671 127.311 53.0004C127.311 52.0004 126.654 51.2227 124.791 50.1115L116.79 45.2227C115.376 44.4217 114.19 43.2647 113.345 41.8635C112.5 40.4622 112.026 38.8638 111.968 37.2227C111.968 31.4449 115.585 28.556 122.928 28.556C127.64 28.556 130.27 29.0004 133.23 29.6671C133.997 29.8893 134.325 30.3338 134.325 31.0004V34.3338C134.325 35.1115 133.997 35.4449 133.339 35.4449H133.12C131.476 35.2227 126.873 34.7782 123.585 34.7782C120.845 34.7782 119.64 35.4449 119.64 37.2227C119.64 38.1115 120.516 38.6671 121.941 39.556L129.503 44.2227C134.325 47.2227 135.093 50.1115 135.093 53.0004C135.093 58.1115 131.257 62.1115 123.695 62.1115ZM171.698 61.6671H166.437C165.779 61.6671 165.231 61.0004 165.231 60.4449V41.556C165.231 36.4449 164.793 35.0004 160.3 35.0004C158.327 35.0004 156.245 35.7782 153.833 37.1115V60.4449C153.833 61.0004 153.285 61.6671 152.628 61.6671H147.367C146.71 61.6671 146.162 61.0004 146.162 60.4449V30.1115C146.162 29.4449 146.71 28.8893 147.367 28.8893H152.409C152.957 28.8893 153.505 29.4449 153.505 30.1115V31.3338C156.902 29.1115 159.094 28.556 162.93 28.556C171.259 28.556 172.903 34.1115 172.903 41.556V60.4449C172.903 61.0004 172.355 61.6671 171.698 61.6671ZM195.151 39.6671C195.151 36.8893 193.945 34.7782 189.014 34.7782C184.082 34.7782 182.767 37.0004 182.767 39.6671V40.2227C182.767 42.3338 183.534 44.7782 189.014 44.7782C193.726 44.7782 195.151 43.1115 195.151 40.2227V39.6671ZM195.808 63.8893C195.808 62.6671 195.041 61.8893 189.014 60.4449L183.863 59.2227C182.986 60.4449 182.328 61.2227 182.328 63.2227V63.7782C182.328 66.1115 183.863 67.556 189.233 67.556C194.822 67.556 195.808 66.4449 195.808 64.3338V63.8893ZM203.151 34.2227L201.179 35.0004C202.165 36.3338 202.603 37.556 202.603 39.556V40.0004C202.603 47.2227 197.672 50.556 189.014 50.556C185.945 50.556 183.863 50.0004 182.657 49.556C181.999 50.0004 181.671 50.556 181.671 51.1115C181.671 52.2227 182.328 52.6671 183.643 53.0004L190.438 54.6671C198.329 56.4449 203.371 57.6671 203.371 63.8893V64.3338C203.371 70.2227 199.096 73.4449 189.233 73.4449C179.917 73.4449 174.876 69.8893 174.876 63.7782V63.2227C174.876 60.8893 175.972 58.556 177.835 56.8893C177.038 56.2569 176.396 55.4466 175.959 54.5215C175.522 53.5965 175.301 52.5817 175.314 51.556V51.4449C175.314 49.6671 175.972 47.8893 177.616 46.7782C175.862 45.0004 175.205 42.8893 175.205 40.0004V39.556C175.205 33.7782 178.931 28.8893 189.014 28.8893H202.494C203.371 28.8893 204.028 29.6671 204.028 30.4449V32.8893C204.028 33.7782 203.809 33.8893 203.151 34.2227Z" fill="#00AEFF"/>
</g>
<defs>
<clipPath id="clip0">
<rect width="204.286" height="78" fill="white" transform="translate(0.400024)"/>
</clipPath>
</defs>
</svg>
