<svg width="286" height="78" viewBox="0 0 286 78" fill="none" xmlns="http://www.w3.org/2000/svg">
<g clip-path="url(#clip0)">
<path fill-rule="evenodd" clip-rule="evenodd" d="M94.264 40.7449L95.2289 35.2535C95.2289 35.2535 87.798 32.8412 81.7501 37.3149V59.2827H88.1725V41.4348C90.7318 39.3734 94.264 40.7449 94.264 40.7449Z" fill="#03435F"/>
<mask id="mask0" mask-type="alpha" maskUnits="userSpaceOnUse" x="81" y="34" width="15" height="26">
<path d="M81.75 37.3149C84.6599 35.1629 87.8901 34.6042 90.4586 34.6047C93.2283 34.6047 95.229 35.2539 95.229 35.2539L94.2637 40.7454C94.2637 40.7454 90.7315 39.3739 88.1723 41.4349V59.2827H81.75V37.3149Z" fill="white"/>
</mask>
<g mask="url(#mask0)">
<path fill-rule="evenodd" clip-rule="evenodd" d="M-309.198 127.369L595.23 127.369L595.23 -1153.33H-309.198L-309.198 127.369Z" fill="#03435F"/>
</g>
<mask id="mask1" mask-type="alpha" maskUnits="userSpaceOnUse" x="81" y="34" width="15" height="26">
<path d="M81.75 37.3149C84.6599 35.1629 87.8896 34.6047 90.4586 34.6047C93.2283 34.6047 95.229 35.2539 95.229 35.2539L94.2637 40.7454C94.2637 40.7454 90.7315 39.3739 88.1723 41.4349V59.2827H81.75V37.3149Z" fill="white"/>
</mask>
<g mask="url(#mask1)">
<path fill-rule="evenodd" clip-rule="evenodd" d="M70.9829 70.0449H105.996V23.8421H70.9829V70.0449Z" fill="#03435F"/>
</g>
<path fill-rule="evenodd" clip-rule="evenodd" d="M38.8955 28.9907L45.3149 27.7818V34.9264H51.6671V40.64H45.3149V49.1607C45.3149 50.6122 45.5497 51.7645 46.0298 52.6166C46.5045 53.4818 47.4565 53.9106 48.886 53.9106C49.585 53.9106 50.2871 53.8435 51.0276 53.7014C51.7472 53.5568 52.4182 53.3711 53.022 53.128L53.9303 58.4799C53.1533 58.8131 52.2945 59.1023 51.3476 59.3475C50.3977 59.5902 49.2315 59.7168 47.8536 59.7168C46.102 59.7168 44.6544 59.4615 43.5033 58.9552C42.358 58.4488 41.4372 57.7384 40.7507 56.8317C40.0642 55.933 39.5815 54.8302 39.3106 53.5388C39.0347 52.2498 38.8955 50.8264 38.8955 49.2562V28.9907Z" fill="#03435F"/>
<mask id="mask2" mask-type="alpha" maskUnits="userSpaceOnUse" x="38" y="27" width="16" height="33">
<path d="M38.8961 28.9907L45.3155 27.7818V34.9264H51.6677V40.64H45.3155V49.1607C45.3155 50.6126 45.5503 51.7645 46.03 52.6166C46.5047 53.4822 47.4566 53.9106 48.8862 53.9106C49.5852 53.9106 50.2868 53.8435 51.0278 53.7014C51.7474 53.5568 52.4188 53.3711 53.0226 53.1284L53.9305 58.4799C53.1539 58.8135 52.2946 59.1027 51.3478 59.3479C50.3979 59.5906 49.2317 59.7168 47.8538 59.7168C46.1017 59.7168 44.6545 59.4615 43.5039 58.9552C42.3582 58.4488 41.4369 57.7384 40.7508 56.8321C40.0644 55.933 39.5821 54.8302 39.3112 53.5388C39.0349 52.2498 38.8961 50.8268 38.8961 49.2562V28.9907Z" fill="white"/>
</mask>
<g mask="url(#mask2)">
<path fill-rule="evenodd" clip-rule="evenodd" d="M-309.198 127.369L595.23 127.369L595.23 -1153.33H-309.198L-309.198 127.369Z" fill="#03435F"/>
<path fill-rule="evenodd" clip-rule="evenodd" d="M28.1287 70.479H64.6973V17.0192H28.1287L28.1287 70.479Z" fill="#03435F"/>
</g>
<path fill-rule="evenodd" clip-rule="evenodd" d="M104.737 54.3636C105.911 54.3636 106.742 54.2341 107.235 53.9914C107.725 53.7462 107.962 53.2658 107.962 52.5633C107.962 52.0079 107.653 51.525 107.018 51.1143C106.384 50.696 105.429 50.2311 104.134 49.7013C103.13 49.301 102.216 48.8881 101.393 48.4618C100.581 48.028 99.884 47.5217 99.3087 46.9197C98.7355 46.3207 98.2918 45.6023 97.9718 44.7657C97.6519 43.9441 97.5001 42.9498 97.5001 41.777C97.5001 39.5064 98.2918 37.7061 99.8685 36.3862C101.447 35.0717 103.61 34.4002 106.371 34.4002C107.751 34.4002 109.072 34.5318 110.336 34.798C111.598 35.0562 112.607 35.3509 113.347 35.6477L112.23 40.9941C111.482 40.7178 110.669 40.4752 109.795 40.2635C108.92 40.0467 107.934 39.9328 106.845 39.9328C104.835 39.9328 103.829 40.5372 103.829 41.733C103.829 42.0093 103.873 42.2549 103.961 42.4691C104.048 42.6862 104.219 42.8929 104.472 43.0915C104.737 43.2881 105.083 43.5099 105.532 43.7375C105.978 43.9776 106.546 44.2254 107.235 44.507C108.636 45.0649 109.8 45.6073 110.718 46.1552C111.639 46.7026 112.362 47.2789 112.896 47.919C113.427 48.5444 113.804 49.2369 114.016 50.006C114.227 50.7735 114.338 51.6592 114.338 52.6694C114.338 55.0636 113.497 56.8739 111.822 58.0983C110.14 59.3176 107.761 59.9321 104.688 59.9321C102.681 59.9321 101.009 59.754 99.6748 59.3797C98.3358 59.0155 97.412 58.7007 96.8962 58.4576L97.9718 52.8835C99.0583 53.3434 100.189 53.6996 101.329 53.9687C102.485 54.232 103.61 54.3636 104.737 54.3636Z" fill="#03435F"/>
<mask id="mask3" mask-type="alpha" maskUnits="userSpaceOnUse" x="96" y="34" width="19" height="26">
<path d="M99.8683 36.3867C101.448 35.0717 103.61 34.4003 106.37 34.4003C107.751 34.4003 109.072 34.5318 110.337 34.798C111.598 35.0563 112.607 35.3505 113.347 35.6477L112.23 40.9941C111.482 40.7178 110.669 40.4752 109.794 40.2635C108.92 40.0463 107.934 39.9332 106.845 39.9332C104.835 39.9332 103.829 40.5368 103.829 41.7331C103.829 42.0093 103.873 42.2549 103.96 42.4691C104.048 42.6862 104.219 42.8929 104.472 43.0916C104.737 43.2881 105.083 43.5099 105.532 43.7375C105.978 43.9772 106.546 44.2258 107.235 44.507C108.636 45.065 109.8 45.6073 110.718 46.1552C111.639 46.7026 112.362 47.2785 112.896 47.919C113.428 48.5444 113.804 49.2364 114.016 50.006C114.228 50.7735 114.338 51.6592 114.338 52.6694C114.338 55.0636 113.497 56.8744 111.823 58.0983C110.14 59.3176 107.761 59.9321 104.688 59.9321C102.681 59.9321 101.009 59.754 99.675 59.3797C98.3356 59.0155 97.4122 58.7007 96.896 58.4576L97.972 52.8835C99.0585 53.3438 100.188 53.6996 101.329 53.9687C102.485 54.2316 103.61 54.3636 104.737 54.3636C105.911 54.3636 106.742 54.2345 107.235 53.9914C107.725 53.7462 107.963 53.2658 107.963 52.5633C107.963 52.0079 107.653 51.525 107.018 51.1143C106.383 50.696 105.428 50.2311 104.133 49.7013C103.13 49.301 102.217 48.8881 101.393 48.4618C100.581 48.028 99.8838 47.5217 99.3089 46.9197C98.7357 46.3203 98.292 45.6023 97.972 44.7657C97.6521 43.9437 97.4998 42.9499 97.4998 41.777C97.4998 39.5069 98.292 37.7066 99.8683 36.3867Z" fill="white"/>
</mask>
<g mask="url(#mask3)">
<path fill-rule="evenodd" clip-rule="evenodd" d="M-309.198 127.369L595.23 127.369L595.23 -1153.33H-309.198L-309.198 127.369Z" fill="#03435F"/>
<path fill-rule="evenodd" clip-rule="evenodd" d="M86.1293 70.6941H125.106V23.6374H86.1293V70.6941Z" fill="#03435F"/>
</g>
<path fill-rule="evenodd" clip-rule="evenodd" d="M134.123 45.3708C133.548 47.706 132.942 50.0306 132.294 52.3293C131.649 54.6359 130.962 56.9555 130.253 59.2903H125.256C124.737 57.9988 124.172 56.4647 123.568 54.6849C122.959 52.8976 122.337 50.9578 121.684 48.8477C121.039 46.7448 120.379 44.5186 119.702 42.163C119.024 39.8178 118.366 37.4466 117.737 35.0469H124.502C124.726 36.1497 124.982 37.3615 125.258 38.6655C125.531 39.9724 125.82 41.3183 126.122 42.7028C126.424 44.0823 126.747 45.4689 127.077 46.8689C127.41 48.2688 127.751 49.6094 128.096 50.8987C128.47 49.5477 128.837 48.1683 129.195 46.7553C129.549 45.3402 129.897 43.9503 130.23 42.5842C130.558 41.2203 130.88 39.8953 131.174 38.6194C131.474 37.3455 131.739 36.1497 131.974 35.0469H136.621C136.858 36.1497 137.108 37.3455 137.4 38.6194C137.684 39.8953 137.986 41.2203 138.306 42.5842C138.615 43.9503 138.953 45.3402 139.292 46.7553C139.64 48.1683 139.996 49.5477 140.365 50.8987C140.713 49.6094 141.059 48.2688 141.407 46.8689C141.756 45.4689 142.083 44.0823 142.382 42.7028C142.682 41.3183 142.971 39.9724 143.25 38.6655C143.526 37.3615 143.776 36.1497 144.005 35.0469H150.683C150.049 37.4466 149.396 39.8178 148.717 42.163C148.033 44.5186 147.38 46.7448 146.728 48.8477C146.085 50.9578 145.45 52.8976 144.834 54.6849C144.212 56.4647 143.639 57.9988 143.129 59.2903H138.131C137.408 56.9555 136.706 54.6359 136.015 52.3293C135.326 50.0306 134.701 47.706 134.123 45.3708Z" fill="#03435F"/>
<mask id="mask4" mask-type="alpha" maskUnits="userSpaceOnUse" x="117" y="35" width="34" height="25">
<path d="M144.005 35.0469H150.683C150.049 37.4466 149.396 39.8178 148.717 42.1625C148.033 44.5186 147.38 46.7452 146.727 48.8477C146.085 50.9578 145.451 52.8976 144.833 54.6849C144.212 56.4647 143.639 57.9984 143.128 59.2903H138.13C137.408 56.9555 136.706 54.6355 136.015 52.3289C135.326 50.0306 134.701 47.706 134.124 45.3708C133.548 47.706 132.941 50.0306 132.294 52.3289C131.649 54.6355 130.963 56.9555 130.253 59.2903H125.255C124.736 57.9984 124.172 56.4647 123.568 54.6849C122.959 52.8976 122.337 50.9578 121.684 48.8477C121.039 46.7452 120.379 44.5186 119.703 42.1625C119.024 39.8178 118.366 37.4466 117.737 35.0469H124.502C124.726 36.1497 124.982 37.3611 125.258 38.6655C125.532 39.9724 125.82 41.3183 126.122 42.7024C126.424 44.0819 126.747 45.4689 127.077 46.8689C127.41 48.2689 127.751 49.6094 128.096 50.8987C128.47 49.5477 128.836 48.1679 129.195 46.7553C129.548 45.3402 129.897 43.9503 130.23 42.5842C130.557 41.2198 130.88 39.8949 131.174 38.6194C131.474 37.3455 131.74 36.1497 131.974 35.0469H136.621C136.858 36.1497 137.108 37.3455 137.4 38.6194C137.684 39.8949 137.986 41.2198 138.306 42.5842C138.616 43.9503 138.953 45.3402 139.292 46.7553C139.64 48.1679 139.996 49.5477 140.365 50.8987C140.713 49.6094 141.059 48.2689 141.407 46.8689C141.756 45.4689 142.083 44.0819 142.383 42.7024C142.682 41.3183 142.971 39.9724 143.249 38.6655C143.526 37.3611 143.776 36.1497 144.005 35.0469Z" fill="white"/>
</mask>
<g mask="url(#mask4)">
<path fill-rule="evenodd" clip-rule="evenodd" d="M-309.198 127.369L595.23 127.369L595.23 -1153.33H-309.198L-309.198 127.369Z" fill="#03435F"/>
<path fill-rule="evenodd" clip-rule="evenodd" d="M106.97 70.0525H161.45V24.2845H106.97V70.0525Z" fill="#03435F"/>
</g>
<path fill-rule="evenodd" clip-rule="evenodd" d="M155.221 59.2808H161.63V35.0425H155.221V59.2808Z" fill="#03435F"/>
<mask id="mask5" mask-type="alpha" maskUnits="userSpaceOnUse" x="155" y="35" width="7" height="25">
<path d="M155.221 59.2817V35.0435H161.631V59.2817H155.221Z" fill="white"/>
</mask>
<g mask="url(#mask5)">
<path fill-rule="evenodd" clip-rule="evenodd" d="M-309.198 127.369L595.23 127.369L595.23 -1153.33H-309.198L-309.198 127.369Z" fill="#03435F"/>
<path fill-rule="evenodd" clip-rule="evenodd" d="M144.454 70.0439H172.397V24.281H144.454V70.0439Z" fill="#03435F"/>
</g>
<path fill-rule="evenodd" clip-rule="evenodd" d="M166.729 28.9984L173.143 27.7819V35.0552H179.491V40.7583H173.143V49.2874C173.143 50.731 173.38 51.8937 173.853 52.7434C174.325 53.6035 175.282 54.0348 176.714 54.0348C177.408 54.0348 178.12 53.9727 178.848 53.8307C179.583 53.6911 180.249 53.4924 180.855 53.2522L181.756 58.599C180.979 58.9394 180.115 59.229 179.173 59.4767C178.22 59.7195 177.068 59.8435 175.684 59.8435C173.93 59.8435 172.483 59.5908 171.334 59.079C170.184 58.5806 169.265 57.8756 168.579 56.9609C167.892 56.0623 167.413 54.954 167.137 53.6706C166.858 52.3766 166.729 50.9456 166.729 49.3825V28.9984Z" fill="#03435F"/>
<mask id="mask6" mask-type="alpha" maskUnits="userSpaceOnUse" x="166" y="27" width="16" height="33">
<path d="M166.729 28.9984L173.143 27.7819V35.0552H179.49V40.7583H173.143V49.2874C173.143 50.731 173.38 51.8933 173.853 52.7434C174.325 53.6035 175.282 54.0344 176.714 54.0344C177.408 54.0344 178.12 53.9727 178.848 53.8307C179.583 53.6906 180.249 53.4924 180.855 53.2522L181.756 58.5986C180.979 58.9394 180.114 59.229 179.173 59.4767C178.221 59.7195 177.068 59.8435 175.684 59.8435C173.93 59.8435 172.482 59.5908 171.334 59.079C170.183 58.5802 169.265 57.8756 168.579 56.9614C167.892 56.0623 167.413 54.9545 167.136 53.6706C166.858 52.3766 166.729 50.9452 166.729 49.383V28.9984Z" fill="white"/>
</mask>
<g mask="url(#mask6)">
<path fill-rule="evenodd" clip-rule="evenodd" d="M-309.198 127.369L595.23 127.369L595.23 -1153.33H-309.198L-309.198 127.369Z" fill="#03435F"/>
<path fill-rule="evenodd" clip-rule="evenodd" d="M155.961 70.6057H192.523V17.0193H155.961V70.6057Z" fill="#03435F"/>
</g>
<path fill-rule="evenodd" clip-rule="evenodd" d="M184.023 47.1746C184.023 45.4204 184.289 43.7677 184.82 42.218C185.352 40.663 186.118 39.315 187.122 38.1601C188.128 37.0058 189.346 36.0962 190.785 35.4172C192.218 34.7482 193.853 34.402 195.691 34.402C196.895 34.402 198.002 34.5235 199.008 34.7507C200.015 34.9858 200.996 35.3141 201.937 35.7399L200.606 41.2238C200 40.9807 199.341 40.769 198.619 40.5779C197.902 40.3968 197.094 40.3017 196.207 40.3017C194.313 40.3017 192.896 40.9342 191.97 42.1946C191.028 43.4579 190.569 45.1136 190.569 47.1746C190.569 49.3517 191.005 51.0435 191.887 52.2423C192.754 53.4381 194.287 54.0401 196.467 54.0401C197.244 54.0401 198.072 53.9596 198.967 53.8074C199.855 53.6523 200.673 53.4096 201.426 53.0688L202.325 58.6944C201.576 59.0326 200.647 59.3168 199.528 59.5671C198.402 59.8106 197.171 59.9368 195.825 59.9368C193.758 59.9368 191.973 59.601 190.484 58.9421C188.993 58.2836 187.762 57.3845 186.802 56.2482C185.834 55.1093 185.138 53.7663 184.692 52.2163C184.245 50.6641 184.023 48.9804 184.023 47.1746Z" fill="#03435F"/>
<mask id="mask7" mask-type="alpha" maskUnits="userSpaceOnUse" x="184" y="34" width="19" height="26">
<path d="M190.786 35.4172C192.218 34.7482 193.854 34.4019 195.691 34.4019C196.896 34.4019 198.003 34.5231 199.009 34.7503C200.015 34.9858 200.996 35.3136 201.937 35.7399L200.606 41.2233C199.999 40.9807 199.342 40.769 198.619 40.5779C197.902 40.3964 197.094 40.3012 196.206 40.3012C194.313 40.3012 192.896 40.9342 191.97 42.1946C191.028 43.4575 190.569 45.1132 190.569 47.1746C190.569 49.3517 191.005 51.0435 191.888 52.2423C192.754 53.4381 194.287 54.04 196.467 54.04C197.244 54.04 198.072 53.9596 198.967 53.8074C199.855 53.6523 200.673 53.4096 201.426 53.0684L202.324 58.6944C201.576 59.0326 200.647 59.3164 199.527 59.5671C198.403 59.8102 197.172 59.9368 195.825 59.9368C193.758 59.9368 191.973 59.6006 190.484 58.9417C188.993 58.2832 187.762 57.3845 186.801 56.2486C185.835 55.1093 185.138 53.7663 184.692 52.2163C184.245 50.6641 184.023 48.9799 184.023 47.1746C184.023 45.4204 184.289 43.7677 184.82 42.218C185.352 40.663 186.118 39.3145 187.122 38.1597C188.128 37.0053 189.346 36.0962 190.786 35.4172Z" fill="white"/>
</mask>
<g mask="url(#mask7)">
<path fill-rule="evenodd" clip-rule="evenodd" d="M-309.198 127.369L595.23 127.369L595.23 -1153.33H-309.198L-309.198 127.369Z" fill="#03435F"/>
<path fill-rule="evenodd" clip-rule="evenodd" d="M173.256 70.699H213.091V23.6394H173.256V70.699Z" fill="#03435F"/>
</g>
<path fill-rule="evenodd" clip-rule="evenodd" d="M206.471 59.2817V28.989L212.888 27.7831V35.1444C213.316 34.9918 213.866 34.8447 214.548 34.7055C215.218 34.5684 215.876 34.4959 216.506 34.4959C218.34 34.4959 219.865 34.7671 221.088 35.302C222.306 35.8393 223.289 36.6014 224.016 37.5852C224.755 38.5643 225.265 39.7367 225.573 41.0826C225.869 42.4382 226.018 43.9471 226.018 45.6054V59.2817H219.604V46.429C219.604 44.2179 219.339 42.6528 218.81 41.7256C218.278 40.8135 217.293 40.3516 215.861 40.3516C215.278 40.3516 214.746 40.4061 214.24 40.5092C213.739 40.6178 213.288 40.7364 212.888 40.8579V59.2817H206.471Z" fill="#03435F"/>
<mask id="mask8" mask-type="alpha" maskUnits="userSpaceOnUse" x="206" y="27" width="21" height="33">
<path d="M206.471 28.989L212.888 27.7831V35.1448C213.316 34.9918 213.866 34.8447 214.548 34.7055C215.218 34.5684 215.876 34.4964 216.506 34.4964C218.34 34.4964 219.865 34.7676 221.088 35.302C222.306 35.8398 223.289 36.6014 224.017 37.5856C224.754 38.5643 225.266 39.7367 225.573 41.083C225.869 42.4386 226.019 43.9471 226.019 45.6058V59.2817H219.605V46.429C219.605 44.2183 219.338 42.6528 218.81 41.7256C218.278 40.8139 217.293 40.3516 215.861 40.3516C215.278 40.3516 214.746 40.4061 214.24 40.5096C213.74 40.6178 213.288 40.7364 212.888 40.8579V59.2817H206.471V28.989Z" fill="white"/>
</mask>
<g mask="url(#mask8)">
<path fill-rule="evenodd" clip-rule="evenodd" d="M-309.198 127.369L595.23 127.369L595.23 -1153.33H-309.198L-309.198 127.369Z" fill="#03435F"/>
<path fill-rule="evenodd" clip-rule="evenodd" d="M195.704 70.0439H236.786V17.0203H195.704V70.0439Z" fill="#03435F"/>
</g>
<path fill-rule="evenodd" clip-rule="evenodd" d="M13.0089 59.2893L13.0089 37.324C13.0089 37.324 16.2341 34.568 23.2884 34.568C29.7078 34.568 33.2328 38.001 33.2328 45.5559V59.2893H26.821V45.5559C26.821 40.744 24.5708 40.4107 22.6485 40.4107C20.7262 40.4107 19.4388 41.4335 19.4388 41.4335V59.2893H13.0089Z" fill="#03435F"/>
<mask id="mask9" mask-type="alpha" maskUnits="userSpaceOnUse" x="13" y="34" width="21" height="26">
<path d="M13.0093 37.3241C13.0093 37.3241 16.2345 34.5681 23.2888 34.5681C29.7081 34.5681 33.2328 38.0006 33.2328 45.5563V59.2893H26.8214V45.5563C26.8214 40.7436 24.5711 40.4107 22.6488 40.4107C20.7266 40.4107 19.4392 41.4339 19.4392 41.4339V59.2893H13.0093L13.0093 37.3241Z" fill="white"/>
</mask>
<g mask="url(#mask9)">
<path fill-rule="evenodd" clip-rule="evenodd" d="M-309.197 127.369L595.23 127.369L595.23 -1153.33H-309.197L-309.197 127.369Z" fill="#03435F"/>
<path fill-rule="evenodd" clip-rule="evenodd" d="M2.24277 70.0515H43.9999V23.8059H2.24277L2.24277 70.0515Z" fill="#03435F"/>
</g>
<path fill-rule="evenodd" clip-rule="evenodd" d="M0.928558 59.2903L0.928558 28.9923L7.34798 27.7833L7.34798 59.2903H0.928558Z" fill="#03435F"/>
<mask id="mask10" mask-type="alpha" maskUnits="userSpaceOnUse" x="0" y="27" width="8" height="33">
<path d="M0.928558 28.9927L7.34798 27.7833L7.34798 59.2903H0.928558L0.928558 28.9927Z" fill="white"/>
</mask>
<g mask="url(#mask10)">
<path fill-rule="evenodd" clip-rule="evenodd" d="M-309.198 127.369L595.23 127.369L595.23 -1153.33H-309.198L-309.198 127.369Z" fill="#03435F"/>
<path fill-rule="evenodd" clip-rule="evenodd" d="M-9.83881 70.0525H18.1149L18.1149 17.0213H-9.83881L-9.83881 70.0525Z" fill="#03435F"/>
</g>
<path fill-rule="evenodd" clip-rule="evenodd" d="M76.7304 48.9106H62.2914C62.2914 48.9106 62.6139 54.0583 69.0257 54.0583C72.2358 54.0583 75.4455 53.0327 75.4455 53.0327L76.088 58.5316C76.088 58.5316 72.8808 59.8931 68.3912 59.8931C61.9689 59.8931 56.1945 56.4652 56.1945 46.8547C56.1945 39.2968 60.684 34.4978 67.1013 34.4978C76.7304 34.4978 77.3754 44.7828 76.7304 48.9106ZM66.7864 39.2968C62.6139 39.2968 62.2914 44.1008 62.2914 44.1008H71.2705C71.2705 44.1008 70.956 39.2968 66.7864 39.2968Z" fill="#03435F"/>
<mask id="mask11" mask-type="alpha" maskUnits="userSpaceOnUse" x="56" y="34" width="21" height="26">
<path d="M56.1947 46.8542C56.1947 39.2964 60.6843 34.4974 67.1011 34.4974C76.7302 34.4974 77.3751 44.7827 76.7302 48.9102H62.2916C62.2916 48.9102 62.6141 54.0579 69.0255 54.0579C72.2356 54.0579 75.4453 53.0323 75.4453 53.0323L76.0877 58.5312C76.0877 58.5312 72.8806 59.8931 68.3911 59.8931C61.9692 59.8931 56.1947 56.4652 56.1947 46.8542ZM66.7862 39.2964C62.6141 39.2964 62.2916 44.1008 62.2916 44.1008H71.2707C71.2707 44.1008 70.9558 39.2964 66.7862 39.2964Z" fill="white"/>
</mask>
<g mask="url(#mask11)">
<path fill-rule="evenodd" clip-rule="evenodd" d="M-309.198 127.369L595.23 127.369L595.23 -1153.33H-309.198L-309.198 127.369Z" fill="#03435F"/>
<path fill-rule="evenodd" clip-rule="evenodd" d="M45.4277 70.655H87.6769V23.7351H45.4277V70.655Z" fill="#03435F"/>
</g>
<mask id="mask12" mask-type="alpha" maskUnits="userSpaceOnUse" x="234" y="23" width="43" height="55">
<path d="M234.521 27.789C234.521 26.3245 252.977 23.164 265.354 23.164C270.722 23.164 274.946 23.7584 276.027 25.3428C281.6 32.6991 242.366 78.8507 239.096 77.4507C236.475 76.7507 260.014 47.3751 256.09 35.481C254.131 29.1915 234.521 29.8911 234.521 27.789Z" fill="white"/>
</mask>
<g mask="url(#mask12)">
<path fill-rule="evenodd" clip-rule="evenodd" d="M223.755 88.2441H287.335V12.4017H223.755V88.2441Z" fill="#ED342B"/>
</g>
<mask id="mask13" mask-type="alpha" maskUnits="userSpaceOnUse" x="267" y="0" width="18" height="19">
<path d="M267.856 9.60663C267.856 4.58301 271.662 0.517576 276.353 0.517576C281.049 0.517576 284.85 4.58301 284.85 9.60663C284.85 14.6328 281.049 18.6982 276.353 18.6982C271.662 18.6982 267.856 14.6328 267.856 9.60663Z" fill="white"/>
</mask>
<g mask="url(#mask13)">
<path fill-rule="evenodd" clip-rule="evenodd" d="M257.09 29.4604L295.617 29.4604V-10.2453H257.09V29.4604Z" fill="#ED342B"/>
</g>
</g>
<defs>
<clipPath id="clip0">
<rect width="284.87" height="78" fill="white" transform="translate(0.400024)"/>
</clipPath>
</defs>
</svg>
