<svg width="288" height="78" viewBox="0 0 288 78" fill="none" xmlns="http://www.w3.org/2000/svg">
<path d="M72.611 45.1787V61.7269H58.8261V6.84033H72.611V34.6744H78.7828L87.5697 19.9685H102.011L90.1965 40.0559L102.02 61.7269H87.5697L78.5125 45.1845L72.611 45.1787Z" fill="#ED017F"/>
<path d="M144.429 49.9031L144.295 31.9166V29.8157C143.772 23.5132 138.126 18.9192 131.693 19.4451H113.721C112.987 19.3725 112.247 19.3725 111.513 19.4451C110.018 19.5875 108.566 20.0231 107.24 20.7272C105.914 21.4312 104.739 22.3898 103.784 23.5482C102.829 24.7065 102.111 26.0418 101.672 27.4778C101.233 28.9137 101.082 30.4221 101.227 31.9166V52.004C101.752 58.3065 107.398 62.9005 113.701 62.3775H134.041C140.358 61.8515 144.952 56.2057 144.429 49.9031ZM130.772 49.2464C130.75 49.621 130.647 49.9864 130.47 50.317C130.292 50.6476 130.045 50.9355 129.745 51.1607C129.444 51.3859 129.099 51.5429 128.732 51.6208C128.365 51.6987 127.985 51.6956 127.619 51.6117H117.382C115.808 51.478 114.886 50.1588 115.02 48.5897V32.3176C115.091 31.5871 115.449 30.9145 116.015 30.4468C116.58 29.9791 117.308 29.7543 118.039 29.8215H128.279C129.732 29.9523 130.775 31.3964 130.641 32.9743H130.775L130.772 49.2464Z" fill="#ED017F"/>
<path d="M171.473 30.6043C168.256 30.594 165.06 31.1265 162.02 32.1792V61.4575H148.235V19.9693H160.315L161.102 23.9095C163.595 22.4567 166.091 21.152 168.718 20.4953C170.859 19.7122 173.121 19.3119 175.401 19.3126H178.815C180.274 19.2106 181.738 19.3986 183.124 19.8659C184.509 20.3332 185.788 21.0705 186.887 22.0351C187.985 22.9997 188.882 24.1726 189.524 25.4858C190.167 26.7991 190.543 28.2267 190.63 29.6861V61.7277H177.119V33.3677C177.064 32.6178 176.735 31.9144 176.195 31.3918C175.661 30.8904 174.957 30.6091 174.224 30.6043H171.473Z" fill="#ED017F"/>
<path d="M235.018 63.9526V19.9685H203.904C200.872 20.3004 198.089 21.8045 196.151 24.1596C194.213 26.5148 193.272 29.5344 193.53 32.5736V49.6419C193.728 52.582 195.082 55.3239 197.297 57.2676C199.512 59.2112 202.407 60.1982 205.348 60.0124H208.105C212.699 60.0124 217.163 59.3557 221.495 58.4375L221.233 62.3777C221.228 63.1092 220.947 63.8117 220.446 64.3449C219.9 64.8273 219.204 65.1056 218.476 65.1323C213.356 65.1323 205.74 64.8708 195.762 64.0834V74.1924C204.953 75.1107 214.013 75.7673 223.204 75.7673H224.656C230.822 75.2443 235.413 69.9907 235.018 63.9526ZM221.495 48.7237C218.372 49.2547 215.21 49.522 212.043 49.5227V49.3891H210.072C209.719 49.3831 209.37 49.3068 209.046 49.1645C208.723 49.0222 208.43 48.8168 208.187 48.5604C207.944 48.3039 207.754 48.0015 207.628 47.6708C207.503 47.3402 207.445 46.9878 207.457 46.6344V32.96C207.588 31.3822 209.032 30.464 210.607 30.5948H221.504L221.495 48.7237Z" fill="#ED017F"/>
<path d="M267.841 19.3034C259.176 19.437 250.642 19.8293 242.108 20.8812L241.573 30.2116L251.421 29.4241L262.713 29.0289C263.078 29.0188 263.44 29.0834 263.779 29.2188C264.118 29.3543 264.426 29.5576 264.683 29.8164C265.206 30.4731 265.601 31.1298 265.601 31.7865V34.9363H248.138C242.099 35.3315 237.386 40.7129 237.898 46.754V52.0047C237.999 53.4537 238.386 54.8684 239.035 56.1678C239.685 57.4672 240.584 58.6257 241.682 59.5769C242.779 60.5281 244.054 61.2534 245.433 61.7112C246.811 62.1689 248.267 62.3502 249.715 62.2446H252.47C254.712 62.2475 256.936 61.8479 259.037 61.0648C261.792 60.4081 264.288 59.0947 266.65 57.5198L267.571 61.4571H279.647V29.5549C279.264 23.5138 273.88 18.9198 267.841 19.3034ZM266.002 49.8951C262.938 50.8355 259.754 51.325 256.55 51.348V51.6124H254.58C254.218 51.6124 253.859 51.5411 253.525 51.4025C253.19 51.2638 252.887 51.0607 252.631 50.8046C252.375 50.5485 252.172 50.2445 252.034 49.9099C251.896 49.5754 251.825 49.2169 251.825 48.8549V48.0703C251.815 47.7056 251.879 47.3426 252.015 47.0038C252.15 46.665 252.354 46.3575 252.612 46.1002C252.852 45.8107 253.152 45.578 253.492 45.4192C253.833 45.2604 254.204 45.1793 254.58 45.182H266.002V49.8951Z" fill="#ED017F"/>
<path d="M238.694 72.2224H233.574V77.6067H238.694V72.2224Z" fill="#ED017F"/>
<path d="M248.411 77.8677C247.435 77.8661 246.463 77.7342 245.522 77.4755L243.291 76.2928C242.739 75.7701 242.293 75.1455 241.977 74.4535C241.392 73.2139 241.218 71.8202 241.479 70.4746C241.74 69.1291 242.424 67.9019 243.43 66.9713L245.531 65.9224C246.385 65.7047 247.266 65.6156 248.146 65.658L250.247 65.9224L252.087 66.5762V69.7288H251.43L250.904 69.2029C250.405 68.8109 249.82 68.5413 249.198 68.4155L248.146 68.2847C247.228 68.2847 246.441 68.5462 245.915 69.2029C245.288 69.9268 244.96 70.8615 244.997 71.818C244.997 72.6055 245.258 73.6545 245.915 74.3111C246.217 74.5828 246.569 74.7922 246.952 74.9273C247.335 75.0624 247.741 75.1206 248.146 75.0986L249.329 74.9678L250.381 74.5756L250.904 74.1804L251.43 73.7881H252.087V76.9379L250.247 77.7254L248.411 77.8677Z" fill="#ED017F"/>
<path d="M266.272 71.8302C266.272 70.1216 265.746 68.416 264.564 67.2334C263.25 66.1844 261.675 65.3969 259.97 65.6585C258.256 65.6391 256.586 66.1991 255.23 67.2479C254.181 68.4305 253.394 70.1362 253.656 71.8447C253.639 73.467 254.197 75.0427 255.23 76.2934C256.533 77.3953 258.185 78 259.891 78C261.598 78 263.249 77.3953 264.552 76.2934C265.741 74.98 266.397 73.5359 266.272 71.8302ZM262.204 73.5359L261.678 74.5877L260.891 75.2444C260.631 75.4494 260.301 75.5434 259.973 75.506C259.578 75.506 259.054 75.506 258.79 75.2444C258.398 75.1108 258.133 74.98 258.003 74.7185L257.346 73.6666L257.215 71.961C257.117 71.3459 257.162 70.7167 257.346 70.1216L258.003 68.9419L258.79 68.416L259.842 68.2852L260.751 68.4102C260.936 68.4134 261.118 68.4633 261.278 68.5553C261.439 68.6472 261.573 68.7782 261.67 68.9361L262.196 70.1158L262.326 71.8244L262.204 73.5359Z" fill="#ED017F"/>
<path d="M279.79 69.2033V77.4758H275.981V70.2552L275.719 69.2033L275.193 68.6774L274.013 68.5466L272.831 68.811L271.913 69.2033V77.4758H268.234V65.9228H272.043V67.1025L273.88 66.0535C274.501 65.7834 275.173 65.6487 275.85 65.6583C276.56 65.647 277.259 65.8386 277.863 66.2108C278.468 66.583 278.954 67.1202 279.264 67.7592C279.873 67.1218 280.582 66.5896 281.365 66.1843C282.024 65.872 282.738 65.6932 283.466 65.6583C284.515 65.3968 285.567 65.9228 286.223 66.7102C287.011 67.7592 287.403 68.811 287.272 69.9907V77.6066H283.597V70.3859L283.335 69.334C283.274 69.2016 283.183 69.0853 283.069 68.9945C282.955 68.9036 282.821 68.8408 282.678 68.811L281.626 68.6774L280.708 68.811L279.79 69.2033Z" fill="#ED017F"/>
<path d="M53.1801 9.59842C50.3336 6.73998 46.9308 4.49611 43.1822 3.00569C39.4337 1.51526 35.4191 0.809984 31.387 0.933502C27.4553 0.86306 23.5482 1.56811 19.8891 3.00836C16.23 4.4486 12.8906 6.59582 10.0618 9.32727C7.23288 12.0587 4.97002 15.3209 3.40248 18.9273C1.83494 22.5337 0.993459 26.4136 0.926133 30.3454C0.926133 30.697 0.926133 31.0515 0.926133 31.4031C0.397288 47.9339 13.5312 61.7274 30.0736 62.1139H31.387C47.9294 62.509 61.7084 49.378 61.9786 32.8356V31.2607C62.095 27.2371 61.3728 23.2334 59.858 19.504C58.3433 15.7747 56.0691 12.4013 53.1801 9.59842V9.59842Z" fill="#F9A024"/>
<path d="M31.3868 62.7698C23.2475 62.912 15.3819 59.8317 9.50375 54.2001C3.62559 48.5685 0.211287 40.842 0.00476052 32.7041V31.3907C-0.138158 23.2513 2.94189 15.3852 8.57365 9.5069C14.2054 3.62858 21.9323 0.214512 30.0705 0.00874042H31.3839C35.4098 -0.08741 39.4152 0.610533 43.1714 2.06271C46.9275 3.51489 50.3608 5.69285 53.275 8.47217C56.1893 11.2515 58.5274 14.5777 60.1558 18.2609C61.7843 21.944 62.6712 25.9119 62.7659 29.9379V31.3907C62.8736 35.4196 62.1836 39.4301 60.7356 43.1913C59.2877 46.9525 57.1103 50.3904 54.3287 53.3069C51.5471 56.2235 48.2163 58.5613 44.5279 60.1858C40.8394 61.8103 36.8662 62.6895 32.8367 62.7727L31.3868 62.7698ZM31.3868 1.58946C23.6782 1.4122 16.2135 4.29687 10.6273 9.6118C5.0412 14.9267 1.78887 22.2387 1.58258 29.9466V31.3994C1.32106 47.5496 13.9233 60.9421 30.2041 61.2036H31.3868C35.2123 61.3243 39.0236 60.6838 42.5996 59.3193C46.1755 57.9547 49.4446 55.8933 52.2173 53.2548C54.9899 50.6163 57.2106 47.4532 58.7506 43.9493C60.2906 40.4454 61.1191 36.6704 61.188 32.8436V31.3907C61.5832 15.3743 48.7166 1.98173 32.7118 1.72022L31.3868 1.58946Z" fill="#ED017F"/>
<path d="M15.6316 21.0205C16.708 20.0472 18.1184 19.5268 19.5689 19.5676C21.1915 19.5415 22.8017 19.8542 24.2965 20.4858C25.9204 21.135 27.4623 21.9727 28.8905 22.9818L29.5472 22.4559C28.629 20.6166 27.1848 19.1724 25.4792 17.9927C23.6364 16.9518 21.5546 16.4081 19.4381 16.4149C18.315 16.4435 17.2052 16.6657 16.1576 17.0716C15.0948 17.4936 14.1836 18.2256 13.5424 19.1724C12.8857 19.9599 12.4905 21.0118 12.0895 21.93C11.807 22.9098 11.7182 23.9352 11.828 24.949H12.7462C13.4341 23.4588 14.4154 22.1226 15.6316 21.0205V21.0205ZM35.4575 18.1409C36.768 17.2227 38.3458 16.688 39.9207 16.1708C41.2341 15.7785 42.809 16.04 44.1224 16.8275C45.5268 17.7033 46.7701 18.8139 47.7982 20.111L48.5856 19.8466C48.4549 18.9283 48.1904 17.7457 47.5338 16.9582C47.0581 15.9613 46.3348 15.103 45.4329 14.4651C44.6454 13.6777 43.4657 13.2825 42.4138 13.0123C41.2911 12.7479 40.1223 12.7479 38.9996 13.0123C37.0019 13.4978 35.17 14.5079 33.6932 15.9382C32.2164 17.3685 31.1483 19.1672 30.5991 21.1483L31.3866 21.5435L35.3238 17.9985L35.4575 18.1409ZM49.5038 38.7455C48.8871 40.2886 48.0017 41.7102 46.8887 42.9442C46.3656 43.4702 45.8397 44.1269 45.0522 44.6528L43.0822 46.1057C40.1787 47.6573 37.0223 48.6796 33.7605 49.1248C30.4888 49.6275 27.1534 49.5389 23.913 48.8632C22.3224 48.4679 20.7814 47.8948 19.319 47.1547C17.7441 46.498 16.4307 45.449 14.9866 44.3971L14.5914 44.7923C16.6941 47.8308 19.7394 50.0918 23.2563 51.2256C26.7889 52.512 30.6015 52.829 34.2981 52.1438C37.9963 51.6594 41.5155 50.2613 44.5379 48.0758C47.5511 45.7736 49.5349 42.3761 50.0588 38.6205H49.5038V38.7455ZM30.8606 28.8921L32.0432 39.7886L32.6999 39.6579L31.3866 28.8921H30.8606Z" fill="#ED017F"/>
</svg>
