<svg width="351" height="78" viewBox="0 0 351 78" fill="none" xmlns="http://www.w3.org/2000/svg">
<path d="M207.919 24.1689V77.1617H192.504V69.4224C190.93 72.1113 188.646 74.3177 185.9 75.8009C183.059 77.2912 179.888 78.0464 176.678 77.9971C170.037 77.9971 165.074 76.1494 161.789 72.454C158.504 68.7586 156.865 63.184 156.872 55.7302V24.1689H172.683V56.0455C172.683 62.4555 175.443 65.6605 180.962 65.6605C184.244 65.6605 186.9 64.5466 188.931 62.3189C190.961 60.0911 191.975 57.1646 191.972 53.5393V24.1689H207.919ZM268.368 0V77.1617H252.747V69.3226C251.129 72.0469 248.768 74.2571 245.938 75.6958C242.857 77.2643 239.437 78.0546 235.978 77.9971C231.66 78.0681 227.419 76.8474 223.804 74.4926C220.156 72.062 217.269 68.6572 215.471 64.6674C213.479 60.4642 212.483 55.6391 212.483 50.1924C212.483 44.7457 213.479 39.9557 215.471 35.8224C217.266 31.9029 220.136 28.5695 223.751 26.2074C227.404 23.9102 231.654 22.7319 235.972 22.8185C239.356 22.7771 242.7 23.5484 245.722 25.0673C248.537 26.456 250.9 28.611 252.537 31.2829V0H268.368ZM249.627 61.9511C251.736 59.2715 252.79 55.4185 252.79 50.3921C252.79 45.4427 251.723 41.6282 249.591 38.9486C247.458 36.269 244.471 34.9275 240.631 34.924C236.714 34.924 233.673 36.248 231.509 38.8961C229.344 41.5442 228.262 45.3061 228.262 50.1819C228.262 55.1978 229.344 59.0823 231.509 61.8355C233.673 64.5886 236.714 65.9652 240.631 65.9652C244.521 65.9722 247.519 64.6342 249.627 61.9511V61.9511ZM328.817 24.1689V77.1617H313.191V69.3226C311.573 72.0488 309.209 74.2593 306.377 75.6958C303.296 77.2601 299.878 78.0467 296.421 77.9866C292.106 78.1029 287.854 76.9378 284.204 74.6392C280.555 72.3406 277.673 69.0123 275.926 65.0773C273.934 60.9335 272.938 56.1435 272.938 50.7073C272.938 45.2711 273.934 40.4268 275.926 36.1745C277.713 32.1657 280.602 28.743 284.258 26.302C287.873 23.9566 292.109 22.7434 296.421 22.8185C299.891 22.763 303.318 23.5913 306.377 25.2249C309.201 26.721 311.558 28.9621 313.191 31.7032V24.1689H328.817ZM310.05 61.9984C312.158 59.3503 313.212 55.5183 313.212 50.5024C313.212 45.4865 312.158 41.6335 310.05 38.9434C307.942 36.2568 304.936 34.9152 301.033 34.9187C297.129 34.9222 294.089 36.3181 291.91 39.1062C289.746 41.9084 288.662 45.7772 288.658 50.7125C288.655 55.6479 289.721 59.4274 291.857 62.0509C293.99 64.6604 297.049 65.967 301.033 65.9705C304.943 65.974 307.949 64.6517 310.05 62.0036V61.9984ZM153.652 77.9078H134.01L112.877 53.8808V77.9078H96.8447V0H112.877V47.3131L133.051 24.3475H152.271L129.441 50.0926L153.652 77.9078ZM52.923 77.934L22.1556 42.6265L38.957 77.934H27.3099L10.1712 41.9382L17.2965 77.934H10.1396L3.00902 41.8857V77.934H0.200012V0H3.00902V38.8803L10.2397 0H17.3756L10.1132 39.0485L27.5839 0H39.1045L21.7024 38.9066L53.3024 0H71.3581L38.6724 40.2516L71.5109 77.934H52.923Z" fill="#41276D"/>
<path d="M342.092 77.0782C346.886 77.0782 350.772 73.2039 350.772 68.4246C350.772 63.6454 346.886 59.771 342.092 59.771C337.299 59.771 333.412 63.6454 333.412 68.4246C333.412 73.2039 337.299 77.0782 342.092 77.0782Z" fill="#41276D"/>
</svg>
