<svg width="290" height="83" viewBox="0 0 290 83" fill="none" xmlns="http://www.w3.org/2000/svg">
<path d="M16.1249 56.3423C13.2743 56.3423 10.5095 55.9645 7.83062 55.2089C5.18607 54.419 3.05669 53.4058 1.44248 52.1694L4.27593 45.8843C5.82145 47.0177 7.6589 47.9278 9.78828 48.6147C11.9177 49.3016 14.047 49.6451 16.1764 49.6451C18.5462 49.6451 20.2978 49.3016 21.4312 48.6147C22.5646 47.8935 23.1312 46.949 23.1312 45.7813C23.1312 44.9227 22.7878 44.2186 22.1009 43.6691C21.4483 43.0852 20.5897 42.6216 19.525 42.2781C18.4947 41.9347 17.0866 41.5569 15.3006 41.1447C12.553 40.4922 10.3034 39.8396 8.55186 39.1871C6.80028 38.5345 5.2891 37.487 4.01834 36.0445C2.78193 34.6021 2.16372 32.6787 2.16372 30.2746C2.16372 28.1796 2.73041 26.2906 3.86379 24.6077C4.99717 22.8905 6.69724 21.5338 8.964 20.5378C11.2651 19.5418 14.0642 19.0438 17.3613 19.0438C19.6624 19.0438 21.912 19.3186 24.1101 19.8681C26.3081 20.4176 28.2314 21.2076 29.88 22.2379L27.3041 28.5745C23.9727 26.6856 20.6412 25.7411 17.3098 25.7411C14.9743 25.7411 13.2399 26.1189 12.1066 26.8745C11.0075 27.6301 10.458 28.6261 10.458 29.8625C10.458 31.0989 11.0934 32.0262 12.3641 32.6444C13.6692 33.2283 15.6441 33.8121 18.2886 34.396C21.0362 35.0485 23.2858 35.7011 25.0374 36.3536C26.789 37.0062 28.283 38.0365 29.5194 39.4447C30.7901 40.8528 31.4255 42.7589 31.4255 45.1631C31.4255 47.2238 30.8417 49.1127 29.6739 50.83C28.5406 52.5129 26.8233 53.8523 24.5222 54.8483C22.2211 55.8443 19.422 56.3423 16.1249 56.3423ZM47.7408 27.5957C52.0339 27.5957 55.331 28.6261 57.6321 30.6867C59.9332 32.7131 61.0838 35.7869 61.0838 39.9083V55.7241H53.5622V52.2725C52.0511 54.8483 49.2348 56.1363 45.1134 56.1363C42.984 56.1363 41.1294 55.7756 39.5495 55.0544C38.004 54.3332 36.8191 53.3372 35.9949 52.0664C35.1706 50.7956 34.7584 49.3532 34.7584 47.7389C34.7584 45.1631 35.7201 43.1367 37.6434 41.6599C39.6011 40.1831 42.6062 39.4447 46.6589 39.4447H53.0471C53.0471 37.6931 52.5147 36.3536 51.45 35.4263C50.3853 34.4647 48.7883 33.9838 46.6589 33.9838C45.1821 33.9838 43.7224 34.2243 42.28 34.7051C40.8718 35.1516 39.6698 35.7698 38.6738 36.5597L35.7888 30.9443C37.3 29.8796 39.1031 29.0554 41.1981 28.4715C43.3275 27.8876 45.5084 27.5957 47.7408 27.5957ZM47.1226 50.7269C48.4964 50.7269 49.7156 50.4178 50.7803 49.7996C51.845 49.1471 52.6006 48.2026 53.0471 46.9662V44.1327H47.5347C44.2376 44.1327 42.5891 45.2146 42.5891 47.3783C42.5891 48.4087 42.984 49.2329 43.774 49.8512C44.5982 50.435 45.7144 50.7269 47.1226 50.7269ZM68.3573 17.4983H76.394V55.7241H68.3573V17.4983ZM111.002 41.969C111.002 42.0721 110.951 42.7933 110.848 44.1327H89.8803C90.2581 45.85 91.151 47.2066 92.5592 48.2026C93.9673 49.1986 95.7189 49.6966 97.8139 49.6966C99.2564 49.6966 100.527 49.4905 101.626 49.0784C102.76 48.6319 103.807 47.945 104.769 47.0177L109.045 51.6543C106.434 54.6423 102.622 56.1363 97.6079 56.1363C94.4825 56.1363 91.7177 55.5352 89.3136 54.3332C86.9094 53.0967 85.0548 51.3967 83.7497 49.2329C82.4446 47.0692 81.7921 44.6136 81.7921 41.866C81.7921 39.1527 82.4274 36.7143 83.6982 34.5505C85.0033 32.3525 86.7721 30.6524 89.0045 29.4503C91.2712 28.2139 93.7956 27.5957 96.5775 27.5957C99.2908 27.5957 101.746 28.1796 103.944 29.3473C106.143 30.515 107.86 32.1979 109.096 34.396C110.367 36.5597 111.002 39.0841 111.002 41.969ZM96.629 33.6747C94.8088 33.6747 93.2804 34.1899 92.044 35.2203C90.8076 36.2506 90.052 37.6587 89.7772 39.4447H103.429C103.155 37.6931 102.399 36.3021 101.163 35.2718C99.9261 34.2071 98.415 33.6747 96.629 33.6747ZM125.678 56.1363C123.376 56.1363 121.127 55.8615 118.929 55.312C116.731 54.7281 114.979 54.0069 113.674 53.1483L116.353 47.3783C117.589 48.1683 119.083 48.8208 120.835 49.336C122.586 49.8168 124.304 50.0572 125.987 50.0572C129.387 50.0572 131.087 49.2158 131.087 47.5329C131.087 46.7429 130.623 46.1763 129.696 45.8328C128.769 45.4894 127.343 45.1974 125.42 44.957C123.153 44.6136 121.281 44.2186 119.805 43.7721C118.328 43.3256 117.04 42.5357 115.941 41.4023C114.876 40.2689 114.344 38.6547 114.344 36.5597C114.344 34.8081 114.842 33.2626 115.838 31.9232C116.868 30.5494 118.345 29.4847 120.268 28.7291C122.226 27.9735 124.527 27.5957 127.172 27.5957C129.129 27.5957 131.07 27.8189 132.993 28.2654C134.951 28.6776 136.565 29.2614 137.836 30.017L135.157 35.7354C132.718 34.3616 130.056 33.6747 127.172 33.6747C125.454 33.6747 124.166 33.9152 123.308 34.396C122.449 34.8768 122.02 35.495 122.02 36.2506C122.02 37.1092 122.483 37.7103 123.411 38.0537C124.338 38.3972 125.815 38.7234 127.841 39.0325C130.108 39.4103 131.963 39.8225 133.405 40.2689C134.848 40.6811 136.101 41.4538 137.166 42.5872C138.231 43.7206 138.763 45.3005 138.763 47.3268C138.763 49.0441 138.248 50.5724 137.217 51.9118C136.187 53.2513 134.676 54.2988 132.684 55.0544C130.726 55.7756 128.391 56.1363 125.678 56.1363ZM170.768 36.9718C172.829 37.6244 174.443 38.7234 175.611 40.2689C176.778 41.7801 177.362 43.6519 177.362 45.8843C177.362 49.0441 176.126 51.4825 173.653 53.1998C171.214 54.8827 167.643 55.7241 162.937 55.7241H144.288V19.6621H161.907C166.303 19.6621 169.669 20.5035 172.004 22.1864C174.374 23.8693 175.559 26.1532 175.559 29.0382C175.559 30.7898 175.13 32.3525 174.271 33.7263C173.447 35.1001 172.279 36.1819 170.768 36.9718ZM152.582 25.9472V34.4475H160.877C162.937 34.4475 164.5 34.0869 165.565 33.3656C166.629 32.6444 167.162 31.5797 167.162 30.1716C167.162 28.7634 166.629 27.7159 165.565 27.029C164.5 26.3078 162.937 25.9472 160.877 25.9472H152.582ZM162.319 49.439C164.517 49.439 166.166 49.0784 167.265 48.3572C168.398 47.6359 168.965 46.5197 168.965 45.0085C168.965 42.0205 166.75 40.5265 162.319 40.5265H152.582V49.439H162.319ZM250.798 56.1363C248.497 56.1363 246.247 55.8615 244.049 55.312C241.851 54.7281 240.1 54.0069 238.794 53.1483L241.473 47.3783C242.71 48.1683 244.204 48.8208 245.955 49.336C247.707 49.8168 249.424 50.0572 251.107 50.0572C254.507 50.0572 256.207 49.2158 256.207 47.5329C256.207 46.7429 255.744 46.1763 254.816 45.8328C253.889 45.4894 252.464 45.1974 250.54 44.957C248.274 44.6136 246.402 44.2186 244.925 43.7721C243.448 43.3256 242.16 42.5357 241.061 41.4023C239.997 40.2689 239.464 38.6547 239.464 36.5597C239.464 34.8081 239.962 33.2626 240.958 31.9232C241.989 30.5494 243.465 29.4847 245.389 28.7291C247.346 27.9735 249.647 27.5957 252.292 27.5957C254.25 27.5957 256.19 27.8189 258.113 28.2654C260.071 28.6776 261.685 29.2614 262.956 30.017L260.277 35.7354C257.839 34.3616 255.177 33.6747 252.292 33.6747C250.575 33.6747 249.287 33.9152 248.428 34.396C247.57 34.8768 247.14 35.495 247.14 36.2506C247.14 37.1092 247.604 37.7103 248.531 38.0537C249.459 38.3972 250.935 38.7234 252.962 39.0325C255.228 39.4103 257.083 39.8225 258.526 40.2689C259.968 40.6811 261.222 41.4538 262.286 42.5872C263.351 43.7206 263.883 45.3005 263.883 47.3268C263.883 49.0441 263.368 50.5724 262.338 51.9118C261.308 53.2513 259.796 54.2988 257.804 55.0544C255.847 55.7756 253.511 56.1363 250.798 56.1363ZM286.718 54.3847C285.928 54.9685 284.95 55.415 283.782 55.7241C282.649 55.9989 281.446 56.1363 280.176 56.1363C276.879 56.1363 274.32 55.2948 272.5 53.6119C270.714 51.929 269.821 49.4562 269.821 46.1934V34.8081H265.545V28.6261H269.821V21.8773H277.857V28.6261H284.761V34.8081H277.857V46.0904C277.857 47.2581 278.149 48.1683 278.733 48.8208C279.351 49.439 280.21 49.7481 281.309 49.7481C282.58 49.7481 283.662 49.4047 284.555 48.7178L286.718 54.3847Z" fill="white"/>
<path d="M224.501 28.3964C227.248 28.3964 229.721 29.0375 231.919 30.3197C234.163 31.5561 235.926 33.2734 237.208 35.4714C238.49 37.6695 239.132 40.1423 239.132 42.8899C239.132 45.6375 238.49 48.1332 237.208 50.3771C235.926 52.5752 234.163 54.3153 231.919 55.5975C229.721 56.8797 227.248 57.5208 224.501 57.5208C221.02 57.5208 218.113 56.811 215.777 55.3914C213.442 53.9719 211.335 52.0257 209.458 49.5528C207.626 52.0257 205.519 53.9719 203.138 55.3914C200.803 56.811 197.895 57.5208 194.415 57.5208C191.667 57.5208 189.148 56.9026 186.859 55.6662C184.615 54.384 182.852 52.6439 181.57 50.4458C180.287 48.2019 179.646 45.7062 179.646 42.9586C179.646 40.211 180.287 37.7382 181.57 35.5401C182.852 33.2963 184.615 31.5561 186.859 30.3197C189.148 29.0375 191.667 28.3964 194.415 28.3964C197.895 28.3964 200.803 29.1062 203.138 30.5258C205.519 31.9454 207.626 33.8916 209.458 36.3644C211.335 33.8916 213.442 31.9454 215.777 30.5258C218.113 29.1062 221.02 28.3964 224.501 28.3964ZM195.17 49.8276C197.322 49.8276 199.131 49.2552 200.597 48.1103C202.062 46.9197 203.55 45.2025 205.062 42.9586C203.55 40.7148 202.062 39.0204 200.597 37.8756C199.131 36.685 197.322 36.0897 195.17 36.0897C193.201 36.0897 191.553 36.7537 190.225 38.0817C188.897 39.3639 188.233 40.9895 188.233 42.9586C188.233 44.9277 188.897 46.5763 190.225 47.9043C191.553 49.1865 193.201 49.8276 195.17 49.8276ZM223.676 49.8276C225.691 49.8276 227.34 49.1636 228.622 47.8356C229.95 46.5076 230.614 44.859 230.614 42.8899C230.614 40.9666 229.95 39.3639 228.622 38.0817C227.294 36.7537 225.646 36.0897 223.676 36.0897C221.524 36.0897 219.692 36.685 218.181 37.8756C216.716 39.0662 215.25 40.7606 213.785 42.9586C215.25 45.1567 216.716 46.851 218.181 48.0417C219.692 49.2323 221.524 49.8276 223.676 49.8276Z" fill="#F9A024"/>
</svg>
