<svg width="247" height="79" viewBox="0 0 247 79" fill="none" xmlns="http://www.w3.org/2000/svg">
<g clip-path="url(#clip0)">
<path fill-rule="evenodd" clip-rule="evenodd" d="M207.458 76.3242C207.737 76.3242 207.971 76.4066 208.172 76.5842C208.264 76.6609 208.338 76.7569 208.39 76.8653C208.441 76.9738 208.468 77.0922 208.468 77.2121C208.468 77.4579 208.359 77.6625 208.172 77.8401C207.976 78.0147 207.721 78.1077 207.458 78.1001C207.195 78.1076 206.94 78.0147 206.743 77.8401C206.649 77.7644 206.575 77.6686 206.524 77.5599C206.473 77.4512 206.447 77.3323 206.448 77.2121C206.448 76.9663 206.541 76.7475 206.743 76.5842C206.94 76.4096 207.195 76.3166 207.458 76.3242ZM219.501 71.7067L218.6 72.1982C217.806 71.2833 216.735 70.8329 215.368 70.8329C214.279 70.8329 213.363 71.1327 212.647 71.7479C211.933 72.3616 211.56 73.1004 211.56 73.9742C211.56 74.5482 211.73 75.081 212.058 75.5868C212.398 76.096 212.871 76.5023 213.425 76.7617C214.034 77.0416 214.698 77.1814 215.368 77.1709C216.688 77.1709 217.759 76.7205 218.6 75.8056L219.501 76.3242C219.081 76.8981 218.506 77.3215 217.791 77.6355C217.061 77.9495 216.238 78.1001 215.321 78.1001C213.907 78.1001 212.741 77.7165 211.808 76.9251C210.876 76.1323 210.41 75.1904 210.41 74.0552C210.41 73.305 210.628 72.5946 211.063 71.9525C211.505 71.289 212.124 70.7636 212.85 70.4365C213.611 70.0671 214.466 69.8895 215.414 69.8895C216.004 69.8895 216.579 69.9577 217.123 70.1225C217.621 70.245 218.094 70.4526 218.522 70.7363C218.909 70.9911 219.242 71.321 219.501 71.7067V71.7067ZM225.934 69.8895C227.301 69.8895 228.45 70.3129 229.352 71.1881C230.176 71.9937 230.58 72.9214 230.58 74.0154C230.58 75.1094 230.161 76.0642 229.291 76.8854C228.419 77.6895 227.301 78.1001 225.934 78.1001C224.566 78.1001 223.447 77.6909 222.577 76.8839C221.707 76.0642 221.272 75.108 221.272 74.014C221.272 72.9356 221.676 71.9937 222.499 71.2009C223.4 70.3271 224.551 69.8895 225.934 69.8895ZM225.934 70.8727C224.97 70.8727 224.163 71.1739 223.478 71.8019C222.78 72.417 222.437 73.1686 222.437 74.0424C222.437 74.6022 222.608 75.1222 222.919 75.6138C223.224 76.1025 223.661 76.4954 224.178 76.7475C224.725 77.0133 225.326 77.1489 225.934 77.1439C226.57 77.1439 227.145 77.0075 227.674 76.7475C228.196 76.4963 228.637 76.1035 228.948 75.6138C229.252 75.1466 229.414 74.6005 229.414 74.0424C229.414 73.1686 229.072 72.417 228.374 71.8019C227.689 71.1739 226.882 70.8727 225.934 70.8727V70.8727ZM232.693 70.0813H233.843V71.4339C234.247 70.9281 234.651 70.5587 235.07 70.3399C235.636 70.0431 236.265 69.8886 236.904 69.8895C237.339 69.8895 237.743 69.9577 238.131 70.1083C238.484 70.2353 238.807 70.4352 239.079 70.6951C239.363 71.0017 239.581 71.3647 239.717 71.7607C240.069 71.1836 240.561 70.7047 241.146 70.3683C241.71 70.0483 242.348 69.8832 242.995 69.8895C243.617 69.8895 244.16 70.0259 244.626 70.3001C245.088 70.5587 245.457 70.955 245.683 71.4339C245.917 71.9255 246.025 72.6628 246.025 73.646V77.9083H244.86V73.6318C244.86 72.7992 244.782 72.2252 244.642 71.9127C244.507 71.5822 244.259 71.3103 243.943 71.1455C243.617 70.9551 243.228 70.8599 242.762 70.8599C242.219 70.8599 241.706 70.9963 241.255 71.2961C240.805 71.5611 240.451 71.9633 240.245 72.444C240.027 72.9228 239.919 73.7284 239.919 74.8494V77.9083H238.784V73.906C238.784 72.964 238.706 72.3219 238.583 71.9795C238.443 71.6383 238.198 71.3511 237.883 71.1597C237.52 70.9503 237.106 70.8465 236.687 70.8599C236.159 70.8599 235.661 70.9963 235.195 71.2833C234.746 71.5483 234.389 71.9437 234.169 72.417C233.952 72.8816 233.843 73.619 233.843 74.5894V77.9083H232.693V70.0799V70.0813ZM169.492 24.4492C178.062 24.4492 185.246 30.3539 187.136 38.2675C187.271 38.6422 187.34 39.0372 187.342 39.4354C187.342 41.3208 185.782 42.8623 183.876 42.8623C181.953 42.8623 180.645 41.3051 180.394 39.4354C179.733 34.2638 173.713 31.1481 169.492 31.1481C163.207 31.1481 158.134 36.179 158.134 42.3792C158.134 48.5809 163.207 53.6118 169.492 53.6118C180.299 53.6118 178.598 43.6892 183.371 43.6892C185.293 43.6892 186.853 45.2307 186.853 47.1161C186.808 47.6752 186.67 48.2228 186.443 48.7357C183.843 55.4972 177.227 60.3107 169.492 60.3107C159.473 60.3107 151.359 52.2876 151.359 42.3806C151.359 34.0763 150.492 17.1734 150.492 8.68436C150.492 7.79638 151.218 7.0789 152.099 7.0789H152.776C153.659 7.0789 153.659 7.79638 153.723 8.68436L155.062 31.5217C155.253 31.271 155.452 31.0269 155.66 30.79L154.73 4.81988C154.699 3.88502 155.503 3.12207 156.448 3.12207C157.377 3.12207 158.118 3.88502 158.15 4.81988L159.095 27.6899C159.236 27.5962 159.394 27.4868 159.551 27.3774V1.79791C159.551 0.863049 160.323 0.100098 161.268 0.100098C162.213 0.100098 162.986 0.863049 162.986 1.79791V25.6483C165.062 24.8499 167.268 24.4433 169.492 24.4492V24.4492ZM225.819 23.8794C226.906 23.8794 228.816 23.8951 230.135 23.8951V12.3471C230.14 11.276 230.567 10.2502 231.323 9.4939C232.08 8.73757 233.104 8.31219 234.172 8.3107C235.241 8.30957 236.266 8.73391 237.023 9.49049C237.78 10.2471 238.207 11.274 238.209 12.3457H238.224V23.8951C239.793 23.8951 241.159 23.8482 242.509 23.8482C244.839 24.0045 246.128 25.5872 246.019 27.7439C245.91 29.8864 244.591 31.1126 242.774 31.2532L238.224 31.2674V56.5855H238.193C238.115 57.6003 237.657 58.5479 236.911 59.2387C236.166 59.9294 235.187 60.3123 234.172 60.3107C233.156 60.31 232.177 59.9267 231.43 59.2368C230.682 58.5469 230.22 57.6007 230.135 56.5855V31.2688L225.337 31.2532C224.065 31.2532 222.372 29.9177 222.309 27.7752C222.247 25.6341 223.893 23.9249 225.819 23.8794ZM20.2897 23.8652H20.8041C20.9741 23.8794 21.1442 23.8794 21.3156 23.8951C21.4856 23.8951 21.6571 23.9093 21.8285 23.9263C21.9986 23.9405 22.1686 23.9405 22.3245 23.9732L22.8374 24.0187C22.9933 24.0499 23.1633 24.0656 23.3334 24.0968C23.4892 24.1124 23.6593 24.1437 23.8151 24.175L24.3125 24.2673C24.6384 24.3298 24.9501 24.408 25.276 24.4847L25.7408 24.6253C25.9108 24.6552 26.0667 24.7177 26.2225 24.7646L26.6887 24.9038C26.8446 24.9663 26.999 25.0132 27.1379 25.0743C27.2937 25.1212 27.4496 25.1837 27.6041 25.2448C28.0546 25.4153 28.4896 25.6185 28.9388 25.8202C29.3738 26.0376 29.7932 26.2706 30.2127 26.5022C31.3236 27.1367 32.3688 27.8806 33.3328 28.7228L33.6913 29.0326C33.8146 29.142 33.9237 29.2499 34.0484 29.3593C34.3884 29.6861 34.7143 30.0413 35.0402 30.3823C35.2584 30.6323 35.4611 30.8653 35.6637 31.1126C35.9717 31.4799 36.2666 31.858 36.5479 32.2463C36.6414 32.3856 36.7179 32.5106 36.8114 32.6498C36.9049 32.7734 36.997 32.9141 37.075 33.0377V33.0533C37.34 33.4568 37.5879 33.8603 37.8203 34.2794V34.2951C37.8826 34.4343 37.9606 34.575 38.0385 34.7142C38.1164 34.8534 38.1774 34.9941 38.2553 35.149C38.3176 35.2882 38.3956 35.4431 38.4579 35.5837C38.5189 35.74 38.5968 35.8778 38.6591 36.0341C38.7838 36.3282 38.8915 36.6237 39.0162 36.9334C39.063 37.0897 39.1253 37.2446 39.1721 37.3994C39.2188 37.5557 39.2798 37.695 39.3279 37.8655L39.4668 38.3315C39.5136 38.4863 39.5447 38.6412 39.5915 38.7961C39.6368 38.9665 39.668 39.1228 39.7148 39.2791L39.8083 39.775C39.8395 39.9298 39.8706 40.0847 39.9018 40.2552C39.933 40.4257 39.9642 40.582 39.9939 40.7525C40.0095 40.9087 40.0407 41.0792 40.0563 41.2497C40.0718 41.4046 40.103 41.5751 40.1186 41.747L40.1654 42.2428C40.1795 42.4133 40.1795 42.5838 40.1965 42.7543C40.1965 42.9248 40.2107 43.0953 40.2107 43.2658V43.7787C40.2107 47.9856 40.0563 49.0568 39.9471 53.3561H39.933V53.6672C39.9018 55.0638 39.8706 55.9333 39.855 57.3299C39.2953 59.2551 37.4944 59.9228 35.8805 59.9228C35.2153 59.9233 34.5606 59.7556 33.9772 59.4353C33.3937 59.1149 32.9001 58.6523 32.5421 58.0901C32.4097 57.7977 32.3406 57.4805 32.3395 57.1594C32.3083 56.1038 32.2928 55.0326 32.2616 53.9769L32.2474 43.9961V43.7787C32.2474 41.5282 29.8244 35.4743 26.2381 33.4256C26.1602 33.3631 26.0681 33.3176 25.9887 33.2693C25.9122 33.2238 25.8187 33.1926 25.7408 33.1457C25.6472 33.1002 25.5551 33.0533 25.4772 33.0064C25.3837 32.9752 25.3072 32.9297 25.2122 32.8985C25.1201 32.8516 25.0422 32.8047 24.9487 32.7734C24.8552 32.7422 24.7631 32.6967 24.6695 32.6655C24.5916 32.6342 24.4995 32.5873 24.406 32.5561L24.1268 32.4637L23.8463 32.3699C23.7528 32.3387 23.6607 32.3088 23.5671 32.2932C23.4736 32.262 23.3815 32.2307 23.288 32.2151C23.1789 32.1838 23.0854 32.1682 22.9933 32.1369C22.8998 32.1227 22.8062 32.0915 22.6971 32.0758C22.605 32.0602 22.5115 32.0446 22.4024 32.029C22.3063 31.9992 22.2076 31.9783 22.1077 31.9664C22.0142 31.9522 21.9221 31.9522 21.813 31.9352C21.7194 31.921 21.6103 31.9039 21.5182 31.9039C21.4091 31.8897 21.3156 31.8741 21.2065 31.8741C21.1144 31.8585 21.0053 31.8585 20.9118 31.8585C20.8041 31.8428 20.7106 31.8428 20.6015 31.8428H19.9808C19.8873 31.8428 19.7782 31.8428 19.6847 31.857C19.577 31.857 19.4835 31.857 19.3744 31.8741C19.2667 31.8741 19.1732 31.8883 19.0797 31.9053C18.972 31.9053 18.8784 31.9196 18.7693 31.9352C18.6758 31.9508 18.5681 31.9508 18.4746 31.9664C18.3811 31.9821 18.272 31.9977 18.1799 32.029L17.8837 32.0758C17.7916 32.1071 17.6981 32.1213 17.589 32.1369C17.4955 32.1682 17.4034 32.1838 17.3099 32.2151C17.2164 32.2293 17.1243 32.262 17.0307 32.2932C16.9216 32.3245 16.8281 32.3387 16.736 32.3699L16.4555 32.4637C16.3633 32.495 16.2698 32.5262 16.1919 32.5561C16.0984 32.5873 16.0063 32.6342 15.9128 32.6655C15.8192 32.6967 15.7257 32.7422 15.6492 32.7734C15.5557 32.8047 15.4622 32.8516 15.3842 32.8985H15.3701C15.2921 32.9297 15.1986 32.9752 15.1207 33.0064C15.0272 33.0533 14.9351 33.1002 14.8571 33.1457C14.7636 33.1926 14.6871 33.2238 14.5922 33.2707C14.5156 33.3176 14.4363 33.3645 14.3442 33.427C12.5479 34.4543 11.0501 35.9339 9.99887 37.7195C8.94767 39.5051 8.37948 41.5349 8.35047 43.6082V43.8256L8.36606 57.2845C8.36606 58.8672 6.456 60.1544 4.53178 60.109C2.97879 60.0777 0.789597 59.1002 0.758424 57.1594C0.649318 51.5886 0.370178 49.2117 0.370178 43.7787V43.2672C0.385765 43.0967 0.385765 42.9262 0.401351 42.7557C0.401351 42.5852 0.415521 42.4133 0.432524 42.2428L0.479284 41.7456C0.493453 41.5751 0.510457 41.4046 0.526043 41.2483C0.555799 41.0778 0.571386 40.9073 0.602559 40.7525C0.618145 40.582 0.649318 40.4257 0.680491 40.2552C0.741989 39.9281 0.809542 39.6022 0.883116 39.2777C0.914289 39.1214 0.959632 38.968 0.990805 38.7961L1.13108 38.3315L1.27136 37.8655L1.41022 37.3994C1.47257 37.2432 1.51933 37.0897 1.58026 36.9334C1.68936 36.6237 1.81406 36.3282 1.93875 36.0341C2.00109 35.8778 2.06202 35.7386 2.12437 35.5837C2.2023 35.4431 2.26465 35.2882 2.34258 35.149C2.40351 34.9927 2.48144 34.8534 2.54379 34.7142L2.77617 34.2951V34.2809C3.00997 33.8603 3.24376 33.4568 3.5059 33.0533V33.0391C3.59942 32.9141 3.67735 32.7734 3.77087 32.6498C3.86439 32.5106 3.95649 32.3856 4.05001 32.2463C4.32915 31.8585 4.60829 31.4862 4.92002 31.1126C5.12123 30.8639 5.33944 30.6323 5.54065 30.3837C5.86655 30.0427 6.20803 29.7017 6.54952 29.3593C6.65862 29.2499 6.78332 29.142 6.89101 29.0326C7.0157 28.9246 7.14039 28.8308 7.24808 28.7228C8.21802 27.8876 9.263 27.1442 10.3696 26.5022C10.789 26.2706 11.2241 26.0376 11.6591 25.8202C12.0926 25.6185 12.5432 25.4167 12.9938 25.2462C13.1327 25.1837 13.2886 25.1212 13.443 25.0757C13.5989 25.0132 13.7547 24.9663 13.9106 24.9052L14.3754 24.7632C14.5312 24.7177 14.6871 24.6552 14.8415 24.6253C14.9974 24.5785 15.1519 24.5316 15.3233 24.4847C15.6336 24.408 15.9595 24.3284 16.2854 24.2673L16.7672 24.175C16.9372 24.1437 17.0931 24.1124 17.2631 24.0968C17.419 24.0656 17.589 24.0499 17.7591 24.0187L18.2564 23.9732C18.4279 23.942 18.5993 23.942 18.7538 23.9263C18.9238 23.9107 19.0952 23.8951 19.2667 23.8951C19.4367 23.8809 19.6068 23.8809 19.7782 23.8638H20.2911L20.2897 23.8652ZM60.4122 23.5527C70.4584 23.5527 78.5946 31.688 78.5946 41.7143C78.5946 47.4897 78.2219 53.4811 78.2219 59.3787H74.603C73.7634 59.3778 72.95 59.0849 72.3017 58.5498C71.6534 58.0148 71.2102 57.2708 71.0479 56.4448C67.9565 58.6948 64.2321 59.9018 60.4122 59.8916C50.3816 59.8916 42.2469 51.7577 42.2469 41.7143C42.2469 31.688 50.3816 23.5541 60.4122 23.5541V23.5527ZM60.4122 30.8185C66.4371 30.8185 71.3114 35.7073 71.3114 41.7157C71.3114 47.7369 66.4371 52.6116 60.4122 52.6116C54.3873 52.6116 49.513 47.7384 49.513 41.7143C49.513 35.7073 54.3873 30.817 60.4122 30.817V30.8185ZM89.0276 33.2238L89.0588 56.0115C89.0525 57.0324 88.6445 58.0095 87.9236 58.7305C87.2027 59.4515 86.2271 59.858 85.2089 59.8617H81.3577V29.0937C81.3577 28.271 81.7303 27.2609 82.2588 26.4226C82.3509 26.5022 82.4289 26.5647 82.5068 26.6258C84.6039 28.0068 87.5838 28.97 89.0276 33.2224V33.2238ZM91.8545 41.3108C91.8545 31.5644 99.7568 23.6791 109.508 23.6791V23.7402C109.632 23.7246 108.856 23.709 109.897 23.709C110.937 23.709 113.436 25.2917 113.436 27.2467C113.436 29.2045 110.968 30.7716 109.897 30.7716C108.824 30.7716 109.524 30.7559 109.337 30.7403C104.275 30.8185 100.084 36.6081 99.1206 40.0378C98.9636 40.5979 98.9004 41.1803 98.9336 41.7612L98.9803 56.8796C98.9803 58.836 97.382 59.9854 95.4238 59.9854H91.8686C91.8686 54.2725 91.8545 47.0237 91.8545 41.3108V41.3108ZM129.988 23.6791C140.018 23.6791 148.154 31.8116 148.154 41.8393C148.154 47.6133 147.797 53.5891 147.797 59.5037H144.178C143.339 59.5001 142.527 59.2062 141.88 58.6717C141.232 58.1371 140.788 57.3946 140.623 56.5698C137.527 58.8104 133.806 60.016 129.988 60.0152C119.941 60.0152 111.805 51.8671 111.805 41.8393C111.805 31.8116 119.941 23.6777 129.988 23.6777V23.6791ZM129.988 30.9421C135.995 30.9421 140.887 35.8153 140.887 41.8393C140.887 47.862 135.997 52.7366 129.988 52.7366C123.963 52.7366 119.088 47.862 119.088 41.8393C119.088 35.8153 123.963 30.9421 129.988 30.9421V30.9421ZM208.786 24.0656C218.676 24.0656 226.688 32.0758 226.688 41.9629C226.688 42.5838 226.658 43.1891 226.596 43.7957H198.181C198.615 46.2983 199.918 48.5664 201.858 50.1994C203.799 51.8323 206.253 52.725 208.786 52.7196C210.389 52.7237 211.973 52.3676 213.421 51.6774C214.869 50.9873 216.145 49.9807 217.154 48.7315C220.399 47.396 223.614 50.7802 221.813 54.2412C220.14 56.0202 218.12 57.4366 215.88 58.403C213.639 59.3695 211.225 59.8654 208.786 59.8603C198.895 59.8603 190.884 51.8515 190.884 41.9629C190.884 32.0744 198.895 24.0656 208.786 24.0656V24.0656ZM218.444 37.1821C217.549 35.3819 216.171 33.8676 214.465 32.8092C212.759 31.7509 210.792 31.1904 208.786 31.1907C206.781 31.1887 204.816 31.7487 203.112 32.8074C201.409 33.8661 200.034 35.3813 199.143 37.1821H218.444Z" fill="#013BE5"/>
<path fill-rule="evenodd" clip-rule="evenodd" d="M89.0786 32.9429L89.0064 26.5807C88.9922 25.3177 88.5813 23.9481 87.9932 22.8228C87.2593 21.3921 86.1002 20.4331 84.7342 19.5508C83.3711 18.6827 81.7416 18.3019 80.89 16.5217L80.9496 22.1224C80.9779 24.0546 81.9768 25.7283 82.8865 26.3676C84.8816 27.7372 87.7283 28.6806 89.0786 32.9429Z" fill="#F58634"/>
</g>
<defs>
<clipPath id="clip0">
<rect width="245.7" height="78" fill="white" transform="translate(0.370178 0.100098)"/>
</clipPath>
</defs>
</svg>
