<svg width="413" height="78" viewBox="0 0 413 78" fill="none" xmlns="http://www.w3.org/2000/svg">
<g clip-path="url(#clip0)">
<path d="M110.337 63.2552V78.0002H101.05V29.9991H110.337V32.2956C113.102 30.5049 116.324 29.5387 119.623 29.511C130.168 29.511 137.922 37.8597 137.922 47.8062C137.922 57.7527 130.24 66.1014 119.623 66.1014C116.31 66.1069 113.073 65.1147 110.337 63.2552V63.2552ZM110.337 43.4289V51.9163C111.069 53.4696 112.208 54.7981 113.633 55.7628C115.058 56.7276 116.717 57.2931 118.437 57.4001C120.157 57.5071 121.874 57.1517 123.408 56.3711C124.943 55.5905 126.238 54.4134 127.159 52.963C128.08 51.5127 128.593 49.8424 128.643 48.1271C128.694 46.4119 128.28 44.7146 127.446 43.2131C126.612 41.7117 125.387 40.4611 123.901 39.5925C122.415 38.7239 120.722 38.2691 118.999 38.2758C117.217 38.2508 115.464 38.7194 113.934 39.6294C112.404 40.5394 111.159 41.8548 110.337 43.4289V43.4289Z" fill="#083E9E"/>
<path d="M142.952 20.3242C142.922 19.6242 143.036 18.9254 143.286 18.2708C143.537 17.6162 143.92 17.0195 144.411 16.5176C144.902 16.0157 145.491 15.6191 146.141 15.3522C146.792 15.0853 147.49 14.9538 148.194 14.9656C148.907 14.9533 149.615 15.083 150.278 15.3471C150.94 15.6112 151.542 16.0044 152.05 16.5035C152.557 17.0027 152.959 17.5978 153.233 18.2539C153.506 18.91 153.645 19.6139 153.642 20.3242C153.627 21.7528 153.046 23.1178 152.026 24.1222C151.006 25.1267 149.628 25.6894 148.194 25.688C147.494 25.6847 146.802 25.5427 146.158 25.2702C145.514 24.9977 144.931 24.6002 144.443 24.1009C143.955 23.6015 143.572 23.0104 143.316 22.362C143.06 21.7135 142.936 21.0208 142.952 20.3242ZM143.514 29.9984H152.945V65.5459H143.514V29.9984Z" fill="#083E9E"/>
<path d="M158.527 47.6722C158.508 45.2797 158.97 42.9075 159.885 40.6952C160.8 38.4829 162.15 36.475 163.855 34.7897C165.56 33.1043 167.587 31.7755 169.815 30.8812C172.044 29.987 174.429 29.5454 176.832 29.5825C180.116 29.5841 183.349 30.3961 186.242 31.9458V29.9986H195.466V63.527C195.466 72.7748 187.428 77.7892 177.373 77.7892C170.806 77.7892 164.517 75.842 160.395 72.6515L164.238 66.0445C168.156 68.5438 172.721 69.8491 177.373 69.8001C183.869 69.8001 185.896 67.2313 186.175 63.0544C183.377 64.8366 180.132 65.7998 176.811 65.8338C166.121 65.8236 158.527 57.8962 158.527 47.6722ZM186.242 51.6333V43.7059C185.461 42.0518 184.227 40.6512 182.682 39.6658C181.136 38.6804 179.343 38.1503 177.507 38.1367C176.24 38.1245 174.983 38.3618 173.808 38.8351C172.634 39.3083 171.564 40.0081 170.662 40.8942C169.76 41.7804 169.042 42.8353 168.551 43.9985C168.059 45.1617 167.803 46.4102 167.798 47.6722C167.798 53.1644 171.987 56.9919 177.44 56.9919C179.27 57.0394 181.075 56.5588 182.636 55.608C184.198 54.6572 185.45 53.2768 186.242 51.6333V51.6333Z" fill="#083E9E"/>
<path d="M201.064 47.6722C201.045 45.2797 201.506 42.9075 202.421 40.6952C203.336 38.4829 204.686 36.475 206.392 34.7897C208.097 33.1043 210.123 31.7755 212.352 30.8812C214.58 29.987 216.966 29.5454 219.368 29.5825C222.66 29.5814 225.9 30.3934 228.799 31.9458V29.9986H238.018V63.527C238.018 72.7748 229.985 77.7892 219.93 77.7892C213.363 77.7892 207.074 75.842 202.952 72.6515L206.795 66.0445C210.713 68.5446 215.278 69.85 219.93 69.8001C226.426 69.8001 228.453 67.2313 228.732 63.0544C225.933 64.8359 222.689 65.7989 219.368 65.8338C208.678 65.8236 201.064 57.8962 201.064 47.6722ZM228.799 51.6333V43.7059C228.018 42.0522 226.784 40.652 225.238 39.6666C223.693 38.6812 221.899 38.1509 220.065 38.1367C218.797 38.1245 217.54 38.3618 216.365 38.8351C215.191 39.3083 214.121 40.0081 213.219 40.8942C212.317 41.7804 211.599 42.8353 211.108 43.9985C210.616 45.1617 210.361 46.4102 210.355 47.6722C210.355 53.1644 214.544 56.9919 219.997 56.9919C221.827 57.0388 223.631 56.5579 225.193 55.6071C226.754 54.6564 228.007 53.2764 228.799 51.6333Z" fill="#083E9E"/>
<path d="M251.566 29.9993L260.929 53.7199L270.567 29.9993H280.369L259.81 78.0005H251.081L256.24 65.2025L241.232 29.9993H251.566Z" fill="#083E9E"/>
<path d="M278.589 29.9993H288.577L297.677 54.0024L306.69 29.9993H316.492L302.171 65.5468H292.776L278.589 29.9993Z" fill="#083E9E"/>
<path d="M317.153 47.5291C317.153 37.5158 324.345 29.2339 335.591 29.2339C346.002 29.2339 353.911 37.0277 354.102 47.2671C354.174 48.1476 354.174 49.0325 354.102 49.913H325.954C326.233 54.9222 331.051 58.1898 336.221 58.1898C340.482 58.1898 342.994 57.0081 345.93 54.5934L351.032 59.952C346.905 64.2625 342.778 66.2816 336.221 66.2816C324.138 66.2456 317.153 57.2701 317.153 47.5291ZM326.439 43.2854H344.465C343.557 39.9511 340.338 37.0277 335.452 37.0277C329.792 37.0277 327.419 39.8791 326.439 43.2854Z" fill="#083E9E"/>
<path d="M356.052 61.7236L360.618 54.3459C364.716 57.066 369.52 58.5405 374.444 58.5897C379.129 58.5897 381.502 57.408 381.502 55.394C381.502 54.0685 380.382 53.0975 378.009 52.6094L368.207 50.5235C361.015 48.9822 357.729 45.5862 357.729 40.0221C357.729 34.1087 362.759 29.1663 373.17 29.1663C379.454 29.1663 385.036 30.9799 388.884 33.3432L384.623 40.4383C381.481 38.7686 377.292 36.9601 372.886 36.9601C368.908 36.9601 366.602 37.9362 366.602 39.7396C366.602 40.9264 367.443 41.6919 369.744 42.108L377.999 43.6493C386.939 45.3859 390.38 49.3521 390.38 54.7107C390.38 62.4172 382.642 66.4657 374.171 66.4657C367.807 66.5882 361.533 64.9464 356.052 61.7236V61.7236Z" fill="#083E9E"/>
<path d="M392.238 29.999H397.546V20.1912L406.833 14.2109V29.999H412.281V38.0702H406.838V65.5516H397.551V38.0702H392.232V29.999H392.238Z" fill="#083E9E"/>
<path d="M77.7985 35.7162C77.6436 33.4597 77.2721 31.2232 76.6893 29.0372C74.0324 19.2757 68.4348 11.5949 59.9018 6.11297C54.527 2.63195 48.3534 0.565538 41.9586 0.107044C39.2719 -0.0883789 36.5724 -0.0160928 33.9001 0.322825C31.0849 0.693895 28.3177 1.36389 25.6457 2.32138C18.5303 4.87735 12.3204 9.44868 7.77959 15.4731C3.2388 21.4975 0.565219 28.7123 0.0877039 36.23C0 37.612 0 39.0043 0 40.3915V74.1151C0 74.9912 0.349497 75.8315 0.971606 76.451C1.59372 77.0705 2.43748 77.4186 3.31727 77.4186H16.4006C17.2194 77.4136 18.0078 77.1095 18.6164 76.564C19.225 76.0186 19.6115 75.2696 19.7024 74.4593V74.4593C19.7885 74.1426 19.8336 73.8163 19.8366 73.4883V72.7074C19.8288 72.6477 19.8288 72.5872 19.8366 72.5275V72.4402C19.9258 72.4638 20.0098 72.5039 20.0842 72.5584C24.978 75.2533 30.3978 76.8655 35.9741 77.285C38.2076 77.4495 40.4511 77.4272 42.6808 77.2182C47.93 76.7368 53.0245 75.1903 57.6507 72.6738C62.2769 70.1574 66.3367 66.7243 69.5801 62.5862C74.2033 56.7947 77.0322 49.7875 77.7211 42.4208C77.9545 40.1931 77.9804 37.9487 77.7985 35.7162V35.7162ZM45.9156 57.2635C45.8925 57.3823 45.8281 57.4891 45.7338 57.5652C45.6394 57.6414 45.5211 57.6819 45.3997 57.6797H32.502C32.3806 57.6819 32.2623 57.6414 32.1679 57.5652C32.0736 57.4891 32.0092 57.3823 31.9861 57.2635V57.1813V56.7035C31.9833 56.114 32.0491 55.5261 32.1822 54.9516C32.2647 54.7564 32.3163 54.5252 32.3988 54.3094C32.4814 54.0936 32.5639 53.8932 32.6465 53.6826C32.729 53.4719 32.8632 53.2819 32.9767 53.102L33.1624 52.8246C33.2837 52.6451 33.4163 52.4735 33.5596 52.3108C33.7093 52.1259 33.8589 51.9666 34.0085 51.7971C34.7847 51.0369 35.7279 50.467 36.7634 50.1325C35.8713 49.6487 35.1662 48.8832 34.7592 47.9564C34.3521 47.0297 34.2662 45.9944 34.5151 45.0137C34.764 44.033 35.3334 43.1626 36.1337 42.5397C36.934 41.9168 37.9196 41.5767 38.9354 41.5731C40.1481 41.5823 41.3091 42.0635 42.1701 42.9141C42.6685 43.4136 43.0438 44.0215 43.2664 44.6899C43.4889 45.3584 43.5527 46.0691 43.4527 46.7663C43.3527 47.4634 43.0916 48.128 42.69 48.7076C42.2884 49.2873 41.7572 49.7662 41.1383 50.1068C42.5314 50.5641 43.7437 51.4484 44.6018 52.6332C45.4598 53.8181 45.9197 55.2427 45.9156 56.7035C45.9156 56.8885 45.9156 57.0889 45.9156 57.2635ZM68.1511 29.2838H9.77125C9.66182 29.2831 9.55413 29.2565 9.45704 29.2062C9.35995 29.1559 9.27623 29.0834 9.21276 28.9947C9.1493 28.9059 9.10791 28.8034 9.09199 28.6955C9.07607 28.5877 9.08609 28.4777 9.12121 28.3745C11.2995 22.2267 15.3391 16.9032 20.683 13.1377C26.027 9.37218 32.4122 7.35006 38.9586 7.35006C45.505 7.35006 51.8902 9.37218 57.2341 13.1377C62.5781 16.9032 66.6176 22.2267 68.796 28.3745C68.831 28.4773 68.841 28.5869 68.8254 28.6943C68.8097 28.8017 68.7688 28.9039 68.7059 28.9926C68.643 29.0813 68.56 29.1539 68.4636 29.2045C68.3672 29.2551 68.2601 29.2823 68.1511 29.2838V29.2838Z" fill="#083E9E"/>
</g>
<defs>
<clipPath id="clip0">
<rect width="412.286" height="78" fill="white"/>
</clipPath>
</defs>
</svg>
