<svg width="103" height="103" viewBox="0 0 103 103" fill="none" xmlns="http://www.w3.org/2000/svg">
<circle cx="51.5" cy="51.5" r="51.5" fill="#3DA9FC" fill-opacity="0.2"/>
<circle cx="50.6271" cy="50.6272" r="43.6441" fill="white"/>
<path d="M63.5039 51.3534L45.0005 63.6889C44.8691 63.7764 44.7164 63.8266 44.5587 63.8341C44.401 63.8417 44.2441 63.8063 44.105 63.7318C43.9658 63.6572 43.8494 63.5463 43.7682 63.4109C43.6871 63.2755 43.6442 63.1206 43.6441 62.9627V38.2916C43.6442 38.1337 43.6871 37.9788 43.7682 37.8433C43.8494 37.7079 43.9658 37.597 44.105 37.5225C44.2441 37.448 44.401 37.4126 44.5587 37.4201C44.7164 37.4277 44.8691 37.4779 45.0005 37.5653L63.5039 49.9009C63.6234 49.9806 63.7214 50.0886 63.7892 50.2153C63.857 50.342 63.8925 50.4834 63.8925 50.6271C63.8925 50.7708 63.857 50.9123 63.7892 51.039C63.7214 51.1656 63.6234 51.2736 63.5039 51.3534V51.3534Z" fill="#1E326C"/>
</svg>
