<svg width="305" height="78" viewBox="0 0 305 78" fill="none" xmlns="http://www.w3.org/2000/svg">
<g clip-path="url(#clip0)">
<path fill-rule="evenodd" clip-rule="evenodd" d="M258.809 77.6593C256.173 76.9555 279.845 47.4211 275.898 35.4627C273.929 29.1392 254.209 29.843 254.209 27.7292C254.209 25.6178 292.354 20.0031 295.948 25.2697C301.552 32.6657 262.096 79.0669 258.809 77.6593ZM304.821 9.44814C304.821 14.5015 300.998 18.5889 296.276 18.5889C291.559 18.5889 287.732 14.5015 287.732 9.44814C287.732 4.39737 291.559 0.309532 296.276 0.309532C300.998 0.309532 304.821 4.39737 304.821 9.44814Z" fill="#ED342B"/>
<path fill-rule="evenodd" clip-rule="evenodd" d="M17.8012 33.514C12.3825 33.514 7.98911 37.9035 7.98911 43.3193C7.98911 48.7342 12.3825 53.1238 17.8012 53.1238C23.2199 53.1238 27.6133 48.7342 27.6133 43.3193C27.6133 37.9035 23.2199 33.514 17.8012 33.514ZM30.3865 60.8691L26.936 57.4193C24.3054 59.1253 21.1699 60.1186 17.8012 60.1186C8.51625 60.1186 0.989014 52.5974 0.989014 43.3193C0.989014 34.0399 8.51625 26.5187 17.8012 26.5187C27.0858 26.5187 34.613 34.0399 34.613 43.3193C34.613 46.7944 33.5562 50.0238 31.747 52.704L35.9191 56.8732L30.3865 60.8691ZM243.819 40.4162L244.826 35.0506C244.826 35.0506 237.051 32.6923 230.731 37.0625V58.5258H237.443L237.442 41.0872C240.127 39.0744 243.819 40.4162 243.819 40.4162ZM77.2044 46.6915C77.2044 44.9805 77.4819 43.3678 78.0373 41.8523C78.5935 40.3373 79.3965 39.017 80.4474 37.8913C81.4988 36.7653 82.7745 35.8727 84.2771 35.2123C85.7784 34.5528 87.4902 34.2216 89.4123 34.2216C90.6729 34.2216 91.8296 34.3345 92.8805 34.5595C93.9315 34.7845 94.9537 35.107 95.9439 35.528L94.548 40.8847C93.9171 40.6441 93.2255 40.4338 92.4757 40.2547C91.7242 40.0739 90.8828 39.9841 89.9525 39.9841C87.97 39.9841 86.4911 40.599 85.5156 41.83C84.5398 43.0609 84.0518 44.6809 84.0518 46.6915C84.0518 48.8223 84.5098 50.473 85.4254 51.6429C86.3414 52.8136 87.9401 53.399 90.2229 53.399C91.0334 53.399 91.9047 53.3243 92.8358 53.1739C93.7662 53.0231 94.6222 52.7841 95.4037 52.4537L96.3496 57.9449C95.5682 58.2757 94.5923 58.5598 93.4207 58.7999C92.2496 59.0406 90.9579 59.1603 89.5469 59.1603C87.3847 59.1603 85.5232 58.8379 83.962 58.1931C82.4 57.5483 81.1159 56.6697 80.1105 55.5596C79.1026 54.4492 78.3684 53.1364 77.9028 51.6205C77.4372 50.1051 77.2044 48.462 77.2044 46.6915ZM158.72 38.9999C154.358 38.9999 154.021 43.6946 154.021 43.6946H163.418C163.418 43.6946 163.083 38.9999 158.72 38.9999ZM169.124 48.3902L154.021 48.3902C154.021 48.3902 154.358 53.4215 161.07 53.4215C164.424 53.4215 167.782 52.4147 167.782 52.4147L168.452 57.7803C168.452 57.7803 165.096 59.1213 160.398 59.1213C153.686 59.1213 147.645 55.7676 147.645 46.3783C147.645 38.9999 152.343 34.3053 159.055 34.3053C169.124 34.3053 169.795 44.3655 169.124 48.3902ZM215.074 38.9999C210.711 38.9999 210.376 43.6946 210.376 43.6946H219.773C219.773 43.6946 219.437 38.9999 215.074 38.9999ZM225.478 48.3902H210.376C210.376 48.3902 210.711 53.4215 217.423 53.4215C220.779 53.4215 224.135 52.4147 224.135 52.4147L224.806 57.7803C224.806 57.7803 221.451 59.1213 216.752 59.1213C210.04 59.1213 203.999 55.7676 203.999 46.3783C203.999 38.9999 208.698 34.3053 215.411 34.3053C225.478 34.3053 226.149 44.3655 225.478 48.3902Z" fill="#003C58"/>
<path fill-rule="evenodd" clip-rule="evenodd" d="M72.0447 58.5288H65.3333V34.8501H72.0447V58.5288Z" fill="#003C58"/>
<path fill-rule="evenodd" clip-rule="evenodd" d="M60.584 34.8532L60.5954 56.3038C60.5954 56.3038 57.228 58.9971 49.8445 58.9971C43.1333 58.9971 39.442 55.6434 39.442 48.265V34.8523H46.1532V48.265C46.1532 52.961 48.5026 53.2956 50.5155 53.2956C52.53 53.2956 53.8736 52.2897 53.8736 52.2897L53.8715 34.8532H60.584ZM107.804 43.3504C108.465 42.6344 109.146 41.8889 109.851 41.1135C110.556 40.338 111.24 39.5694 111.899 38.8087C112.559 38.0467 113.182 37.3236 113.767 36.6375C114.352 35.9519 114.855 35.3543 115.275 34.8465H123.256C121.663 36.675 120.11 38.4193 118.593 40.081C117.077 41.7427 115.418 43.457 113.615 45.2241C114.516 46.0353 115.447 47.0054 116.409 48.1323C117.369 49.2605 118.3 50.4249 119.201 51.6281C120.103 52.8304 120.928 54.0327 121.679 55.2354C122.43 56.4382 123.061 57.5348 123.571 58.5264H115.853C115.373 57.7442 114.825 56.8803 114.212 55.9317C113.598 54.9843 112.945 54.0361 112.256 53.0891C111.566 52.1422 110.839 51.2319 110.074 50.3591C109.31 49.4876 108.553 48.7501 107.804 48.1475V58.5264H101.092V28.9326L107.804 27.7492V43.3504ZM127.466 28.9349L134.178 27.7511V34.7291H140.82V40.3113H134.178V48.6382C134.178 50.0496 134.426 51.1752 134.921 52.0143C135.417 52.8551 136.414 53.2748 137.917 53.2748C138.638 53.2748 139.381 53.2074 140.147 53.0725C140.912 52.9372 141.611 52.7505 142.242 52.5095L143.187 57.7322C142.377 58.0626 141.475 58.3471 140.484 58.5877C139.494 58.8267 138.277 58.9464 136.836 58.9464C135.003 58.9464 133.487 58.6994 132.287 58.2042C131.085 57.709 130.124 57.0187 129.403 56.1337C128.682 55.2491 128.179 54.1758 127.894 52.9149C127.608 51.6544 127.466 50.259 127.466 48.7289V28.9349ZM183.506 58.9765C181.552 58.947 179.969 58.7363 178.752 58.3473C177.537 57.9571 176.574 57.4088 175.87 56.7029C175.163 55.9987 174.683 55.1428 174.428 54.1372C174.173 53.1322 174.045 51.9985 174.045 50.7381V28.9322L180.757 27.7484V49.3874C180.757 49.9892 180.802 50.5286 180.893 51.0094C180.982 51.489 181.155 51.8944 181.411 52.224C181.666 52.5552 182.033 52.825 182.515 53.0344C182.995 53.2451 183.641 53.3796 184.452 53.439L183.506 58.9765ZM198.666 58.9765C196.712 58.947 195.129 58.7363 193.912 58.3473C192.696 57.9571 191.734 57.4088 191.03 56.7029C190.324 55.9987 189.842 55.1428 189.588 54.1372C189.333 53.1322 189.205 51.9985 189.205 50.7381V28.9322L195.917 27.7484V49.3874C195.917 49.9892 195.962 50.5286 196.052 51.0094C196.143 51.489 196.315 51.8944 196.57 52.224C196.825 52.5552 197.193 52.825 197.674 53.0344C198.155 53.2451 198.801 53.3796 199.611 53.439L198.666 58.9765Z" fill="#003C58"/>
</g>
<defs>
<clipPath id="clip0">
<rect width="304.2" height="78" fill="white" transform="translate(0.799988)"/>
</clipPath>
</defs>
</svg>
