<svg width="50" height="50" viewBox="0 0 50 50" fill="none" xmlns="http://www.w3.org/2000/svg">
<path d="M25 45.8333C13.4937 45.8333 4.16666 36.5062 4.16666 25C4.16666 13.4937 13.4937 4.16666 25 4.16666C36.5062 4.16666 45.8333 13.4937 45.8333 25C45.8333 36.5062 36.5062 45.8333 25 45.8333ZM25 41.6667C29.4203 41.6667 33.6595 39.9107 36.7851 36.7851C39.9107 33.6595 41.6667 29.4203 41.6667 25C41.6667 20.5797 39.9107 16.3405 36.7851 13.2149C33.6595 10.0893 29.4203 8.33332 25 8.33332C20.5797 8.33332 16.3405 10.0893 13.2149 13.2149C10.0893 16.3405 8.33332 20.5797 8.33332 25C8.33332 29.4203 10.0893 33.6595 13.2149 36.7851C16.3405 39.9107 20.5797 41.6667 25 41.6667V41.6667ZM17.7083 29.1667H29.1667C29.4429 29.1667 29.7079 29.0569 29.9032 28.8616C30.0986 28.6662 30.2083 28.4013 30.2083 28.125C30.2083 27.8487 30.0986 27.5838 29.9032 27.3884C29.7079 27.1931 29.4429 27.0833 29.1667 27.0833H20.8333C19.452 27.0833 18.1272 26.5346 17.1505 25.5578C16.1737 24.5811 15.625 23.2563 15.625 21.875C15.625 20.4937 16.1737 19.1689 17.1505 18.1921C18.1272 17.2154 19.452 16.6667 20.8333 16.6667H22.9167V12.5H27.0833V16.6667H32.2917V20.8333H20.8333C20.5571 20.8333 20.2921 20.9431 20.0968 21.1384C19.9014 21.3338 19.7917 21.5987 19.7917 21.875C19.7917 22.1513 19.9014 22.4162 20.0968 22.6116C20.2921 22.8069 20.5571 22.9167 20.8333 22.9167H29.1667C30.548 22.9167 31.8728 23.4654 32.8495 24.4421C33.8263 25.4189 34.375 26.7437 34.375 28.125C34.375 29.5063 33.8263 30.8311 32.8495 31.8078C31.8728 32.7846 30.548 33.3333 29.1667 33.3333H27.0833V37.5H22.9167V33.3333H17.7083V29.1667Z" fill="#1E326C"/>
</svg>
