<svg width="169" height="78" viewBox="0 0 169 78" fill="none" xmlns="http://www.w3.org/2000/svg">
<g clip-path="url(#clip0)">
<path d="M92.6079 38.7513H68.0888C68.1708 41.1832 69.1458 43.505 70.8357 45.2927C71.6452 46.0887 72.6142 46.7128 73.6821 47.126C74.75 47.5392 75.8938 47.7326 77.0418 47.694C79.0088 47.694 80.6366 47.2469 81.9253 46.3195C83.197 45.4087 84.6383 43.7195 86.2492 41.252L92.9131 44.8953C91.8957 46.601 90.7936 48.0749 89.6575 49.3169C88.5044 50.5259 87.2836 51.5195 85.9609 52.331C84.6451 53.1071 83.2156 53.6823 81.7218 54.0367C80.1 54.413 78.4375 54.5965 76.7705 54.5832C71.6666 54.5832 67.5631 52.9934 64.477 49.7806C61.3909 46.5679 59.8479 42.2953 59.8479 36.9628C59.8479 31.68 61.3401 27.4074 64.3414 24.145C67.3596 20.9157 71.3614 19.3093 76.3466 19.3093C81.3827 19.3093 85.3505 20.866 88.284 23.9959C91.1836 27.1093 92.6418 31.415 92.6418 36.9297L92.6079 38.7513V38.7513ZM84.4857 32.4418C83.3836 28.3182 80.7383 26.2647 76.5162 26.2647C75.1654 26.2475 73.8326 26.5688 72.6452 27.198C71.4577 27.8271 70.4553 28.7431 69.7336 29.8583C69.2247 30.6571 68.8471 31.5289 68.6144 32.4418H84.4857ZM98.4918 20.2367H106.394V23.2176C107.5 21.9944 108.806 20.959 110.26 20.1539C111.528 19.5606 112.923 19.271 114.329 19.3093C116.415 19.3093 118.585 19.9717 120.857 21.2966L117.246 28.3513C115.985 27.3825 114.44 26.8314 112.837 26.7781C108.547 26.7781 106.394 29.9577 106.394 36.3169V53.6392H98.4918V20.2367ZM131.625 20.2367V53.6392H123.723V20.2367H131.625ZM122.536 13.1322C122.536 11.7908 123.045 10.615 124.045 9.65453C125.063 8.6609 126.25 8.16408 127.657 8.16408C129.081 8.16408 130.302 8.6609 131.32 9.65453C132.32 10.5985 132.829 11.7743 132.829 13.1654C132.829 14.573 132.32 15.7488 131.303 16.7424C130.336 17.7361 129.115 18.2163 127.691 18.2163C126.267 18.2163 125.046 17.7195 124.045 16.7259C123.028 15.7488 122.519 14.5564 122.519 13.1322H122.536ZM147.038 27.424V53.6558H139.103V27.424H136.288V20.2367H139.103V14.1259C139.103 9.9195 139.849 6.95516 141.341 5.21631C143.41 2.79848 146.394 1.573 150.328 1.573C151.735 1.573 153.499 1.98701 155.635 2.78192V10.6647H150.616C148.954 10.6647 148.293 10.6647 147.666 11.4927C147.174 12.4367 147.038 13.2813 147.038 16.0138V20.2367H160.264V27.424H147.038Z" fill="#103A60"/>
<path d="M166.86 20.2364V53.639H158.959V20.2364H166.86ZM157.772 13.132C157.772 11.7906 158.28 10.6148 159.281 9.65426C160.298 8.66063 161.485 8.16382 162.893 8.16382C164.317 8.16382 165.538 8.66063 166.538 9.65426C167.556 10.5982 168.064 11.774 168.064 13.1651C168.064 14.5727 167.556 15.7485 166.538 16.7422C165.572 17.7358 164.351 18.216 162.927 18.216C161.502 18.216 160.281 17.7192 159.281 16.7256C158.264 15.7485 157.755 14.5562 157.755 13.132H157.772Z" fill="#103A60"/>
<path fill-rule="evenodd" clip-rule="evenodd" d="M23.0183 25.4206C28.5292 30.5544 36.5835 38.3875 36.5835 38.3875C36.5835 38.3875 55.0661 14.8053 72.5653 3.44482L73.9218 7.40279C67.5292 11.7582 48.3174 35.6881 40.7888 56.8525C40.7888 56.8525 20.7292 35.4066 16.914 30.5213L23.0183 25.4206V25.4206Z" fill="#5FAE46"/>
<path d="M40.4002 73.3304C52.8293 73.3304 63.7663 67.0374 70.0232 57.5317H75.4154C71.5785 64.4128 65.7042 70.0025 58.5612 73.5695C51.4182 77.1366 43.339 78.5148 35.3808 77.5239C27.4226 76.5329 19.9559 73.219 13.9578 68.0157C7.95965 62.8124 3.70935 55.962 1.76298 48.3608C-0.183387 40.7597 0.264832 32.7617 3.04899 25.4134C5.83315 18.0651 10.8236 11.7086 17.3674 7.17575C23.9112 2.64286 31.7035 0.144617 39.7249 0.00788206C47.7463 -0.128853 55.6232 2.10229 62.325 6.4094L59.1711 9.83742C54.5531 6.99419 49.3217 5.2383 43.8898 4.70839C38.4578 4.17847 32.9741 4.88904 27.8716 6.78399C22.7691 8.67894 18.1874 11.7064 14.4884 15.6273C10.7894 19.5482 8.07429 24.2553 6.55744 29.3768C5.04059 34.4983 4.76354 39.8941 5.74815 45.1382C6.73277 50.3822 8.9521 55.3309 12.2309 59.5936C15.5097 63.8563 19.7583 67.3162 24.6411 69.7002C29.5239 72.0841 34.9073 73.3269 40.3663 73.3304H40.4002Z" fill="#103A60"/>
</g>
<defs>
<clipPath id="clip0">
<rect width="167.7" height="78" fill="white" transform="translate(0.5)"/>
</clipPath>
</defs>
</svg>
