<svg width="219" height="79" viewBox="0 0 219 79" fill="none" xmlns="http://www.w3.org/2000/svg">
<g clip-path="url(#clip0)">
<path fill-rule="evenodd" clip-rule="evenodd" d="M75.8034 39.1282C75.8034 60.4167 58.9641 77.6743 38.1917 77.6743C17.4184 77.6743 0.578674 60.4167 0.578674 39.1282C0.578674 17.8397 17.4184 0.582115 38.1917 0.582115C58.9641 0.582115 75.8034 17.8397 75.8034 39.1282Z" fill="#ED342B"/>
<path fill-rule="evenodd" clip-rule="evenodd" d="M38.1911 55.6396C29.7781 36.0958 23.6095 17.8383 23.6095 17.8383H10.7124C10.7124 17.8383 18.5622 41.2719 33.1433 70.5771H43.2389C57.82 41.2719 65.6693 17.8383 65.6693 17.8383H52.7722C52.7722 17.8383 46.6041 36.0958 38.1911 55.6396Z" fill="#FEFEFE"/>
<path fill-rule="evenodd" clip-rule="evenodd" d="M200.172 37.1182C192.881 37.1182 192.321 45.1645 192.321 45.1645L208.021 45.1645C208.021 45.1645 207.461 37.1182 200.172 37.1182ZM217.555 53.2093L192.321 53.2093C192.321 53.2093 192.881 61.8309 204.097 61.8309C209.704 61.8309 215.312 60.105 215.312 60.105L216.434 69.2999C216.434 69.2999 210.826 71.6 202.975 71.6C191.76 71.6 181.666 65.8525 181.666 49.7614C181.666 37.1182 189.518 29.0725 200.733 29.0725C217.555 29.0725 218.676 46.3131 217.555 53.2093ZM131.75 39.6303L133.487 30.1414C133.487 30.1414 120.079 25.9721 109.182 33.6987V71.6541H120.755V40.8152C125.384 37.2584 131.75 39.6303 131.75 39.6303ZM83.5102 37.1182C76.2208 37.1182 75.6604 45.1645 75.6604 45.1645H91.3609C91.3609 45.1645 90.801 37.1182 83.5102 37.1182ZM100.893 53.2093H75.6604C75.6604 53.2093 76.2208 61.8309 87.4358 61.8309C93.0421 61.8309 98.6503 60.105 98.6503 60.105L99.7725 69.2999C99.7725 69.2999 94.1643 71.6 86.3136 71.6C75.0986 71.6 65.0044 65.8525 65.0044 49.7614C65.0044 37.1182 72.8556 29.0725 84.0706 29.0725C100.893 29.0725 102.014 46.3131 100.893 53.2093ZM159.994 57.1478C154.117 42.6926 151.18 29.0794 151.18 29.0794L139.429 29.0808C139.429 29.0808 145.305 52.3291 155.295 71.5929H164.692C174.683 52.3291 180.559 29.0842 180.559 29.0842H168.807C168.807 29.0842 165.87 42.6926 159.994 57.1478Z" fill="#03435F"/>
</g>
<defs>
<clipPath id="clip0">
<rect width="218.4" height="78" fill="white" transform="translate(0 0.100098)"/>
</clipPath>
</defs>
</svg>
