<svg width="100" height="100" viewBox="0 0 100 100" fill="none" xmlns="http://www.w3.org/2000/svg">
<path d="M92.9846 80.9802C92.2301 86.1861 88.46 90.6911 83.1809 92.6931C80.5946 93.6931 77.7941 93.9941 74.9926 93.6931C72.2998 93.3931 69.6059 92.5921 66.8054 91.0921C62.9265 89.0881 59.0477 85.9861 54.523 81.3812C61.6339 73.2733 65.9422 65.8653 67.5588 59.2604C68.3133 56.1564 68.4209 53.3535 68.098 50.7505C67.6675 48.2485 66.6978 45.9455 65.1889 43.9436C61.8492 39.4396 56.2472 36.8366 49.9984 36.8366C43.7496 36.8366 38.1476 39.5396 34.8079 43.9436C33.299 45.9455 32.3304 48.2485 31.8988 50.7505C31.4683 53.3535 31.5759 56.2564 32.438 59.2604C34.0535 65.8653 38.4705 73.3733 45.4738 81.4802C41.0568 86.0861 37.0703 89.1891 33.1914 91.1911C30.3909 92.6931 27.697 93.4941 25.0042 93.7931C22.095 94.0941 19.2935 93.6931 16.8159 92.7931C11.5368 90.7911 7.76667 86.2851 7.01221 81.0802C6.68933 78.5782 6.90458 76.0762 7.98192 73.2733C8.30481 72.2713 8.84402 71.2723 9.38215 70.0703C10.1366 68.4693 10.9987 66.7663 11.8597 65.0644L11.9684 64.8654C19.4011 49.9495 27.3741 34.7347 35.67 19.9208L35.9929 19.3188C36.855 17.8188 37.716 16.2178 38.5792 14.7159C39.4402 13.1139 40.4099 11.6119 41.5949 10.3099C43.8572 7.90692 46.874 6.60593 50.2137 6.60593C53.5533 6.60593 56.5701 7.90692 58.8324 10.3099C60.0174 11.6119 60.9871 13.1139 61.8492 14.7159C62.7113 16.2178 63.5723 17.8188 64.4344 19.3188L64.7583 19.9208C72.9455 34.8347 80.9185 50.0495 88.3523 64.9654V65.0644C89.2144 66.6663 89.9678 68.4693 90.8299 70.0703C91.3691 71.2723 91.9072 72.2713 92.2301 73.2733C93.0922 75.8752 93.4151 78.3792 92.9846 80.9802ZM49.9984 76.2752C44.1812 69.4693 40.4099 63.0624 39.1173 57.6584C38.5792 55.3554 38.4705 53.3535 38.7944 51.5515C39.0097 49.9495 39.6565 48.5475 40.5175 47.3455C42.5646 44.6456 46.0119 42.9406 49.9984 42.9406C53.9849 42.9406 57.5398 44.5436 59.4792 47.3455C60.3403 48.5475 60.9871 49.9495 61.2024 51.5515C61.5252 53.3535 61.4176 55.4554 60.8795 57.6584C59.5869 62.9634 55.8156 69.3693 49.9984 76.2752ZM98.5866 71.0703C98.0484 69.8693 97.5092 68.5683 96.9711 67.4673C96.109 65.6663 95.2469 63.9634 94.4924 62.3614L94.3848 62.2624C86.9521 47.2465 78.9791 32.0317 70.5756 17.0188L70.2527 16.4168C69.3906 14.9149 68.5285 13.3129 67.6675 11.7119C66.5891 9.9089 65.5117 8.00892 63.7886 6.20594C60.3403 2.20198 55.3851 0 50.106 0C44.7193 0 39.8718 2.20198 36.3158 6.00694C34.7003 7.80792 33.5153 9.7099 32.438 11.5129C31.5759 13.1139 30.7138 14.7159 29.8517 16.2178L29.5288 16.8168C21.234 31.8317 13.1534 47.0475 5.71961 62.0624L5.61198 62.2624C4.85752 63.8634 3.99542 65.5643 3.13333 67.3673C2.5952 68.4693 2.05599 69.6703 1.51785 70.9713C0.11655 74.6743 -0.313958 78.1782 0.224177 81.7812C1.41023 89.2891 6.79695 95.596 14.2307 98.398C17.0312 99.5 19.9404 100 22.9571 100C23.8192 100 24.8966 99.9 25.7587 99.799C29.3136 99.398 32.9761 98.299 36.531 96.396C40.9491 94.0941 45.1509 90.7911 49.8908 85.9861C54.6307 90.7911 58.94 94.0941 63.2494 96.396C66.8054 98.299 70.468 99.398 74.0229 99.799C74.885 99.9 75.9623 100 76.8244 100C79.8412 100 82.8569 99.5 85.5508 98.398C93.0922 95.596 98.3713 89.1891 99.5563 81.7812C100.418 78.2772 99.9868 74.7753 98.5866 71.0703Z" fill="#021853"/>
</svg>
