<svg width="96" height="88" viewBox="0 0 96 88" fill="none" xmlns="http://www.w3.org/2000/svg">
<path d="M55.2625 25.7773C44.6093 26.1289 18.1843 28.8047 18.1843 48.7266C18.1843 70.1133 48.4375 70.9922 58.325 57.1641C59.7468 59.1562 66.0687 64.4883 68.2343 66.3047L80.6593 55.3672C80.6593 55.3672 73.5937 50.4258 73.5937 45.0547V16.3242C73.5937 11.3828 68.2343 0.25 49.0281 0.25C29.7781 0.25 19.5625 10.9922 19.5625 20.6211L35.6406 21.9492C39.2062 12.2813 47.4968 12.2812 47.4968 12.2812C56.4 12.2617 55.2625 18.1016 55.2625 25.7773V25.7773ZM55.2625 42.7305C55.2625 58.3555 36.8437 56.0117 36.8437 46.0898C36.8437 36.8711 47.8906 35.0156 55.2625 34.8008V42.7305V42.7305ZM85.0125 74.6641C83.3281 76.6172 69.7 87.75 46.8406 87.75C23.9812 87.75 6.48121 73.7852 1.12184 68.0234C-0.365665 66.5195 1.34059 65.8164 2.32496 66.4023C18.3593 75.0938 43.4062 89.4102 83.8093 72.3203C85.45 71.5977 86.7187 72.7109 85.0125 74.6641ZM93.7187 75.0938C92.2968 78.1797 90.2187 80.3281 89.0812 81.1484C87.8781 82.0273 87.0031 81.6758 87.6593 80.4062C88.3156 79.1367 91.8812 71.3242 90.4375 69.6641C89.0156 68.043 82.3437 68.8242 79.9375 69.0391C77.575 69.2344 77.0937 69.4297 76.875 68.9805C76.3718 67.8672 81.6218 65.9531 85.0781 65.5625C88.5125 65.2109 94.0468 65.4063 95.1406 66.6758C95.95 67.6719 95.1406 71.9688 93.7187 75.0938Z" fill="#021853"/>
</svg>
