<svg width="65" height="67" viewBox="0 0 65 67" fill="none" xmlns="http://www.w3.org/2000/svg">
<path d="M25.968 48.4593V44.8049H3.27846L3.246 59.4224C3.246 63.4788 6.13494 66.7312 9.738 66.7312H55.182C58.785 66.7312 61.674 63.4788 61.674 59.4224V44.8049H38.952V48.4593H25.968ZM58.428 15.5699H45.4115V8.26115L38.9195 0.952393H25.9355L19.4435 8.26115V15.5699H6.492C2.9214 15.5699 0 18.8588 0 22.8787V33.8418C0 37.8982 2.88894 41.1506 6.492 41.1506H25.968V33.8418H38.952V41.1506H58.428C61.9986 41.1506 64.92 37.8616 64.92 33.8418V22.8787C64.92 18.8588 61.9986 15.5699 58.428 15.5699ZM38.952 15.5699H25.968V8.26115H38.952V15.5699Z" fill="black"/>
</svg>
