<svg width="96" height="98" viewBox="0 0 96 98" fill="none" xmlns="http://www.w3.org/2000/svg">
<path d="M95.4688 49C95.4688 75.7514 74.2163 97.4375 48 97.4375C21.7837 97.4375 0.53125 75.7514 0.53125 49C0.53125 22.2486 21.7837 0.5625 48 0.5625C74.2163 0.5625 95.4688 22.2486 95.4688 49ZM68.3559 42.0996C69.3008 35.6545 64.4912 32.1896 57.9147 29.8783L60.0481 21.1475L54.8393 19.823L52.7624 28.3238C51.3931 27.9756 49.9866 27.6473 48.5891 27.3219L50.681 18.7652L45.4752 17.4408L43.3404 26.1686C42.2069 25.9051 41.0943 25.6447 40.0143 25.3709L40.0203 25.3436L32.8368 23.5135L31.4512 29.1896C31.4512 29.1896 35.3159 30.0934 35.2344 30.1492C37.344 30.6865 37.7253 32.1109 37.6614 33.24L35.2313 43.1863C35.3768 43.2242 35.5651 43.2787 35.7728 43.3635C35.5992 43.3195 35.4137 43.2711 35.2223 43.2242L31.816 57.1574C31.5578 57.8113 30.9036 58.7922 29.429 58.4199C29.4809 58.4971 25.643 57.4557 25.643 57.4557L23.0571 63.5391L29.8355 65.2631C31.0965 65.5855 32.3324 65.923 33.5488 66.2408L31.3932 75.0715L36.596 76.3959L38.7308 67.659C40.1105 68.0405 41.4943 68.4069 42.8818 68.758L40.7543 77.4539L45.9631 78.7783L48.1187 69.9643C57.0007 71.6793 63.6798 70.9875 66.491 62.791C68.7565 56.1914 66.3783 52.3846 61.7051 49.9021C65.1083 49.1018 67.672 46.8178 68.3559 42.0996V42.0996ZM56.4548 59.1268C54.8451 65.7264 43.9544 62.1586 40.4236 61.2641L43.2839 49.565C46.8146 50.4641 58.1371 52.2441 56.4548 59.1268ZM58.0659 42.0043C56.5972 48.0074 47.5326 44.9574 44.5922 44.2098L47.1854 33.599C50.1259 34.3467 59.5954 35.7422 58.0659 42.0043Z" fill="#021853"/>
</svg>
