<svg width="250" height="250" viewBox="0 0 250 250" fill="none" xmlns="http://www.w3.org/2000/svg">
<path d="M107.218 144.409L107.242 144.661L107.263 144.914L107.282 145.167L107.299 145.42L107.313 145.674L107.324 145.928L107.333 146.183L107.339 146.437L107.343 146.693L107.344 146.948L107.343 147.204L107.339 147.459L107.332 147.716L107.323 147.972L107.312 148.228L107.297 148.485L107.281 148.742L107.261 148.998L107.239 149.255L107.215 149.512L107.187 149.769L107.157 150.025L107.125 150.282L107.09 150.539L107.052 150.795L107.012 151.052L106.969 151.308L106.924 151.564L106.876 151.82L106.825 152.076L106.772 152.331L106.716 152.586L106.657 152.841L106.596 153.095L106.532 153.349L106.466 153.603L106.397 153.856L106.326 154.109L106.251 154.361L106.175 154.613L106.095 154.864L106.013 155.115L105.929 155.365L105.841 155.615L105.752 155.864L105.659 156.112L105.565 156.359L105.467 156.606L105.367 156.852L105.264 157.098L105.159 157.342L105.051 157.586L104.941 157.829L104.828 158.071L104.713 158.312L104.595 158.552L104.475 158.791L104.352 159.03L104.226 159.267L104.099 159.503L103.968 159.738L103.835 159.972L103.7 160.205L103.562 160.437L103.422 160.668L103.279 160.898L103.134 161.126L102.986 161.353L102.836 161.579L102.684 161.803L102.529 162.027L102.372 162.248L102.212 162.469L102.05 162.688L101.886 162.906L101.719 163.122L101.55 163.337L101.379 163.551L101.205 163.762L101.029 163.973L100.851 164.181L100.671 164.389L100.488 164.594L100.303 164.798L100.116 165.001L99.9266 165.201L99.7351 165.4L99.5413 165.597L99.3454 165.793L99.1474 165.987L98.9472 166.178L98.745 166.369L98.5406 166.557L98.3341 166.743L98.1256 166.928L97.915 167.11L97.7024 167.291L97.4878 167.47L97.2711 167.646L97.0525 167.821L96.832 167.994L96.6095 168.165L96.3851 168.333L96.1587 168.5L95.9305 168.664L95.7004 168.826L95.4685 168.987L95.2347 169.145L94.9992 169.3L94.7618 169.454L94.5227 169.605L94.2818 169.755L94.0392 169.902L93.7949 170.046L93.5489 170.188L93.3013 170.328L93.052 170.466L92.8011 170.601L92.5486 170.734L92.2945 170.865L92.0389 170.993L91.7818 171.119L91.5231 171.242L91.263 171.362L91.0014 171.481L90.7384 171.597L90.4739 171.71L90.2081 171.821L89.9409 171.929L89.6724 172.034L89.4025 172.137L89.1314 172.238L88.859 172.336L88.5853 172.431L88.3105 172.523L88.0344 172.613L87.7572 172.7L87.4789 172.785L87.1994 172.867L86.9189 172.946L86.6373 173.022L86.3546 173.096L86.071 173.167L85.7863 173.235L85.5008 173.3L85.2142 173.363L84.9268 173.423L84.6385 173.48L84.3494 173.534L84.0595 173.585L83.7687 173.633L83.4772 173.679L83.185 173.722L82.892 173.762L82.5984 173.798L82.3042 173.833L82.0093 173.864L81.7138 173.892L81.4177 173.917L81.1212 173.94L80.8241 173.959L80.5265 173.976L80.2285 173.989L79.9301 174L79.6312 174.007L79.332 174.012L79.0325 174.013L78.7327 174.012L78.4326 174.008L78.1323 174L77.8318 173.99L77.531 173.977L77.2302 173.96L76.9292 173.941L76.6281 173.918L76.3269 173.893L76.0258 173.864L75.7246 173.833L75.4234 173.798L75.1224 173.761L74.8214 173.72L74.5205 173.676L74.2198 173.63L73.9192 173.58L73.6189 173.527L73.3188 173.471L73.019 173.412L72.7195 173.35L72.4204 173.285L72.1216 173.217L71.8232 173.146L71.5252 173.072L71.2277 172.995L70.9307 172.914L70.6342 172.831L70.3383 172.745L70.0429 172.655L69.7482 172.563L69.4541 172.467L69.1607 172.369L68.868 172.267L68.576 172.163L68.2848 172.055L67.9945 171.945L67.7049 171.831L67.4162 171.715L67.1284 171.595L66.8416 171.473L66.5557 171.347L66.2707 171.219L65.9868 171.087L65.704 170.953L65.4222 170.815L65.1415 170.675L64.862 170.532L64.5837 170.385L64.3065 170.236L64.0306 170.084L63.7559 169.929L63.4826 169.772L63.2105 169.611L62.9399 169.447L62.6706 169.281L62.4027 169.112L62.1362 168.94L61.8713 168.765L61.6078 168.587L61.3459 168.406L61.0855 168.223L60.8267 168.037L60.5695 167.848L60.314 167.657L60.0602 167.462L59.8081 167.265L59.5577 167.065L59.3091 166.863L59.0623 166.658L58.8173 166.45L58.5741 166.24L58.3329 166.026L58.0935 165.811L57.8561 165.593L57.6206 165.372L57.3872 165.148L57.1557 164.922L56.9263 164.694L56.699 164.463L56.4738 164.229L56.2507 163.993L56.0297 163.755L55.811 163.514L55.5944 163.271L55.3801 163.025L55.168 162.777L54.9583 162.527L54.7508 162.274L54.5457 162.019L54.343 161.762L54.1426 161.502L53.9446 161.24L53.7491 160.976L53.5561 160.71L53.3655 160.442L53.1775 160.171L52.992 159.898L52.809 159.624L52.6286 159.347L52.4509 159.068L52.2757 158.787L52.1033 158.504L51.9335 158.218L51.7664 157.931L51.602 157.643L51.4403 157.352L51.2815 157.059L51.1254 156.764L50.9721 156.468L50.8216 156.17L50.674 155.869L50.5293 155.568L50.3874 155.264L50.2485 154.959L50.1125 154.652L49.9794 154.343L49.8494 154.033L49.7223 153.721L49.5982 153.408L49.4771 153.093L49.3591 152.777L49.2441 152.459L49.1323 152.139L49.0235 151.819L48.9178 151.496L48.8153 151.173L48.7159 150.848L48.6197 150.522L48.5266 150.195L48.4368 149.866L48.3502 149.536L48.2668 149.205L48.1866 148.873L48.1097 148.539L48.0361 148.205L47.9657 147.87L47.8987 147.533L47.8349 147.196L47.7745 146.857L47.7174 146.518L47.6637 146.178L47.6134 145.837L47.5664 145.495L47.5228 145.152L47.4826 144.808L47.4458 144.464L47.4124 144.119L47.3824 143.774L47.3559 143.428L47.3329 143.081L47.3133 142.734L47.2971 142.386L47.2844 142.037L47.2753 141.688L47.2696 141.339L47.2674 140.99L47.2687 140.64L47.2735 140.289L47.2819 139.939L47.2937 139.588L47.3091 139.237L47.3281 138.886L47.3505 138.534L47.3766 138.183L47.4061 137.831L47.4393 137.48L47.476 137.128L47.5162 136.776L47.56 136.425L47.6074 136.073L47.6584 135.722L47.7129 135.371L47.771 135.02L47.8327 134.67L47.8979 134.319L47.9668 133.969L48.0392 133.62L48.1152 133.27L48.1947 132.921L48.2779 132.573L48.3646 132.225L48.4549 131.878L48.5487 131.531L48.6462 131.185L48.7471 130.839L48.8517 130.494L48.9598 130.15L49.0715 129.807L49.1867 129.464L49.3055 129.123L49.4278 128.782L49.5536 128.442L49.683 128.103L49.8159 127.764L49.9523 127.427L50.0922 127.091L50.2357 126.756L50.3826 126.422L50.533 126.09L50.6869 125.758L50.8443 125.428L51.0051 125.099L51.1694 124.771L51.3371 124.445L51.5083 124.12L51.6829 123.796L51.8609 123.474L52.0423 123.153L52.2271 122.834L52.4153 122.516L52.6068 122.2L52.8017 121.885L53 121.572L53.2016 121.261L53.4064 120.952L53.6146 120.644L53.8261 120.338L54.0408 120.034L54.2588 119.732L54.48 119.431L54.7045 119.133L54.9321 118.836L55.163 118.542L55.397 118.25L55.6342 117.959L55.8745 117.671L56.118 117.385L56.3645 117.101L56.6141 116.819L56.8668 116.539L57.1226 116.262L57.3813 115.987L57.6431 115.714L57.9079 115.444L58.1756 115.176L58.4463 114.91L58.7198 114.647L58.9963 114.386L59.2757 114.128L59.5579 113.873L59.8429 113.62L60.1308 113.369L60.4215 113.121L60.7149 112.876L61.011 112.634L61.3099 112.394L61.6114 112.157L61.9156 111.923L62.2225 111.692L62.5319 111.463L62.844 111.238L63.1586 111.015L63.4757 110.795L63.7954 110.578L64.1175 110.365L64.4421 110.154L64.7691 109.946L65.0985 109.741L65.4302 109.54L65.7643 109.341L66.1007 109.146L66.4394 108.954L66.7804 108.765L67.1235 108.579L67.4689 108.397L67.8164 108.217L68.166 108.041L68.5178 107.869L68.8716 107.7L69.2274 107.534L69.5852 107.371L69.945 107.212L70.3068 107.057L70.6704 106.905L71.0359 106.756L71.4033 106.611L71.7725 106.469L72.1434 106.331L72.5161 106.197L72.8905 106.066L73.2665 105.938L73.6442 105.815L74.0234 105.695L74.4043 105.578L74.7867 105.466L75.1705 105.357L75.5559 105.252L75.9426 105.15L76.3307 105.053L76.7202 104.959L77.111 104.869L77.5031 104.782L77.8964 104.7L78.2909 104.621L78.6865 104.547L79.0833 104.476L79.4812 104.409L79.8802 104.346L80.2801 104.287L80.681 104.232L81.0829 104.18L81.4856 104.133L81.8892 104.09L82.2936 104.051L82.6988 104.015L83.1048 103.984L83.5114 103.957L83.9187 103.934L84.3266 103.914L84.7351 103.899L85.1442 103.888L85.5537 103.881L85.9637 103.878L86.3741 103.88L86.7849 103.885L87.1961 103.894L87.6075 103.908L88.0192 103.925L88.4311 103.947L88.8431 103.973L89.2553 104.003L89.6676 104.037L90.08 104.076L90.4923 104.118L90.9046 104.165L91.3169 104.216L91.729 104.271L92.1409 104.33L92.5527 104.393L92.9642 104.461L93.3754 104.532L93.7863 104.608L94.1969 104.688L94.607 104.772L95.0166 104.861L95.4258 104.953L95.8344 105.05L96.2425 105.151L96.6499 105.256L97.0566 105.365L97.4627 105.479L97.868 105.596L98.2725 105.718L98.6761 105.844L99.0789 105.974L99.4808 106.108L99.8816 106.246L100.282 106.389L100.68 106.535L101.078 106.686L101.475 106.841L101.87 107L102.264 107.163L102.657 107.33L103.049 107.501L103.439 107.677L103.828 107.856L104.216 108.039L104.602 108.227L104.986 108.418L105.369 108.614L105.751 108.813L106.13 109.017L106.508 109.224L106.885 109.436L107.259 109.651L107.632 109.87L108.003 110.094L108.372 110.321L108.739 110.552L109.104 110.787L109.467 111.026L109.828 111.269L110.187 111.515L110.544 111.766L110.899 112.02L111.251 112.278L111.601 112.54L111.949 112.805L112.295 113.074L112.638 113.347L112.979 113.624L113.317 113.904L113.653 114.188L113.986 114.475L114.317 114.767L114.645 115.061L114.97 115.36L115.293 115.661L115.613 115.967L115.93 116.276L116.245 116.588L116.557 116.904L116.866 117.223L117.171 117.545L117.474 117.871L117.774 118.2L118.071 118.533L118.365 118.869L118.656 119.208L118.944 119.55L119.228 119.895L119.51 120.244L119.788 120.596L120.063 120.951L120.334 121.309L120.602 121.67L120.867 122.034L121.129 122.401L121.387 122.771L121.641 123.144L121.892 123.519L122.14 123.898L122.384 124.28L122.624 124.664L122.861 125.051L123.094 125.441L123.323 125.833L123.549 126.229L123.771 126.626L123.989 127.027L124.203 127.43L124.414 127.835L124.62 128.243L124.823 128.654L125.022 129.067L125.217 129.482L125.407 129.899L125.594 130.319L125.777 130.741L125.956 131.166L126.131 131.592L126.301 132.021L126.467 132.452L126.63 132.885L126.788 133.32L126.942 133.756L127.091 134.195L127.237 134.636L127.378 135.079L127.514 135.523L127.647 135.969L127.775 136.417L127.899 136.867L128.018 137.318L128.133 137.771L128.243 138.226L128.349 138.682L128.451 139.14L128.548 139.599L128.64 140.059L128.728 140.521L128.812 140.984L128.891 141.448L128.965 141.914L129.035 142.381L129.1 142.849L129.16 143.318L129.216 143.788L129.267 144.259L129.313 144.731L129.355 145.204L129.392 145.678L129.425 146.153L129.452 146.628L129.475 147.104L129.493 147.581L129.506 148.059L129.515 148.537L129.519 149.015L129.518 149.494L129.512 149.974L129.501 150.454L129.486 150.934L129.466 151.415L129.44 151.895L129.41 152.377L129.375 152.858L129.336 153.339L129.291 153.82L129.242 154.302L129.187 154.783L129.128 155.264L129.064 155.746L128.995 156.227L128.921 156.707L128.842 157.188L128.759 157.668L128.67 158.147L128.577 158.627L128.478 159.106L128.375 159.584L128.267 160.062L128.154 160.539L128.036 161.015L127.913 161.491L127.785 161.966L127.653 162.44L127.515 162.913L127.373 163.385L127.226 163.857L127.074 164.327L126.917 164.796L126.755 165.264L126.588 165.731L126.417 166.197L126.24 166.661L126.059 167.124L125.873 167.586L125.682 168.047L125.487 168.505L125.286 168.963L125.081 169.419L124.871 169.873L124.656 170.325L124.437 170.776L124.213 171.225L123.984 171.672L123.75 172.118L123.512 172.561L123.269 173.003L123.021 173.442L122.769 173.879L122.512 174.315L122.251 174.748L121.985 175.179L121.714 175.608L121.439 176.034L121.159 176.458L120.875 176.88L120.586 177.299L120.293 177.716L119.995 178.13L119.693 178.542L119.386 178.951L119.075 179.357L118.76 179.761L118.44 180.161L118.116 180.56L117.788 180.955L117.455 181.347L117.118 181.736L116.777 182.123L116.432 182.506L116.082 182.886L115.729 183.263L115.371 183.637L115.009 184.008L114.643 184.375L114.273 184.74L113.899 185.1L113.521 185.458L113.139 185.812L112.754 186.162L112.364 186.509L111.971 186.853L111.573 187.192L111.172 187.528L110.767 187.861L110.359 188.19L109.946 188.515L109.531 188.836L109.111 189.153L108.688 189.467L108.261 189.776L107.831 190.082L107.397 190.383L106.96 190.681L106.52 190.974L106.076 191.263L105.629 191.548L105.178 191.829L104.725 192.106L104.268 192.378L103.808 192.647L103.344 192.91L102.878 193.17L102.409 193.425L101.936 193.675L101.461 193.921L100.983 194.163L100.502 194.4L100.018 194.632L99.5311 194.86L99.0416 195.083L98.5495 195.302L98.0546 195.516L97.5571 195.725L97.0571 195.929L96.5546 196.129L96.0495 196.323L95.5421 196.513L95.0322 196.698L94.52 196.878L94.0055 197.053L93.4888 197.223L92.9699 197.388L92.4488 197.548L91.9256 197.703L91.4004 197.853L90.8731 197.998L90.344 198.138L89.8129 198.272L89.2799 198.401L88.7452 198.526L88.2087 198.645L87.6704 198.758L87.1306 198.867L86.5891 198.97L86.0461 199.068L85.5016 199.16L84.9556 199.247L84.4083 199.329L83.8596 199.405L83.3096 199.476L82.7584 199.542L82.206 199.602L81.6525 199.657L81.0979 199.706L80.5423 199.75L79.9857 199.788L79.4282 199.821L78.8699 199.848L78.3107 199.869L77.7508 199.885L77.1902 199.896L76.629 199.901L76.0671 199.9L75.5048 199.893L74.942 199.881L74.3788 199.864L73.8152 199.841L73.2513 199.812L72.6872 199.777L72.1228 199.737L71.5584 199.691L70.9938 199.639L70.4293 199.582L69.8648 199.519L69.3004 199.45L68.7361 199.376L68.172 199.296L67.6083 199.21L67.0448 199.119L66.4817 199.021L65.9191 198.918L65.3569 198.81L64.7953 198.695L64.2344 198.575L63.6741 198.45L63.1145 198.318L62.5557 198.181L61.9978 198.038L61.4407 197.889L60.8847 197.735L60.3296 197.575L59.7756 197.409L59.2228 197.238L58.6712 197.06L58.1208 196.878L57.5717 196.689L57.024 196.495L56.4777 196.295L55.9329 196.09L55.3896 195.879L54.848 195.662L54.308 195.44L53.7697 195.212L53.2332 194.978L52.6985 194.739L52.1658 194.495L51.6349 194.244L51.1061 193.989L50.5793 193.727L50.0547 193.461L49.5322 193.188L49.012 192.911L48.4941 192.627L47.9785 192.339L47.4653 192.045L46.9546 191.745L46.4464 191.44L45.9408 191.13L45.4378 190.814L44.9375 190.494L44.4399 190.167L43.9452 189.836L43.4532 189.499L42.9643 189.157L42.4782 188.81L41.9952 188.458L41.5153 188.1L41.0385 187.737L40.5649 187.37L40.0945 186.997L39.6274 186.619L39.1637 186.236L38.7034 185.848L38.2465 185.455L37.7931 185.057L37.3433 184.655L36.8971 184.247L36.4546 183.835L36.0157 183.417L35.5807 182.995L35.1495 182.569L34.7221 182.137L34.2987 181.701L33.8792 181.26L33.4638 180.815L33.0524 180.365L32.6452 179.91L32.2421 179.451L31.8433 178.988L31.4487 178.52L31.0585 178.047L30.6726 177.571L30.2911 177.09L29.9141 176.605L29.5416 176.115L29.1737 175.622L28.8103 175.124L28.4517 174.622L28.0977 174.116L27.7484 173.606L27.4039 173.092L27.0643 172.574L26.7295 172.053L26.3997 171.527L26.0748 170.998L25.7549 170.464L25.44 169.928L25.1303 169.387L24.8256 168.843L24.5262 168.295L24.2319 167.744L23.9429 167.19L23.6592 166.632L23.3808 166.07L23.1078 165.506L22.8402 164.938L22.578 164.366L22.3213 163.792L22.0702 163.215L21.8245 162.634L21.5845 162.051L21.3501 161.464L21.1214 160.875L20.8983 160.283L20.681 159.688L20.4695 159.09L20.2637 158.49L20.0638 157.886L19.8697 157.281L19.6816 156.673L19.4993 156.062L19.323 155.449L19.1527 154.834L18.9884 154.216L18.8301 153.596L18.6779 152.974L18.5318 152.35L18.3919 151.724L18.258 151.096L18.1304 150.466L18.0089 149.834L17.8937 149.2L17.7847 148.565L17.682 147.927L17.5856 147.288L17.4955 146.648L17.4117 146.006L17.3343 145.363L17.2633 144.718L17.1987 144.072L17.1405 143.424L17.0888 142.776L17.0435 142.126L17.0047 141.476L16.9723 140.824L16.9465 140.171L16.9272 139.517L16.9145 138.863L16.9083 138.208L16.9086 137.552L16.9156 136.896L16.9291 136.239L16.9493 135.581L16.976 134.923L17.0094 134.265L17.0494 133.606L17.0961 132.948L17.1494 132.289L17.2094 131.63L17.276 130.971L17.3494 130.312L17.4294 129.653L17.5161 128.994L17.6094 128.335L17.7095 127.677L17.8163 127.019L17.9298 126.362L18.05 125.705L18.1768 125.049L18.3104 124.393L18.4507 123.738L18.5977 123.084L18.7514 122.431L18.9118 121.778L19.0789 121.127L19.2527 120.476L19.4332 119.827L19.6204 119.179L19.8143 118.532L20.0148 117.887L20.222 117.243L20.4358 116.6L20.6563 115.959L20.8835 115.319L21.1173 114.681L21.3577 114.045L21.6047 113.411L21.8583 112.778L22.1185 112.148L22.3852 111.519L22.6586 110.893L22.9384 110.268L23.2248 109.646L23.5178 109.026L23.8172 108.409L24.1231 107.794L24.4354 107.181L24.7542 106.571L25.0795 105.963L25.4111 105.358L25.7491 104.756L26.0935 104.157L26.4442 103.561L26.8012 102.967L27.1646 102.376L27.5342 101.789L27.91 101.205L28.2921 100.624L28.6803 100.046L29.0747 99.4712L29.4753 98.9001L29.882 98.3324L30.2947 97.7682L30.7135 97.2077L31.1384 96.6507L31.5692 96.0975L32.006 95.5481L32.4487 95.0025L32.8973 94.4608L33.3517 93.9231L33.812 93.3894L34.2781 92.8598L34.7499 92.3343L35.2275 91.8131L35.7107 91.2961L36.1996 90.7835L36.6941 90.2753L37.1942 89.7715L37.6998 89.2722L38.2109 88.7775L38.7274 88.2875L39.2493 87.8021L39.7766 87.3215L40.3093 86.8457L40.8472 86.3748L41.3903 85.9087L41.9386 85.4477L42.4921 84.9917L43.0507 84.5408L43.6143 84.0951L44.183 83.6545L44.7566 83.2192L45.3351 82.7893L45.9185 82.3647L46.5067 81.9455L47.0996 81.5318L47.6973 81.1236L48.2997 80.721L48.9066 80.3241L49.5181 79.9328L50.1341 79.5473L50.7546 79.1675L51.3795 78.7936L52.0087 78.4256L52.6422 78.0635L53.2799 77.7074L53.9218 77.3573L54.5679 77.0133L55.218 76.6754L55.8721 76.3437L56.5301 76.0182L57.1921 75.699L57.8579 75.386L58.5274 75.0795L59.2007 74.7793L59.8776 74.4856L60.5581 74.1983L61.2422 73.9176L61.9297 73.6434L62.6206 73.3759L63.3149 73.1149L64.0124 72.8607L64.7131 72.6132L65.417 72.3725L66.124 72.1385L66.834 71.9114L67.5469 71.6912L68.2628 71.4779L68.9814 71.2715L69.7028 71.0721L70.4269 70.8797L71.1536 70.6944L71.8829 70.5162L72.6147 70.345L73.3488 70.1811L74.0853 70.0243L74.8241 69.8747L75.5651 69.7323L76.3082 69.5972L77.0533 69.4694L77.8005 69.3489L78.5496 69.2358L79.3005 69.13L80.0532 69.0316L80.8076 68.9407L81.5636 68.8572L82.3212 68.7812L83.0803 68.7126L83.8408 68.6516L84.6026 68.5981L85.3657 68.5522L86.1299 68.5139L86.8953 68.4831L87.6617 68.46L88.4291 68.4445L89.1974 68.4366L89.9664 68.4364L90.7362 68.4439L91.5067 68.4591L92.2777 68.482L93.0493 68.5127L93.8212 68.551L94.5935 68.5971L95.3661 68.651L96.1389 68.7126L96.9118 68.782L97.6847 68.8592L98.4576 68.9442L99.2304 69.0369L100.003 69.1375L100.775 69.2459L101.547 69.3621L102.319 69.4862L103.09 69.618L103.86 69.7577L104.63 69.9052L105.399 70.0606L106.167 70.2237L106.934 70.3947L107.701 70.5735L108.466 70.7602L109.23 70.9546L109.993 71.1569L110.754 71.367L111.514 71.5849L112.273 71.8105L113.03 72.044L113.786 72.2853L114.54 72.5343L115.292 72.7911L116.042 73.0557L116.79 73.328L117.536 73.608L118.28 73.8958L119.022 74.1912L119.762 74.4944L120.499 74.8052L121.234 75.1237L121.967 75.4498L122.697 75.7836L123.424 76.1249L124.148 76.4739L124.87 76.8304L125.589 77.1944L126.304 77.566L127.017 77.9451L127.727 78.3316L128.433 78.7256L129.136 79.1271L129.836 79.5359L130.532 79.9522L131.225 80.3757L131.914 80.8066L132.6 81.2448L133.282 81.6903L133.96 82.143L134.634 82.6029L135.304 83.0699L135.97 83.5441L136.632 84.0254L137.29 84.5138L137.943 85.0092L138.592 85.5115L139.237 86.0209L139.877 86.5372L140.513 87.0603L141.144 87.5903L141.77 88.1272L142.392 88.6707L143.008 89.221L143.62 89.778L144.227 90.3416L144.828 90.9118L145.425 91.4886L146.016 92.0719L146.602 92.6616L147.183 93.2578L147.758 93.8603L148.327 94.4691L148.891 95.0842L149.45 95.7055L150.003 96.333L150.55 96.9666L151.091 97.6062L151.626 98.2519L152.155 98.9035L152.679 99.561L153.196 100.224L153.707 100.894L154.211 101.569L154.71 102.249L155.202 102.935L155.688 103.627L156.167 104.324L156.64 105.027L157.106 105.735L157.565 106.449L158.018 107.168L158.464 107.891L158.903 108.621L159.335 109.355L159.76 110.094L160.178 110.838L160.589 111.587L160.993 112.341L161.39 113.099L161.78 113.863L162.162 114.631L162.537 115.403L162.905 116.18L163.265 116.961L163.617 117.747L163.962 118.537L164.3 119.331L164.63 120.129L164.952 120.931L165.266 121.738L165.573 122.548L165.872 123.362L166.163 124.18L166.446 125.001L166.721 125.826L166.988 126.655L167.246 127.487L167.497 128.322L167.74 129.161L167.974 130.003L168.201 130.848L168.419 131.696L168.628 132.547L168.83 133.401L169.023 134.258L169.207 135.118L169.383 135.98L169.551 136.845L169.71 137.712L169.861 138.582L170.003 139.454L170.136 140.328L170.261 141.205L170.377 142.083L170.484 142.964L170.583 143.846L170.673 144.731L170.754 145.617L170.826 146.504L170.889 147.393L170.944 148.284L170.99 149.176L171.026 150.07L171.054 150.964L171.073 151.86L171.083 152.757L171.084 153.655L171.076 154.553L171.059 155.453L171.033 156.353L170.998 157.253L170.953 158.155L170.9 159.056L170.838 159.958L170.766 160.86L170.685 161.763L170.595 162.665L170.497 163.567L170.388 164.469L170.271 165.371L170.145 166.273L170.009 167.174L169.865 168.075L169.711 168.975L169.548 169.874L169.375 170.773L169.194 171.671L169.003 172.568L168.803 173.464L168.594 174.358L168.376 175.252L168.149 176.144L167.913 177.035L167.667 177.924L167.412 178.811L167.148 179.697L166.875 180.581L166.593 181.463L166.301 182.344L166.001 183.222L165.692 184.098L165.373 184.971L165.045 185.843L164.708 186.712L164.363 187.578L164.008 188.442L163.644 189.303L163.271 190.161L162.89 191.016L162.499 191.868L162.099 192.718L161.691 193.564L161.273 194.406L160.847 195.246L160.412 196.082L159.968 196.914L159.515 197.743L159.054 198.568L158.584 199.389L158.105 200.206L157.618 201.019L157.122 201.829L156.617 202.633L156.104 203.434L155.582 204.23L155.052 205.022L154.513 205.81L153.966 206.592L153.411 207.37L152.847 208.143L152.275 208.912L151.695 209.675L151.106 210.433L150.509 211.186L149.904 211.934L149.292 212.677L148.671 213.414L148.042 214.145L147.405 214.871L146.76 215.592L146.108 216.306L145.447 217.015L144.779 217.718L144.103 218.414L143.42 219.105L142.729 219.79L142.03 220.468L141.324 221.14L140.611 221.805L139.89 222.465L139.162 223.117L138.427 223.763L137.684 224.402L136.935 225.034L136.178 225.66L135.414 226.278L134.644 226.889L133.866 227.494L133.082 228.091L132.291 228.681L131.493 229.263L130.689 229.838L129.878 230.406L129.061 230.966L128.237 231.518L127.407 232.063L126.571 232.6L125.729 233.129L124.88 233.65L124.026 234.163L123.165 234.669L122.299 235.166L121.427 235.655L120.549 236.135L119.665 236.608L118.776 237.071L117.881 237.527L116.981 237.974L116.076 238.412L115.165 238.842L114.249 239.263L113.328 239.676L112.402 240.079L111.471 240.474L110.535 240.86L109.595 241.236L108.65 241.604L107.7 241.963L106.746 242.312L105.787 242.653L104.824 242.984L103.857 243.306L102.885 243.618L101.91 243.921L100.93 244.215L99.9471 244.499L98.96 244.773L97.9692 245.038L96.9748 245.293L95.9769 245.539L94.9756 245.775L93.971 246.001L92.9631 246.217L91.9522 246.424L90.9382 246.62L89.9212 246.807L88.9015 246.983L87.8789 247.15L86.8538 247.306L85.8261 247.453L84.7959 247.589L83.7634 247.715L82.7287 247.831L81.6918 247.937L80.6529 248.032L79.612 248.117L78.5692 248.192L77.5248 248.257L76.4787 248.311L75.431 248.355L74.3819 248.388L73.3315 248.411L72.2799 248.423L71.2271 248.425L70.1734 248.417L69.1187 248.398L68.0631 248.368L67.0069 248.328L65.9501 248.277L64.8928 248.215L63.8351 248.143L62.7771 248.061L61.719 247.967L60.6607 247.863L59.6026 247.749L58.5445 247.623L57.4867 247.487L56.4293 247.341L55.3723 247.183L54.3159 247.015L53.2602 246.836L52.2053 246.647L51.1513 246.447L50.0983 246.236L49.0464 246.014L47.9957 245.781L46.9464 245.538L45.8985 245.285L44.8521 245.02L43.8074 244.745L42.7645 244.459L41.7235 244.162L40.6844 243.855L39.6474 243.537L38.6127 243.208L37.5802 242.869L36.5502 242.519L35.5227 242.159L34.4979 241.788L33.4758 241.406L32.4565 241.014L31.4403 240.611L30.4271 240.197L29.4171 239.774L28.4103 239.339L27.407 238.894L26.4072 238.439L25.411 237.973L24.4185 237.497L23.4299 237.011L22.4452 236.514L21.4646 236.007L20.4881 235.49L19.5158 234.962L18.548 234.424L17.5846 233.876L16.6258 233.318L15.6717 232.75L14.7224 232.171L13.7779 231.583L12.8385 230.985L11.9042 230.376L10.9751 229.758L10.0514 229.13L9.13303 228.492L8.22021 227.845L7.31302 227.187L6.41156 226.52L5.51594 225.843L4.62626 225.157L3.74262 224.461L2.86512 223.756L1.99386 223.041L1.12894 222.317L0.270469 221.584L-0.581462 220.841L-1.42675 220.089L-2.2653 219.328L-3.097 218.557L-3.92177 217.778L-4.73951 216.99L-5.55012 216.193L-6.3535 215.387L-7.14955 214.572L-7.93819 213.749L-8.71932 212.916L-9.49284 212.076L-10.2587 211.226L-11.0167 210.369L-11.7668 209.502L-12.509 208.628L-13.2431 207.745L-13.969 206.854L-14.6867 205.956L-15.3961 205.049L-16.097 204.134L-16.7894 203.211L-17.4732 202.28L-18.1484 201.342L-18.8147 200.396L-19.4722 199.443L-20.1208 198.482L-20.7603 197.513L-21.3908 196.538L-22.012 195.555L-22.624 194.565L-23.2266 193.568L-23.8198 192.564L-24.4035 191.553L-24.9775 190.535L-25.542 189.511L-26.0967 188.48L-26.6415 187.442L-27.1765 186.398L-27.7015 185.348L-28.2165 184.291L-28.7213 183.228L-29.216 182.16L-29.7005 181.085L-30.1746 180.004L-30.6383 178.918L-31.0915 177.826L-31.5343 176.729L-31.9664 175.626L-32.3879 174.517L-32.7987 173.404L-33.1987 172.285L-33.5878 171.161L-33.966 170.032L-34.3333 168.898L-34.6896 167.76L-35.0347 166.617L-35.3688 165.469L-35.6916 164.317L-36.0032 163.161L-36.3034 162.001L-36.5923 160.836L-36.8698 159.667L-37.1359 158.495L-37.3904 157.318L-37.6334 156.139L-37.8648 154.955L-38.0845 153.768L-38.2925 152.578L-38.4888 151.384L-38.6732 150.188L-38.8459 148.988L-39.0067 147.786L-39.1556 146.581L-39.2925 145.373L-39.4174 144.163L-39.5303 142.95L-39.6312 141.735L-39.7199 140.518L-39.7966 139.299L-39.8611 138.078L-39.9133 136.855L-39.9534 135.63L-39.9812 134.404L-39.9968 133.176L-40 131.947L-39.9909 130.717L-39.9695 129.486L-39.9357 128.254L-39.8895 127.021L-39.8309 125.787L-39.7598 124.553L-39.6763 123.318L-39.5803 122.083L-39.4719 120.848L-39.3509 119.612L-39.2175 118.377L-39.0715 117.142L-38.913 115.907L-38.742 114.672L-38.5584 113.438L-38.3622 112.205L-38.1535 110.973L-37.9322 109.741L-37.6984 108.51L-37.452 107.281L-37.193 106.053L-36.9214 104.826L-36.6373 103.601L-36.3407 102.378L-36.0314 101.156L-35.7097 99.9361L-35.3753 98.7184L-35.0285 97.5029L-34.6691 96.2897L-34.2972 95.0789L-33.9128 93.8707L-33.5159 92.6652L-33.1066 91.4625L-32.6848 90.2627L-32.2505 89.066L-31.8038 87.8726L-31.3448 86.6824L-30.8733 85.4957L-30.3895 84.3126L-29.8934 83.1332L-29.385 81.9576L-28.8643 80.786L-28.3313 79.6184L-27.7861 78.4551L-27.2288 77.2961L-26.6593 76.1416L-26.0776 74.9917L-25.4839 73.8465L-24.8781 72.7061L-24.2603 71.5707L-23.6305 70.4404L-22.9888 69.3153L-22.3351 68.1955L-21.6697 67.0812L-20.9924 65.9725L-20.3033 64.8695L-19.6025 63.7723L-18.8901 62.6811L-18.166 61.596L-17.4304 60.5171L-16.6832 59.4445L-15.9245 58.3783L-15.1545 57.3187L-14.3731 56.2658L-13.5803 55.2197L-12.7763 54.1805L-11.9612 53.1483L-11.1349 52.1233L-10.2975 51.1056L-9.44912 50.0953L-8.5898 49.0925L-7.7196 48.0973L-6.83859 47.1099L-5.94684 46.1303L-5.04441 45.1587L-4.13138 44.1952L-3.20781 43.2399L-2.27379 42.2929L-1.32937 41.3544L-0.374638 40.4243L0.590334 39.503L1.56547 38.5904L2.55068 37.6866L3.54589 36.7919L4.55103 35.9062L5.56601 35.0297L6.59075 34.1626L7.62516 33.3048L8.66917 32.4566L9.72267 31.6179L10.7856 30.789L11.8578 29.97L12.9393 29.1608L14.0299 28.3617L15.1296 27.5727L16.2383 26.794L17.3558 26.0256L18.4821 25.2676L19.617 24.5202L20.7605 23.7833L21.9126 23.0572L23.0729 22.3419L24.2416 21.6375L25.4185 20.9442L26.6034 20.2619L27.7963 19.5908L28.997 18.9309L30.2056 18.2825L31.4217 17.6455L32.6455 17.02L33.8766 16.4062L35.1151 15.804L36.3608 15.2137L37.6136 14.6352L38.8734 14.0688L40.1401 13.5143L41.4136 12.972L42.6937 12.4419L43.9803 11.924L45.2734 11.4185L46.5728 10.9255L47.8783 10.445L49.1899 9.97699L50.5075 9.52169L51.8308 9.07911L53.1599 8.64932L54.4945 8.23241L55.8346 7.82842L57.18 7.43743L58.5307 7.05951L59.8864 6.69472L61.247 6.34312L62.6125 6.00478L63.9826 5.67975L65.3573 5.3681L66.7365 5.06988L68.1199 4.78515L69.5076 4.51396L70.8992 4.25638L72.2948 4.01245L73.6942 3.78222L75.0971 3.56575L76.5036 3.36309L77.9135 3.17429L79.3266 2.99938L80.7428 2.83842L82.162 2.69145L83.5839 2.55851L85.0086 2.43965L86.4358 2.3349L87.8654 2.24431L89.2973 2.16791L90.7313 2.10574L92.1673 2.05783L93.6052 2.02421L95.0447 2.00493L96.4858 2L97.9284 2.00946L99.3722 2.03334L100.817 2.07165L102.263 2.12444L103.71 2.19171L105.157 2.2735L106.605 2.36982L108.054 2.4807L109.502 2.60614L110.951 2.74618L112.4 2.90081L113.849 3.07006L115.297 3.25394L116.745 3.45246L118.192 3.66563L119.638 3.89345L121.084 4.13594L122.528 4.39309L123.972 4.66492L125.414 4.95141L126.854 5.25258L128.293 5.56842L129.73 5.89893L131.165 6.2441L132.598 6.60394L134.028 6.97843L135.457 7.36756L136.882 7.77132L138.305 8.18971L139.726 8.6227L141.143 9.0703L142.557 9.53247L143.968 10.0092L145.375 10.5005L146.779 11.0063L148.179 11.5266L149.575 12.0613L150.967 12.6106L152.355 13.1742L153.738 13.7522L155.117 14.3447L156.491 14.9514L157.861 15.5725L159.226 16.2078L160.585 16.8573L161.94 17.5211L163.289 18.199L164.632 18.891L165.97 19.5971L167.302 20.3172L168.628 21.0513L169.948 21.7994L171.262 22.5613L172.569 23.3371L173.87 24.1267L175.164 24.9301L176.451 25.7471L177.732 26.5777L179.005 27.4219L180.271 28.2797L181.529 29.1509L182.78 30.0355L184.024 30.9334L185.259 31.8446L186.486 32.769L187.706 33.7066L188.917 34.6572L190.12 35.6208L191.314 36.5973L192.499 37.5867L193.676 38.5889L194.844 39.6038L196.003 40.6313L197.152 41.6714L198.293 42.7239L199.423 43.7888L200.544 44.866L201.656 45.9555L202.757 47.057L203.849 48.1707L204.93 49.2962L206.001 50.4337L207.062 51.5829L208.112 52.7438L209.152 53.9163L210.18 55.1003L211.198 56.2957L212.205 57.5024L213.201 58.7203L214.185 59.9493L215.158 61.1894L216.12 62.4403L217.069 63.7019L218.008 64.9743L218.934 66.2573L219.848 67.5507L220.75 68.8545L221.64 70.1685L222.518 71.4927L223.383 72.8269L224.235 74.171L225.075 75.5249L225.902 76.8885L226.716 78.2616L227.518 79.6441L228.306 81.036L229.081 82.4371L229.842 83.8472L230.59 85.2663L231.325 86.6942L232.046 88.1308L232.753 89.576L233.447 91.0296L234.126 92.4915L234.792 93.9616L235.443 95.4397L236.08 96.9258L236.703 98.4196L237.311 99.9211L237.905 101.43L238.485 102.946L239.049 104.47L239.599 106.001L240.135 107.538L240.655 109.083L241.16 110.634L241.65 112.191L242.125 113.755L242.585 115.325L243.029 116.902L243.458 118.484L243.872 120.072L244.27 121.665L244.652 123.265L245.019 124.869L245.37 126.479L245.705 128.093L246.025 129.713L246.328 131.337L246.615 132.966L246.887 134.599L247.142 136.237L247.381 137.879L247.603 139.524L247.81 141.174L248 142.827L107.218 144.409Z" stroke="#9B51E0" stroke-width="3"/>
</svg>
