<svg width="98" height="100" viewBox="0 0 98 100" fill="none" xmlns="http://www.w3.org/2000/svg">
<path d="M21.7948 42.0039L0.245 72.4512C-0.383833 73.4277 0.265417 74.6973 1.45571 74.8223L43.9755 79.1328L21.7948 42.0039V42.0039ZM1.51287 61.6074L16.8846 37.7109L1.23725 28.7305C0.692125 28.418 0 28.793 0 29.4004V61.1992C0 61.9863 1.08004 62.2793 1.51287 61.6074ZM3.72604 82.7344L43.416 99.8555C44.4981 100.334 45.7333 99.5762 45.7333 98.4375V85.6113L4.17521 81.2559C3.26667 81.1582 2.90325 82.3477 3.72604 82.7344V82.7344ZM20.3085 32.3867L36.6275 4.46875C37.5136 3.08984 35.8945 1.49023 34.4266 2.29297L3.63621 21.5527C3.13192 21.8691 3.14825 22.5801 3.66275 22.877L20.3085 32.3867V32.3867ZM49 34.375H71.297L51.7828 1.48828C51.1438 0.496094 50.0719 0 49 0C47.9281 0 46.8562 0.496094 46.2172 1.48828L26.703 34.375H49ZM96.7628 28.7305L81.1154 37.7129L96.4871 61.6094C96.9179 62.2813 98 61.9883 98 61.1992V29.4004C98 28.793 97.3079 28.418 96.7628 28.7305V28.7305ZM77.6915 32.3867L94.3372 22.875C94.8538 22.5781 94.8681 21.8672 94.3638 21.5508L63.5734 2.29297C62.1055 1.49023 60.4864 3.08984 61.3725 4.46875L77.6915 32.3867ZM93.8248 81.2559L52.2667 85.6094V98.4355C52.2667 99.5762 53.5019 100.332 54.584 99.8535L94.274 82.7324C95.0967 82.3477 94.7333 81.1582 93.8248 81.2559V81.2559ZM76.2052 42.0039L54.0266 79.1328L96.5463 74.8223C97.7366 74.6953 98.3859 73.4277 97.757 72.4512L76.2052 42.0039V42.0039ZM49 40.625H28.4955L49 74.9512L69.5045 40.625H49Z" fill="#021853"/>
</svg>
