<svg width="63" height="24" viewBox="0 0 63 24" fill="none" xmlns="http://www.w3.org/2000/svg">
<path d="M19.912 0.599998V23H16.488L4.136 7.832V23H0.00800014V0.599998H3.432L15.784 15.768V0.599998H19.912ZM41.5943 14.552C41.5943 14.8293 41.5729 15.224 41.5303 15.736H28.1223C28.3569 16.9947 28.9649 17.9973 29.9463 18.744C30.9489 19.4693 32.1863 19.832 33.6583 19.832C35.5356 19.832 37.0823 19.2133 38.2983 17.976L40.4423 20.44C39.6743 21.3573 38.7036 22.0507 37.5303 22.52C36.3569 22.9893 35.0343 23.224 33.5623 23.224C31.6849 23.224 30.0316 22.8507 28.6023 22.104C27.1729 21.3573 26.0636 20.3227 25.2743 19C24.5063 17.656 24.1223 16.1413 24.1223 14.456C24.1223 12.792 24.4956 11.2987 25.2423 9.976C26.0103 8.632 27.0663 7.58667 28.4103 6.84C29.7543 6.09333 31.2689 5.72 32.9543 5.72C34.6183 5.72 36.1009 6.09333 37.4023 6.84C38.7249 7.56533 39.7489 8.6 40.4743 9.944C41.2209 11.2667 41.5943 12.8027 41.5943 14.552ZM32.9543 8.92C31.6743 8.92 30.5863 9.304 29.6903 10.072C28.8156 10.8187 28.2823 11.8213 28.0903 13.08H37.7863C37.6156 11.8427 37.0929 10.84 36.2183 10.072C35.3436 9.304 34.2556 8.92 32.9543 8.92ZM53.1165 23.224C51.3885 23.224 49.8312 22.8507 48.4445 22.104C47.0578 21.3573 45.9698 20.3227 45.1805 19C44.4125 17.656 44.0285 16.1413 44.0285 14.456C44.0285 12.7707 44.4125 11.2667 45.1805 9.944C45.9698 8.62133 47.0578 7.58667 48.4445 6.84C49.8312 6.09333 51.3885 5.72 53.1165 5.72C54.8658 5.72 56.4338 6.09333 57.8205 6.84C59.2072 7.58667 60.2845 8.62133 61.0525 9.944C61.8418 11.2667 62.2365 12.7707 62.2365 14.456C62.2365 16.1413 61.8418 17.656 61.0525 19C60.2845 20.3227 59.2072 21.3573 57.8205 22.104C56.4338 22.8507 54.8658 23.224 53.1165 23.224ZM53.1165 19.8C54.5885 19.8 55.8045 19.3093 56.7645 18.328C57.7245 17.3467 58.2045 16.056 58.2045 14.456C58.2045 12.856 57.7245 11.5653 56.7645 10.584C55.8045 9.60267 54.5885 9.112 53.1165 9.112C51.6445 9.112 50.4285 9.60267 49.4685 10.584C48.5298 11.5653 48.0605 12.856 48.0605 14.456C48.0605 16.056 48.5298 17.3467 49.4685 18.328C50.4285 19.3093 51.6445 19.8 53.1165 19.8Z" fill="#52575C"/>
</svg>
