<svg width="65" height="67" viewBox="0 0 65 67" fill="none" xmlns="http://www.w3.org/2000/svg">
<path d="M62.622 43.244L46.962 36.5172L40.34 33.6725C43.232 32.0318 45.581 29.4995 47.118 26.4495C48.4 23.9067 49.0631 21.1464 49.063 18.3539C49.063 16.7086 48.773 15.1463 48.369 13.6388C46.399 6.33385 40.064 0.952393 32.459 0.952393C24.998 0.952393 18.759 6.14204 16.667 13.239C16.184 14.8671 15.852 16.5601 15.852 18.3539C15.852 21.4688 16.66 24.3729 18.033 26.8988C19.62 29.8291 21.973 32.2452 24.837 33.7986L18.495 36.4578L2.327 43.2386C0.922999 43.8312 0 45.2576 0 46.8506V62.8482C0 64.9923 1.659 66.7303 3.707 66.7303H27.72V54.4815C27.7233 54.3552 27.7644 54.232 27.839 54.1249L27.829 54.1195L31.762 47.9852L31.772 47.9906C31.912 47.7745 32.161 47.6214 32.459 47.6214C32.757 47.6214 33.006 47.7736 33.146 47.9906L33.15 47.9879L33.186 48.0447C33.191 48.0537 33.198 48.0609 33.202 48.0699L37.083 54.1222L37.078 54.1249C37.1526 54.2323 37.1937 54.3558 37.197 54.4824V66.7312H61.21C63.258 66.7312 64.918 64.9932 64.918 62.8491V46.8506C64.921 45.263 64.013 43.8501 62.622 43.244ZM37.081 39.1422L37.091 39.1476L33.157 45.2819L33.147 45.2765C33.0787 45.387 32.9792 45.4793 32.8586 45.544C32.7379 45.6086 32.6004 45.6434 32.46 45.6448C32.3196 45.6434 32.1821 45.6086 32.0614 45.544C31.9408 45.4793 31.8412 45.387 31.773 45.2765L31.768 45.2792L31.728 45.2171C31.725 45.2108 31.719 45.2054 31.716 45.1991L27.835 39.1449L27.839 39.1422C27.7644 39.0348 27.7233 38.9113 27.72 38.7847C27.72 38.384 28.081 38.0589 28.526 38.0589H36.392C36.837 38.0589 37.198 38.384 37.198 38.7847C37.1964 38.9113 37.1559 39.035 37.081 39.1422Z" fill="black"/>
</svg>
