<svg width="51" height="51" viewBox="0 0 51 51" fill="none" xmlns="http://www.w3.org/2000/svg">
<path d="M14.0675 22.9287C17.1275 28.9425 22.0575 33.8512 28.0713 36.9325L32.7462 32.2575C33.32 31.6838 34.17 31.4925 34.9138 31.7475C37.2938 32.5337 39.865 32.9588 42.5 32.9588C43.6688 32.9588 44.625 33.915 44.625 35.0838V42.5C44.625 43.6688 43.6688 44.625 42.5 44.625C22.5462 44.625 6.375 28.4538 6.375 8.5C6.375 7.33125 7.33125 6.375 8.5 6.375H15.9375C17.1063 6.375 18.0625 7.33125 18.0625 8.5C18.0625 11.1562 18.4875 13.7063 19.2737 16.0863C19.5075 16.83 19.3375 17.6588 18.7425 18.2538L14.0675 22.9287Z" fill="white"/>
</svg>
