<svg width="70" height="49" viewBox="0 0 70 49" fill="none" xmlns="http://www.w3.org/2000/svg">
<path d="M54.6875 30.75C51.659 30.75 48.6985 29.8519 46.1803 28.1694C43.6622 26.4868 41.6996 24.0953 40.5406 21.2973C39.3816 18.4994 39.0784 15.4205 39.6692 12.4502C40.2601 9.47985 41.7184 6.75143 43.8599 4.60994C46.0014 2.46844 48.7299 1.01007 51.7002 0.419232C54.6705 -0.171604 57.7494 0.131635 60.5473 1.2906C63.3453 2.44957 65.7368 4.41221 67.4194 6.93034C69.1019 9.44847 70 12.409 70 15.4375L70.07 17.625C70.07 21.6467 69.2779 25.6291 67.7388 29.3447C66.1998 33.0603 63.944 36.4364 61.1002 39.2802C58.2564 42.124 54.8803 44.3798 51.1647 45.9188C47.4491 47.4579 43.4667 48.25 39.445 48.25V39.5C42.3189 39.5077 45.1659 38.9457 47.8212 37.8463C50.4766 36.7469 52.8876 35.132 54.915 33.095C55.703 32.3085 56.4299 31.4632 57.0894 30.5663C56.2948 30.6911 55.4918 30.754 54.6875 30.7544V30.75ZM15.3125 30.75C12.284 30.75 9.32347 29.8519 6.80534 28.1694C4.28721 26.4868 2.32457 24.0953 1.1656 21.2973C0.00663478 18.4994 -0.296604 15.4205 0.294232 12.4502C0.885068 9.47985 2.34344 6.75143 4.48493 4.60994C6.62643 2.46844 9.35485 1.01007 12.3252 0.419232C15.2955 -0.171604 18.3744 0.131635 21.1723 1.2906C23.9703 2.44957 26.3618 4.41221 28.0444 6.93034C29.7269 9.44847 30.625 12.409 30.625 15.4375L30.695 17.625C30.695 25.7473 27.4685 33.5369 21.7252 39.2802C15.9818 45.0235 8.19226 48.25 0.0700069 48.25V39.5C2.94394 39.5077 5.79089 38.9457 8.44623 37.8463C11.1016 36.7469 13.5126 35.132 15.54 33.095C16.328 32.3085 17.0549 31.4632 17.7144 30.5663C16.9198 30.6911 16.1168 30.754 15.3125 30.7544V30.75Z" fill="white" fill-opacity="0.7"/>
</svg>
