<svg width="70" height="49" viewBox="0 0 70 49" fill="none" xmlns="http://www.w3.org/2000/svg">
<path d="M15.3825 17.625C18.411 17.625 21.3715 18.5231 23.8897 20.2056C26.4078 21.8882 28.3704 24.2797 29.5294 27.0777C30.6884 29.8757 30.9916 32.9545 30.4008 35.9248C29.8099 38.8952 28.3516 41.6236 26.2101 43.7651C24.0686 45.9066 21.3402 47.3649 18.3698 47.9558C15.3995 48.5466 12.3207 48.2434 9.52266 47.0844C6.72467 45.9254 4.33318 43.9628 2.65062 41.4447C0.968062 38.9265 0.07 35.966 0.07 32.9375L0 30.75C0 22.6277 3.22655 14.8382 8.96985 9.09486C14.7132 3.35155 22.5027 0.125 30.625 0.125V8.875C27.7511 8.86728 24.9041 9.42936 22.2488 10.5287C19.5934 11.6281 17.1824 13.243 15.155 15.28C14.367 16.0665 13.6401 16.9118 12.9806 17.8088C13.7638 17.6863 14.5644 17.6206 15.3781 17.6206L15.3825 17.625ZM54.7575 17.625C57.786 17.625 60.7465 18.5231 63.2647 20.2056C65.7828 21.8882 67.7454 24.2797 68.9044 27.0777C70.0634 29.8757 70.3666 32.9545 69.7758 35.9248C69.1849 38.8952 67.7266 41.6236 65.5851 43.7651C63.4436 45.9066 60.7152 47.3649 57.7448 47.9558C54.7745 48.5466 51.6957 48.2434 48.8977 47.0844C46.0997 45.9254 43.7082 43.9628 42.0256 41.4447C40.3431 38.9265 39.445 35.966 39.445 32.9375L39.375 30.75C39.375 22.6277 42.6016 14.8382 48.3449 9.09486C54.0882 3.35155 61.8777 0.125 70 0.125V8.875C67.1261 8.86728 64.2791 9.42936 61.6238 10.5287C58.9684 11.6281 56.5574 13.243 54.53 15.28C53.742 16.0665 53.0151 16.9118 52.3556 17.8088C53.1387 17.6863 53.9394 17.6206 54.7575 17.6206V17.625Z" fill="white" fill-opacity="0.7"/>
</svg>
