<svg width="81" height="80" viewBox="0 0 81 80" fill="none" xmlns="http://www.w3.org/2000/svg">
<path fill-rule="evenodd" clip-rule="evenodd" d="M47.0183 24.0184C44.8501 24.0257 42.7499 24.7746 41.0679 26.1396C39.572 27.3587 38.4915 29.0106 37.9754 30.8676C37.4592 32.7245 37.5326 34.6953 38.1855 36.5089C38.8384 38.3226 40.0388 39.8898 41.6212 40.9947C43.2037 42.0997 45.0906 42.688 47.0221 42.679C49.1883 42.6786 51.2888 41.9367 52.9726 40.5769C54.4704 39.3571 55.5524 37.704 56.0697 35.8453C56.5871 33.9866 56.5143 32.0137 55.8614 30.198C55.2085 28.3824 54.0076 26.8134 52.4239 25.7068C50.8403 24.6001 48.9518 24.0101 47.0183 24.0184ZM49.4015 36.2418C48.6272 36.8641 47.639 37.1582 46.6495 37.0608C45.6601 36.9634 44.7486 36.4821 44.1112 35.7208C43.7984 35.3409 43.564 34.9033 43.4214 34.4327C43.2787 33.9621 43.2306 33.4679 43.2798 32.9787C43.329 32.4896 43.4745 32.015 43.7081 31.582C43.9416 31.1491 44.2586 30.7664 44.6407 30.456C45.3146 29.915 46.1534 29.6193 47.0183 29.6185C47.7908 29.617 48.5449 29.8542 49.1771 30.2971C49.8094 30.7399 50.2889 31.3667 50.5499 32.0921C50.8109 32.8175 50.8406 33.6057 50.635 34.3487C50.4294 35.0916 49.9986 35.7528 49.4015 36.2418ZM81.0131 5.43242C80.9602 4.02767 80.3827 2.69368 79.3942 1.69196C78.4057 0.690232 77.0775 0.0933106 75.6705 0.0186299C75.6705 0.0186299 74.8593 -0.0186157 73.4328 -0.0186157C65.2819 -0.0186157 44.9932 1.30237 32.6708 13.5256C30.5335 15.6513 28.5588 17.9335 26.7632 20.3534C26.5984 20.3815 26.4353 20.4189 26.2746 20.4651L3.84521 28.056C2.94087 28.3583 2.129 28.8864 1.48676 29.5898C0.84452 30.2933 0.393196 31.1488 0.175705 32.0753C-0.0417855 33.0018 -0.018226 33.9684 0.244109 34.8833C0.506444 35.7981 0.998886 36.6309 1.67461 37.3024L13.6763 49.2092C12.0115 49.722 10.4824 50.5994 9.20079 51.7769C7.82639 53.3805 6.80432 55.2535 6.20047 57.2756C5.59662 59.2977 5.42439 61.4235 5.69501 63.5161C5.46361 64.3025 5.12549 65.054 4.68995 65.749C4.19138 66.5133 3.88891 67.3882 3.80924 68.2967C3.72957 69.2051 3.87509 70.1189 4.23304 70.9579C4.59343 71.7997 5.15402 72.5416 5.86625 73.1186C6.57847 73.6957 7.42091 74.0905 8.32064 74.2696C8.88754 74.3812 9.46401 74.4375 10.0418 74.4372C11.7226 74.4133 13.3709 73.9722 14.838 73.1536C15.3616 73.522 15.9407 73.8045 16.5536 73.9907C17.6059 74.2843 18.6944 74.4283 19.7871 74.4186C21.3956 74.4259 22.9897 74.1155 24.4775 73.5056C25.9654 72.8958 27.3176 71.9986 28.4564 70.8653C29.6793 69.6496 30.5995 68.1648 31.1435 66.5303L43.0352 78.3258C44.0962 79.3752 45.5299 79.9635 47.0239 79.9628C47.4637 79.9692 47.9023 79.9191 48.3293 79.8138C49.2624 79.5989 50.1249 79.1495 50.8345 78.5079C51.5442 77.8663 52.0773 77.0541 52.3833 76.1487L59.7584 54.2138C62.3157 52.458 64.7109 50.4781 66.9154 48.2976C81.7515 33.5627 81.0504 6.5673 81.0131 5.43242ZM21.8999 27.8511C19.1857 32.7337 17.125 37.9504 15.7704 43.3676L5.66331 33.3394L21.8999 27.8511ZM24.4639 66.9209C23.6407 67.7106 22.6317 68.2815 21.5297 68.5806C20.4277 68.8797 19.2681 68.8972 18.1573 68.6324C18.1573 68.6324 17.982 64.2232 16.9414 63.1813C16.9414 63.1813 13.5495 68.8372 10.0418 68.8372C9.83544 68.8371 9.62945 68.8184 9.42643 68.7813C10.5887 67.0547 11.2413 65.0371 11.3099 62.9583C10.9569 60.3931 11.6323 57.7922 13.1895 55.7208C14.9823 54.4524 17.1367 53.7935 19.334 53.8418C21.227 53.7661 23.0729 54.4418 24.4677 55.7208C24.4677 55.7208 28.3911 63.0139 24.4658 66.9209H24.4639ZM47.0183 74.3814L36.1616 63.6092C41.7767 62.7316 47.2298 61.0262 52.3423 58.5488L47.0183 74.3814ZM62.9118 44.3537C54.7621 52.2807 44.1607 57.219 32.8368 58.363L30.7967 56.3349C30.4261 55.2229 29.971 54.1407 29.4354 53.0978C29.1733 52.6116 28.8409 52.1666 28.449 51.7769C26.9763 50.3232 25.1489 49.2777 23.1474 48.7441L20.8724 46.493C23.1977 35.5 28.6829 25.4208 36.6577 17.4882C41.2048 13.237 46.7242 10.1589 52.7357 8.52108C52.5677 13.7977 54.446 18.9355 57.9795 22.8652C61.8226 26.3377 66.8842 28.1562 72.064 27.9256H72.2132C70.4876 34.0701 67.2969 39.7067 62.9136 44.3537H62.9118ZM73.6846 22.2697C68.7448 22.6232 64.4987 21.4138 61.9663 18.9208C59.5123 16.4836 58.179 12.0745 58.3785 7.08849C63.3362 6.10306 68.3777 5.59827 73.4328 5.5814C74.036 5.60807 74.6396 5.5388 75.2211 5.37655C75.3691 11.0479 74.8541 16.7173 73.6864 22.2697H73.6846Z" fill="#290390"/>
</svg>
