<svg width="98" height="88" viewBox="0 0 98 88" fill="none" xmlns="http://www.w3.org/2000/svg">
<path d="M20.5888 55.543C20.5888 60.6016 15.96 64.7344 10.2944 64.7344C4.62875 64.7344 0 60.6016 0 55.543C0 50.4844 4.62875 46.3516 10.2944 46.3516H20.5888V55.543ZM25.7775 55.543C25.7775 50.4844 30.4062 46.3516 36.0719 46.3516C41.7375 46.3516 46.3663 50.4844 46.3663 55.543V78.5586C46.3663 83.6172 41.7375 87.75 36.0719 87.75C30.4062 87.75 25.7775 83.6172 25.7775 78.5586V55.543ZM36.0719 18.6328C30.4062 18.6328 25.7775 14.5 25.7775 9.44141C25.7775 4.38281 30.4062 0.25 36.0719 0.25C41.7375 0.25 46.3663 4.38281 46.3663 9.44141V18.6328H36.0719V18.6328ZM36.0719 23.2656C41.7375 23.2656 46.3663 27.3984 46.3663 32.457C46.3663 37.5156 41.7375 41.6484 36.0719 41.6484H10.2944C4.62875 41.6484 0 37.5156 0 32.457C0 27.3984 4.62875 23.2656 10.2944 23.2656H36.0719V23.2656ZM77.4113 32.457C77.4113 27.3984 82.04 23.2656 87.7056 23.2656C93.3713 23.2656 98 27.3984 98 32.457C98 37.5156 93.3713 41.6484 87.7056 41.6484H77.4113V32.457V32.457ZM72.2225 32.457C72.2225 37.5156 67.5938 41.6484 61.9281 41.6484C56.2625 41.6484 51.6337 37.5156 51.6337 32.457V9.44141C51.6337 4.38281 56.2625 0.25 61.9281 0.25C67.5938 0.25 72.2225 4.38281 72.2225 9.44141V32.457V32.457ZM61.9281 69.3672C67.5938 69.3672 72.2225 73.5 72.2225 78.5586C72.2225 83.6172 67.5938 87.75 61.9281 87.75C56.2625 87.75 51.6337 83.6172 51.6337 78.5586V69.3672H61.9281ZM61.9281 64.7344C56.2625 64.7344 51.6337 60.6016 51.6337 55.543C51.6337 50.4844 56.2625 46.3516 61.9281 46.3516H87.7056C93.3713 46.3516 98 50.4844 98 55.543C98 60.6016 93.3713 64.7344 87.7056 64.7344H61.9281Z" fill="#021853"/>
</svg>
