<svg width="98" height="88" viewBox="0 0 98 88" fill="none" xmlns="http://www.w3.org/2000/svg">
<path d="M90.5844 0.25H7.41563C3.325 0.25 0 3.21875 0 6.87109V81.1094C0 84.7812 3.325 87.75 7.41563 87.75H90.5625C94.6531 87.75 97.9781 84.7813 97.9781 81.1289V6.87109C98 3.21875 94.675 0.25 90.5844 0.25ZM51.975 70.3867C35.6563 71.8516 21.0875 61.2266 19.4469 46.6563H40.0969V50.6406C40.0969 51.3633 40.7531 51.9687 41.5844 51.9687H56.4375C57.2469 51.9687 57.925 51.3828 57.925 50.6406V37.3789C57.925 36.6563 57.2687 36.0508 56.4375 36.0508H41.5844C40.775 36.0508 40.0969 36.6367 40.0969 37.3789V41.3633H19.4469C20.9781 27.8086 33.7531 17.4961 49 17.4961C64.2469 17.4961 77.0219 27.8086 78.5531 41.3633C80.1938 55.9141 68.2938 68.9219 51.975 70.3867V70.3867Z" fill="#021853"/>
</svg>
