<svg width="36" height="29" viewBox="0 0 36 29" fill="none" xmlns="http://www.w3.org/2000/svg">
<path d="M2.57143 0.273926C1.15127 0.273926 0 1.39029 0 2.76749C0 4.14459 1.15127 5.26105 2.57143 5.26105H33.4286C34.8487 5.26105 36 4.14459 36 2.76749C36 1.39029 34.8487 0.273926 33.4286 0.273926H2.57143ZM2.57143 11.9105C1.15127 11.9105 0 13.0269 0 14.4041C0 15.7812 1.15127 16.8977 2.57143 16.8977H33.4286C34.8487 16.8977 36 15.7812 36 14.4041C36 13.0269 34.8487 11.9105 33.4286 11.9105H2.57143ZM2.57143 23.5472C1.15127 23.5472 0 24.6635 0 26.0407C0 27.4178 1.15127 28.5343 2.57143 28.5343H33.4286C34.8487 28.5343 36 27.4178 36 26.0407C36 24.6635 34.8487 23.5472 33.4286 23.5472H2.57143Z" fill="black"/>
</svg>
