<svg width="140" height="129" viewBox="0 0 140 129" fill="none" xmlns="http://www.w3.org/2000/svg">
<path d="M139.8 98.3C139.8 106.7 137.1 113.8 131.7 119.6C126.3 125.4 119.6 128.3 111.6 128.3C101.8 128.3 93.5 124.3 86.7 116.3C80.1 108.1 76.8 98 76.8 86C76.8 62.4 87.6 37.2 109.2 10.4C114.6 3.79999 119.4 0.499981 123.6 0.499981C131 0.499981 134.7 4.69999 134.7 13.1C134.7 17.9 132.6 23.5 128.4 29.9C117 47.1 111.3 58.2 111.3 63.2C111.3 66.2 113.5 68.3 117.9 69.5C132.5 73.5 139.8 83.1 139.8 98.3ZM63.3 98.3C63.3 106.7 60.6 113.8 55.2 119.6C49.8 125.4 43.1 128.3 35.1 128.3C25.3 128.3 17 124.3 10.2 116.3C3.6 108.1 0.300001 98 0.300001 86C0.300001 62.2 11.1 37 32.7 10.4C38.1 3.79999 42.9 0.499981 47.1 0.499981C54.5 0.499981 58.2 4.69999 58.2 13.1C58.2 17.9 56 23.5 51.6 29.9C40.2 46.7 34.5 57.8 34.5 63.2C34.5 66.2 36.8 68.3 41.4 69.5C56 73.3 63.3 82.9 63.3 98.3Z" fill="#9B51E0"/>
</svg>
